<?xml version="1.0" standalone="no"?>
<!DOCTYPE svg PUBLIC "-//W3C//DTD SVG 1.1//EN" "http://www.w3.org/Graphics/SVG/1.1/DTD/svg11.dtd" >
<svg xmlns="http://www.w3.org/2000/svg">
<metadata>Generated by IcoMoon</metadata>
<defs>
<font id="icomoon" horiz-adv-x="1024">
<font-face units-per-em="1024" ascent="960" descent="-64" />
<missing-glyph horiz-adv-x="1024" />
<glyph unicode="&#x20;" horiz-adv-x="512" d="" />
<glyph unicode="&#xe900;" glyph-name="soccer" d="M1017 734.2c-4.6 4.6-10.8 7.2-17.4 7.2s-12.8-2.6-17.4-7.2l-339.4-339.2c-10.2 25.4-23.6 49.4-39.8 71.6-0.6 1-1.2 1.8-1.6 2.4-1.4 1.8-2.6 3.6-4 5.4-0.6 0.8-1.2 1.4-1.8 2.2l-0.2 0.4-0.4 0.4c-0.2 0.2-0.2 0.4-0.4 0.4l-0.6 0.8c-2.4 3.2-5 6-7.2 8.6l-0.2 0.2 356 356.6c9.6 9.6 9.6 25.2 0 34.6-4.6 4.6-10.8 7.2-17.4 7.2s-12.8-2.6-17.4-7.2l-356.4-356.4c-3 2.6-6.2 5.4-9.6 8-0.4 0.4-0.8 0.6-1 0.8-24.8 19.8-52.4 36-82 48l339.4 339.2c4.6 4.6 7.2 10.8 7.2 17.4s-2.6 12.8-7.2 17.4c-4.6 4.6-10.8 7.2-17.4 7.2s-12.8-2.6-17.4-7.2l-357.2-357.6c-23.6 5.2-47.8 7.8-72.4 7.8-26.6 0-52.6-3-78-9.2l243 243.4c9.6 9.6 9.6 25.2 0 34.6-4.6 4.6-10.8 7.2-17.4 7.2s-12.8-2.6-17.4-7.2l-366.6-366.6c-2.6-2.6-5.2-5.4-7.8-8.2l-2-2c-1.4-1.4-2.6-2.8-3.8-4.2s-2.4-2.6-3.6-4l-1.2-1.2c-0.2-0.2-0.2-0.4-0.4-0.6-1-1.2-2-2.4-3-3.6s-2-2.6-3.2-3.8l-0.4-0.4c-0.2-0.2-0.4-0.4-0.4-0.6-0.4-0.4-0.8-1-1.2-1.4-2.2-2.8-4.4-5.8-6.6-8.8l-0.2-0.4c-0.2-0.2-0.4-0.4-0.6-0.8s-0.4-0.6-0.8-1c-1.6-2.2-3.4-4.6-5.2-7.4-0.4-0.4-0.6-1-1-1.4-0.2-0.2-0.4-0.6-0.6-0.8l-0.2-0.2c-2.2-3-4-6.2-6-9.2l-0.4-0.8c-0.2-0.2-0.4-0.6-0.4-0.8-0.4-0.6-0.8-1.4-1.4-2.4-0.8-1.4-1.6-2.8-2.4-4l-1.2-2-0.2-0.4c-0.2-0.6-0.6-1-1-1.6-0.6-1-1.2-2-1.6-3-0.6-1-1-2-1.6-3-0.8-1.2-1.4-2.6-2-3.8l-0.8-1.8c-0.4-0.6-0.6-1.2-0.8-1.6-32.2-64.6-43-139-30.2-210.2 0-0.6 0-1 0.2-1.4v-0.6l0.2-1c6.6-34.6 18.6-68 35.8-99.2 0.2-0.4 0.4-0.8 0.6-1.2 1.2-2.6 2.6-4.8 4-6.8 2.4-4 4.8-7.8 7.2-11.4l2.4-3.6c1.2-2 2.4-3.6 3.4-5 0.8-1 1.4-2 2.2-3.2s1.6-2.2 2.4-3.4c1-1.4 2-2.8 3-3.8 1.4-2 3-4 4.8-6l2.4-3c1-1.2 2-2.6 3.2-3.8 1.2-1.4 2.2-2.8 3.4-4l1-1.2c2-2.4 4.2-4.8 6.4-7.2 0.6-0.8 1.2-1.2 1.6-1.6l0.2-0.2 0.2-0.4 0.4-0.4c1.2-1.2 2.4-2.4 3.4-3.6 1.4-1.4 2.6-2.8 4-4.2s2.6-2.6 4-4c1.2-1.2 2.6-2.4 3.8-3.6l0.8-0.8c0.2-0.2 0.8-0.6 1.2-1 5.6-5.2 11.4-10.2 17.2-14.8l0.6-0.6c59.4-47.6 131.4-72.8 208-72.8 89.2 0 173 34.8 236 97.8l366.4 366c9.6 9.6 9.6 25.2 0 34.6-4.6 4.6-10.8 7.2-17.4 7.2s-12.8-2.6-17.4-7.2l-243-243.2c8.8 36 11.4 72.8 7.8 109.4 0 1.4-0.4 2.4-0.6 3.2-1.2 12-3.2 24.4-6.2 37.6l357.6 357.6c10 9.8 10.2 25.2 0.6 35zM514.8 489.2c0.4-0.4 0.8-0.6 1.2-0.8 0.8-0.8 1.8-1.4 2.6-2.2 1-0.8 2-1.6 3-2.6l0.4-0.2h0.2c0.2-0.2 0.4-0.4 0.6-0.6l0.4-0.4c0.4-0.4 1-0.8 1.4-1.4 1-1 2.2-2 3.4-3l0.8-0.8-64.2-0.6-27.8 58.2c28.2-10.8 54.4-26 78-45.6zM116.6 454l0.6 0.4 5.2 6c0.2 0.2 0.2 0.2 0.4 0.4 1.2 1.4 2.2 2.6 3.4 3.8l1.2 1.2 0.2 0.4c0 0 0 0 0 0 1.6 1.6 3.2 3.2 5 5.2l5.6 5.6c6 5.6 12.2 11 18.2 15.8l-8.4-37.2-36.8-8.2c1.8 2.2 3.6 4.4 5.4 6.6zM126 75c-0.2 0.2-0.8 0.8-0.8 0.8l-0.2 0.4c-0.6 0.8-1.4 1.6-2.2 2.4-0.6 0.6-1 1.2-1.6 1.8l-0.4 0.4c-0.2 0.2-0.6 0.6-0.8 0.8-0.4 0.4-0.8 1-1.2 1.4-0.4 0.6-2.8 3.2-2.8 3.2l-2.4 3c-0.4 0.4-0.8 1-1 1.4-0.6 0.8-1 1.4-1.6 2.2-3.2 4-6.6 8.4-10.2 13.4l-0.4 0.4c-0.2 0.4-0.4 0.6-0.8 1.2l-3 4.6c-0.2 0.2-0.2 0.4-0.4 0.6v0.2l-0.4 0.4c-11 16.8-20 34.6-27.2 53.2l58.2-27.6-0.8-64.2zM361-13.8l43 48.8 61-18.2c-32.4-16.6-67.8-27-104-30.6zM534.8 68.4c-6-6-11.6-11-17-15.6l-115.2 33.8c-2.2 0.6-4.6 1-7 1-7 0-13.6-3-18.4-8.2l-81-92c-43.6 5.6-85.6 21.6-121.8 46l1.2 120.8c0 9.6-5.6 18.4-14.2 22.2l-109.6 52c-8 54.8 0 110 23 160.2l98.8 21.6c9.4 2 16.8 9.2 18.8 18.6l22 99.2c36.8 17 77.8 26 119.2 26 13.4 0 27.2-1 41-3l52-109.8c4-8.6 12.6-14.2 22.2-14.2l120.8 1.2c24.2-35.8 39.8-77 45.6-119.6l-70.8-62.2c-7.4-6.4-10.2-16.4-7.2-25.6l32.6-110c-10.2-15.2-22-29.6-35-42.4zM610 202c-0.2-1-0.4-2-0.8-2.8-0.2-1-0.4-1.8-0.8-2.8-0.2-0.6-0.4-1-0.4-1.6v-0.8c-0.2-0.6-0.4-1.2-0.6-2-0.2-1-0.6-2-0.8-3 0-0.2-0.2-0.4-0.2-0.6-0.2-0.4-0.2-0.8-0.4-1.4s-0.4-1.2-0.6-1.8c-0.2-1-0.6-1.8-0.8-2.8l-0.2-0.2c-0.2-0.4-0.4-1-0.6-1.6-0.2-0.8-0.6-1.6-0.8-2.4-0.2-0.6-0.4-1.2-0.6-1.8l-0.2-0.6v-0.2c0 0 0-0.2-0.2-0.2l-13.2 44.8 28 24.8c-1-14.8-3.4-29.2-6.8-43zM454.2 304.2c0 0.2-0.2 0.4-0.2 0.4l-19.2 52.4c0 0 0 0 0 0l-11.8 32c-2.6 6.8-9.2 11.4-16.6 10.6l-175.4-12.6c-8-0.6-14.6-7-15-15l-12.6-175.4c-0.4-7.2 4-14 10.6-16.6l148.6-54.6c1.8-0.6 3.8-1 5.6-1 4.4 0 8.6 1.8 11.6 4.8l94 94c4.6 4.6 5.8 11.2 3.8 17.2l-23.4 63.8z" />
<glyph unicode="&#xe901;" glyph-name="acc" d="M780 268c0-22.091-17.909-40-40-40s-40 17.909-40 40c0 22.091 17.909 40 40 40s40-17.909 40-40zM920 236c22.092 0 40 17.908 40 40v148c0 88.224-71.776 160-160 160h-48.074v141.068c0 129.542-107.664 234.932-240 234.932s-240-105.39-240-234.932v-141.068h-47.926c-88.224 0-160-71.776-160-160v-328c0-88.224 71.776-160 160-160h576c88.224 0 160 71.776 160 160 0 22.092-17.908 40-40 40s-40-17.908-40-40c0-44.112-35.888-80-80-80h-576c-44.112 0-80 35.888-80 80v328c0 44.112 35.888 80 80 80h576c44.112 0 80-35.888 80-80v-148c0-22.092 17.908-40 40-40zM671.926 584h-320v141.068c0 85.43 71.776 154.932 160 154.932s160-69.502 160-154.932v-141.068zM478 268c0-22.091-17.909-40-40-40s-40 17.909-40 40c0 22.091 17.909 40 40 40s40-17.909 40-40zM328 268c0-22.091-17.909-40-40-40s-40 17.909-40 40c0 22.091 17.909 40 40 40s40-17.909 40-40zM628 268c0-22.091-17.909-40-40-40s-40 17.909-40 40c0 22.091 17.909 40 40 40s40-17.909 40-40z" />
<glyph unicode="&#xe902;" glyph-name="ads" d="M512-64c-136.818 0-265.299 53.231-362.141 149.859-96.628 96.842-149.859 225.323-149.859 362.141s53.231 265.299 149.859 362.141c96.842 96.628 225.323 149.859 362.141 149.859s265.299-53.231 362.141-149.859c96.628-96.628 149.859-225.323 149.859-362.141s-53.231-265.299-149.859-362.141c-96.842-96.628-225.323-149.859-362.141-149.859zM512 885.177c-241.142 0-437.177-196.035-437.177-437.177s196.035-437.177 437.177-437.177 437.177 196.035 437.177 437.177-196.035 437.177-437.177 437.177zM512 116.857c-182.567 0-331.143 148.576-331.143 331.143s148.576 331.143 331.143 331.143 331.143-148.576 331.143-331.143-148.576-331.143-331.143-331.143zM512 704.321c-141.308 0-256.321-115.013-256.321-256.321s115.013-256.321 256.321-256.321 256.321 115.013 256.321 256.321-115.013 256.321-256.321 256.321zM512 279.756c-92.78 0-168.244 75.464-168.244 168.244s75.464 168.244 168.244 168.244 168.244-75.464 168.244-168.244-75.464-168.244-168.244-168.244zM512 541.421c-51.521 0-93.421-41.901-93.421-93.421s41.901-93.421 93.421-93.421 93.421 41.901 93.421 93.421c0 51.521-41.901 93.421-93.421 93.421z" />
<glyph unicode="&#xe903;" glyph-name="ball" d="M982.004 650.111c-27.531 62.658-63.818 116.455-109.168 161.807-45.352 45.35-99.805 80.837-162.93 107.497-62.849 26.539-128.207 40.311-197.076 40.311h-6.151c-69.431 0-135.494-14.56-198.199-41.996-62.707-27.436-116.873-64.522-162.356-110.853-45.208-46.045-80.526-100.82-106.934-164.041-26.219-62.753-39.19-128.206-39.19-197.076v-2.794c0-68.869 13.891-134.981 41.422-197.639 27.328-62.193 64.246-116.037 109.742-161.245 45.769-45.483 100.27-81.040 162.916-107.495 63.327-26.733 128.768-40.312 197.639-40.312h5.59c69.431 0 135.494 14.56 198.761 41.996s116.873 64.522 162.356 110.853c45.218 46.045 80.908 100.665 106.934 164.041 25.478 62.036 38.639 126.534 38.639 194.281v5.59c0 68.869-14.667 134.895-41.996 197.076zM941.693 313.073l-56.543 18.479c-3.919 1.672-7.836 2.232-11.753 2.232-9.519 0-17.366-4.479-23.519-13.436l-105.812-153.96c-8.408-9.519-8.408-24.641 0-34.16l32.463-48.146c-76.693-56.543-162.356-85.101-258.1-86.21v65.499c-1.672 16.232-9.149 25.597-22.956 29.669l-178.039 52.626c-3.905 1.158-7.273 1.683-10.63 1.683-9.519 0-16.483-4.156-22.396-11.751l-39.188-50.392c-22.956 18.477-39.655 33.133-50.392 43.667-49.174 48.255-85.101 105.263-107.497 170.765l55.982 22.956c12.624 5.172 19.6 13.998 19.6 28.547v186.995c0 12.875-9.221 24.725-21.834 28.558l-57.105 17.354c27.984 90.703 80.061 164.601 156.766 222.267l41.422-50.38c6.618-8.050 13.437-12.326 22.956-12.326 3.356 0 6.701 0.609 10.081 1.683l178.039 56.543c14.679 4.67 22.071 15.121 21.834 29.681l-1.123 66.624c92.376 0 178.037-27.436 256.427-81.746l-38.639-59.35c-3.726-5.721-5.59-11.192-5.59-16.794 0-6.164 2.269-11.729 6.713-17.917l108.621-151.164c6.341-8.826 13.436-13.437 22.956-13.437 3.917 0 7.727 0.825 11.753 2.234l65.499 22.956c13.437-40.861 20.162-84.54 20.162-131.002 0-49.828-6.723-95.741-20.16-138.847zM586.178 614.84c-6.306 8.289-13.998 12.315-22.956 12.315-3.919 0-7.836-0.55-11.753-2.234l-174.12-57.105c-14.142-4.635-20.902-14.56-20.711-29.681l2.234-183.627c0.167-13.437 7.836-25.762 20.711-28.558l171.886-54.871c3.919-1.672 7.836-2.234 11.753-2.234 8.958 0 16.769 3.94 22.956 12.315l110.853 150.041c3.919 6.725 6.164 13.436 6.164 19.6 0 5.602-2.245 11.753-6.164 18.477l-110.853 145.562z" />
<glyph unicode="&#xe904;" glyph-name="barr-left" d="M413.363 447.784l383.076 383.093c10.548 10.523 16.351 24.593 16.351 39.595 0 15.010-5.803 29.072-16.351 39.611l-33.567 33.551c-10.531 10.556-24.609 16.367-39.611 16.367s-29.063-5.811-39.603-16.367l-456.113-456.105c-10.581-10.573-16.376-24.701-16.334-39.72-0.042-15.085 5.744-29.196 16.334-39.778l455.688-455.663c10.54-10.556 24.601-16.367 39.611-16.367 15.002 0 29.063 5.811 39.611 16.367l33.559 33.551c21.837 21.837 21.837 57.386 0 79.214l-382.651 382.651z" />
<glyph unicode="&#xe905;" glyph-name="barr-right" d="M227.902 65.041c-21.854-21.854-21.854-57.444 0-79.298l33.509-33.509c10.615-10.615 24.559-16.442 39.545-16.442s29.138 5.828 39.545 16.442l455.597 455.597c10.615 10.615 16.442 24.767 16.234 39.753 0 14.985-5.828 29.138-16.234 39.753l-455.805 456.221c-10.615 10.615-24.559 16.442-39.545 16.442s-29.138-5.828-39.545-16.442l-33.717-33.509c-10.615-10.615-16.442-24.559-16.442-39.545s5.828-29.138 16.442-39.545l383.167-383.167-382.751-382.751z" />
<glyph unicode="&#xe906;" glyph-name="bxh" d="M472.6 227.6c-15.8 0-28.8-12.8-28.8-28.8 0-15.8 12.8-28.8 28.8-28.8h78.6c16 0 29 13 28.8 28.8 0 15.8-12.8 28.8-28.8 28.8h-10.4v128.2c0 15.8-12.8 28.8-28.8 28.8h-39.4c-15.8 0-28.8-12.8-28.8-28.8 0-15.8 12.8-28.8 28.8-28.8h10.4v-99.4h-10.4zM152.8 59.8h78.4c16 0 29 13 28.8 28.8 0 15.8-12.8 28.8-28.8 28.8h-49.6v20.8h49.8c15.8 0 28.8 12.8 28.8 28.8v78.6c0 15.8-12.8 28.8-28.8 28.8h-78.6c-15.8 0-28.8-13-28.8-28.8s12.8-28.8 28.8-28.8h49.6v-20.8h-49.6c-15.8 0-28.8-12.8-28.8-28.8v-78.6c0-15.8 12.8-28.8 28.8-28.8zM792.6 78.2c-15.8 0-28.8-12.8-28.8-28.8 0-15.8 12.8-28.8 28.8-28.8h78.6c16 0 29 13 28.8 28.4v157.2c0 15.8-12.8 28.8-28.8 28.8h-78.6c-15.8 0-28.8-12.8-28.8-28.8 0-15.8 12.8-28.8 28.8-28.8h49.6v-20.8h-49.6c-15.8 0-28.8-13-28.8-28.8s12.8-28.8 28.8-28.8h49.6v-20.8h-49.6zM995.2 314h-297.2v173.2c0 16-13 28.8-28.8 28.8h-314.4c-16 0-28.8-13-28.8-28.8v-94.8h-297.2c-16 0-28.8-13-28.8-28.8v-398.8c0-16 13-28.8 28.8-28.8h966.2c16 0 28.8 13 28.8 29.2v320c0.2 15.8-12.8 28.8-28.6 28.8zM326-6.2h-268.2v341h268.2v-341zM640.2-6.2h-256.4v464.6h256.4v-464.6zM966.2-6.2h-268.2v262.4h268.2v-262.4zM391.8 698.6l-18.4-113c-1.8-10.6 2.8-21.8 11.6-28 5-3.4 11-5.4 16.8-5.4 4.6 0 9.2 1 13.4 3.2l96.2 50.6 95.8-50.6c4.2-2 8.6-3.2 13.6-3.2 6.2 0 12 1.8 16.8 5.6 8.8 6.2 13.4 17 11.6 28l-18.4 112.8 77.8 75.8c7.6 7.2 10.6 18.8 7.4 29.2v0.2c-3.4 10.6-12.8 18.2-23.4 19.6l-106.6 15.6-48 104c-4.6 10.2-15 16.8-26.4 16.8-11 0-21.2-6.4-26.4-16.6l-48-104-106.8-15.4c-10.8-1.4-20.2-9.2-23.6-19.6s-0.6-22 7.2-29.8l77.8-75.8zM460.8 784c9.8 1.4 18 7.6 22 16.4l28.2 61.6 28.4-61.4c4-9 12.2-15.2 22-16.6l64.4-9.2-46.4-45.6c-6.6-6.8-9.6-16.2-8.2-25.4l11.6-70.4-58 30.8c-8.4 4.4-18.4 4.4-26.8 0l-58.2-30.8 11.6 70.4c1.4 9.2-1.6 18.8-8.4 25.4l-46.6 45.6 64.4 9.2z" />
<glyph unicode="&#xe907;" glyph-name="camera" d="M997.76 784.427h-50.56c-7.467 0-14.507-3.2-19.413-8.533l-138.24-151.253v167.253c0 14.507-11.733 26.24-26.24 26.24h-90.88v23.893c0 14.507-11.733 26.24-26.24 26.24h-100.48c-14.507 0-26.24-11.733-26.24-26.24v-23.893h-426.667c-14.507 0-26.24-11.733-26.24-26.24v-184.96l-52.907-26.453c-8.747-4.693-14.293-13.653-14.293-23.68v-201.387c0-10.027 5.547-18.773 14.507-23.68l52.48-26.027v-184.96c0-14.507 11.733-26.24 26.24-26.24h208.427v-40.747c0-14.507 11.733-26.24 26.24-26.24h201.387c14.507 0 26.24 11.733 26.24 26.24v40.747h208.853c14.507 0 26.24 11.733 26.24 26.24v167.253l137.6-151.467c5.12-5.547 11.947-8.533 19.627-8.533h50.56c14.507 0 26.24 11.733 26.24 26.24v603.947c0 14.507-11.733 26.24-26.24 26.24zM972.16 731.947v-551.040h-12.8l-169.387 185.387v180.693l169.387 184.96h12.8zM502.4 94.293v-14.293h-148.48v14.293h148.48zM104.533 345.813l-52.48 26.027v168.533l52.693 26.24c8.747 4.693 14.293 13.653 14.293 23.68v175.36h618.24v-618.453h-618.24v174.933c0 10.027-5.547 18.987-14.507 23.68zM595.84 497.28c51.627 0 93.44 42.027 93.44 93.44s-41.813 93.44-93.44 93.44c-51.413 0-93.44-42.027-93.44-93.44s41.813-93.44 93.44-93.44zM595.84 631.467c22.4 0 40.747-18.347 40.747-40.747s-18.347-40.747-40.747-40.747c-22.4 0-40.747 18.347-40.747 40.747 0 22.187 18.347 40.747 40.747 40.747z" />
<glyph unicode="&#xe908;" glyph-name="care" d="M924.112 754.234h-188.764v23.765c0.193 55.064-44.631 99.888-99.695 99.888h-247.306c-55.064 0-99.888-44.824-99.888-99.888v-23.765h-188.571c-55.064 0-99.888-44.824-99.888-99.888v-535.765c0-55.064 44.824-99.888 99.888-99.888h824.417c55.064 0 99.888 44.824 99.888 99.888v535.765c-0.193 55.064-45.017 99.888-100.082 99.888zM364.583 777.998c0 13.138 10.626 23.765 23.765 23.765h247.306c13.138 0 23.765-10.626 23.765-23.765v-23.765h-294.835v23.765zM948.069 118.581c0-13.138-10.626-23.765-23.765-23.765h-824.417c-13.138 0-23.765 10.626-23.765 23.765v274.162c7.728-1.932 15.65-3.091 23.765-3.091h312.223v-44.438c0-20.866 17.002-38.062 38.062-38.062h123.653c20.866 0 38.062 17.002 38.062 38.062v44.438h312.417c8.115 0 16.036 0.966 23.765 3.091v-274.162zM488.042 383.275v47.722h47.722v-47.722h-47.722zM948.069 489.54c0-13.138-10.626-23.765-23.765-23.765h-312.417v3.285c0 20.866-17.002 38.062-38.062 38.062h-123.653c-20.866 0-38.062-17.002-38.062-38.062v-3.285h-312.223c-13.138 0-23.765 10.626-23.765 23.765v164.806c0 13.138 10.626 23.765 23.765 23.765h824.417c13.138 0 23.765-10.626 23.765-23.765v-164.806z" />
<glyph unicode="&#xe909;" glyph-name="change" d="M839.235 686.47l-133.565 133.565c-8.626 8.626-22.817 8.626-31.443 0s-8.626-22.817 0-31.443l95.722-95.722h-480.557c-12.243 0-22.261-10.017-22.261-22.261v-178.087c0-12.243 10.017-22.261 22.261-22.261s22.261 10.017 22.261 22.261v155.826h458.296l-95.443-95.443c-8.626-8.626-8.626-22.817 0-31.443 4.452-4.452 10.017-6.4 15.861-6.4 5.565 0 11.409 2.226 15.861 6.4l133.565 133.565c1.948 1.948 3.617 4.452 4.73 7.235 2.226 5.565 2.226 11.687 0 16.974-1.391 2.504-3.061 5.009-5.287 7.235zM734.609 425.739c-12.243 0-22.261-10.017-22.261-22.261v-155.826h-458.296l95.443 95.443c8.626 8.626 8.626 22.817 0 31.443s-22.817 8.626-31.443 0l-133.565-133.565c-1.948-1.948-3.617-4.452-4.73-7.235-2.226-5.565-2.226-11.687 0-16.974 1.113-2.783 2.783-5.287 4.73-7.235l133.565-133.565c4.452-4.452 10.017-6.4 15.861-6.4s11.409 2.226 15.861 6.4c8.626 8.626 8.626 22.817 0 31.443l-95.722 95.722h480.557c12.243 0 22.261 10.017 22.261 22.261v178.087c0 12.243-10.017 22.261-22.261 22.261zM912.696 960h-801.391c-61.496 0-111.304-49.809-111.304-111.304v-801.391c0-61.496 49.809-111.304 111.304-111.304h801.391c61.496 0 111.304 49.809 111.304 111.304v801.391c0 61.496-49.809 111.304-111.304 111.304zM979.478 47.304c0-36.73-30.052-66.783-66.783-66.783h-801.391c-36.73 0-66.783 30.052-66.783 66.783v801.391c0 36.73 30.052 66.783 66.783 66.783h801.391c36.73 0 66.783-30.052 66.783-66.783v-801.391z" />
<glyph unicode="&#xe90a;" glyph-name="facebook" d="M767.187 960h-511.187c-140.597 0-256-115.403-256-256.813v-511.187c0-140.597 115.403-256 256-256h511.187c141.41 0 256.813 115.403 256.813 256.813v510.375c0 141.41-115.403 256.813-256.813 256.813zM649.346 448h-96.711v-316.952h-121.905v316.952h-65.016v130.032h56.889v55.263c0 52.013 26.006 134.095 135.721 134.095h99.962v-108.089h-70.705c-11.378 0-26.819-7.314-26.819-32.508v-48.762h99.962l-11.378-130.032z" />
<glyph unicode="&#xe90b;" glyph-name="farr-left" d="M739.694 960v-1024.416l-455.389 512.208 455.389 512.208z" />
<glyph unicode="&#xe90c;" glyph-name="farr-right" d="M739.694 447.792l-455.389-512.208v1024.416l455.389-512.208z" />
<glyph unicode="&#xe90d;" glyph-name="final" d="M931.752 83.2l-97.324 124.91c30.676 12.138 56.938 33.324 75.476 61.131l0.221 0.441c26.703 46.124 15.007 100.414 3.972 152.717l-0.221 0.441c-6.4 25.159-10.152 50.759-11.476 76.8 1.324 26.041 5.076 52.083 11.476 77.021l0.221 0.662c11.034 52.303 22.51 106.372-4.193 152.276-27.807 47.669-81.214 64.662-133.076 80.993h-0.221c-24.717 6.841-48.11 16.11-69.738 27.145-20.083 13.241-38.841 28.248-55.614 45.241l-0.221 0.221c-36.414 34.428-81.655 76.8-139.476 76.8-57.379 0-100.855-40.166-139.255-75.697l-0.441-0.441c-17.434-17.214-35.972-32.662-55.614-45.241-21.628-11.255-45.021-20.524-69.517-27.145h-0.221c-51.862-16.331-105.269-33.103-133.076-80.993-26.703-46.124-15.007-100.414-3.972-152.717l0.221-0.441c6.4-25.159 10.152-50.979 11.476-77.021-1.324-26.041-5.076-52.083-11.476-77.021l-0.221-0.662c-11.034-52.303-22.51-106.372 4.193-152.276l0.221-0.441c18.317-27.586 44.8-48.993 75.697-61.131l-97.324-124.91c-9.048-11.917-7.062-28.91 4.855-37.959 5.738-4.414 13.241-6.4 19.862-5.297l115.862 14.345 28.248-99.090c2.648-9.71 10.593-17.214 20.966-19.2 1.986-0.441 3.972-0.441 5.076-0.441 8.828 0 16.552 3.972 21.407 10.372l104.386 133.959c27.807-23.834 62.455-38.179 99.090-40.607h1.324c36.414 2.648 71.283 16.772 99.090 40.607l104.166-133.959c5.076-6.841 12.8-10.593 21.407-10.593 1.545 0 3.090 0 4.855 0.441 9.71 1.986 17.655 9.269 20.966 19.2l28.248 99.090 115.862-14.345c14.786-1.766 28.469 8.828 30.234 23.614 0 6.621-1.986 13.683-6.4 19.2zM297.931 21.628l-20.083 69.959c-3.31 11.697-13.903 19.421-25.821 19.421-1.324 0-2.428 0-3.752 0l-73.71-9.269 68.855 87.834 3.090-0.883h0.221c24.276-6.841 47.89-16.11 69.517-27.145 20.083-13.241 38.621-28.248 55.393-45.021l-73.71-94.897zM511.779 94.014c-35.972 0-68.414 29.572-102.621 61.572-20.083 19.862-42.372 37.738-65.324 52.524l-0.662 0.441c-25.379 13.462-52.524 24.055-80.552 31.779l-0.441 0.221c-43.697 13.903-85.186 26.924-102.179 56.497-16.11 27.807-7.503 68.855 1.766 112.331l0.441 1.986c7.283 28.469 11.476 58.483 12.8 88.497v0.883c-1.324 29.131-5.297 59.145-12.8 88.497-9.49 44.359-18.538 86.069-2.207 114.317 16.993 29.572 58.703 42.814 102.4 56.717 28.028 7.724 54.952 18.538 80.552 31.779l0.662 0.441c23.393 14.786 45.462 32.662 65.324 52.524 33.986 31.559 66.428 61.572 102.621 61.572 35.972 0 68.414-29.572 102.621-61.572 20.083-19.862 42.372-37.738 65.324-52.524l0.662-0.441c25.379-13.462 52.524-24.055 80.552-31.779l0.441-0.221c43.697-13.903 85.186-26.924 102.179-56.497 16.11-27.807 7.503-68.855-1.766-112.331l-0.441-1.986c-7.283-28.469-11.476-58.483-12.8-88.497v-0.883c1.324-29.131 5.297-59.145 12.8-88.497 9.49-44.359 18.538-86.069 2.207-114.317-16.993-29.572-58.703-42.814-102.4-56.717-28.028-7.724-54.952-18.538-80.552-31.779l-0.662-0.441c-22.952-14.566-44.8-32-65.324-52.524-33.986-31.559-66.428-61.572-102.621-61.572zM775.503 110.566c-13.462 1.766-25.821-6.4-29.352-19.2l-20.083-69.959-73.71 94.897c17.214 17.214 35.752 32.221 55.393 44.8 21.628 11.255 45.021 20.524 69.517 27.145l3.31 0.883 68.634-87.834-73.71 9.269zM631.614 451.090l82.979 60.248c9.49 6.841 15.89 16.993 17.655 28.69 1.986 11.697-0.883 23.393-7.945 33.103-8.166 11.476-21.628 18.317-35.752 18.317h-102.621l-31.779 97.766c-3.752 11.255-11.697 20.524-22.29 25.821s-22.731 6.4-33.986 2.648c-13.462-4.414-24.055-15.007-28.469-28.469l-31.779-97.766h-102.621c-24.497 0-44.359-19.862-44.359-44.359 0-14.124 6.621-27.145 18.317-35.972l83.2-60.248-31.559-97.766c-7.503-23.393 5.297-48.552 28.469-56.055 13.462-4.414 28.248-1.986 39.945 6.4l82.979 60.248 82.979-60.248c7.724-5.738 16.993-8.607 26.262-8.607s18.538 2.869 25.6 8.607c15.89 11.476 22.51 31.559 16.331 49.876l-31.559 97.766zM575.117 452.634l29.352-90.041-76.8 55.834c-9.49 6.841-21.848 6.841-31.117 0l-76.579-55.834 29.352 90.041c3.531 11.034-0.441 23.172-9.71 29.793l-76.8 55.834h94.676c11.697 0 21.848 7.503 25.379 18.538l29.352 90.262 29.352-90.262c3.531-11.034 13.903-18.538 25.379-18.538h94.897l-77.021-55.834c-9.49-6.841-13.241-18.759-9.71-29.793z" />
<glyph unicode="&#xe90e;" glyph-name="fire" d="M893.8 360.4c-11.8 152.8-82.8 248.4-145.6 332.8-58 78.4-108.2 145.8-108.2 245.4 0 8-4.4 15.4-11.6 19s-15.6 3-22.2-1.6c-94.2-67.4-172.8-181-200.2-289.4-19-75.4-21.6-160.4-22-216.4-87 18.6-106.8 148.8-107 150.2-1 6.8-5.2 12.6-11.2 15.8s-13.2 3.4-19.4 0.4c-4.6-2.2-112-56.8-118.2-274.8-0.2-7.2-0.2-14.6-0.2-21.8 0-211.8 172.2-384 384-384 0.2 0 0.6 0 0.8 0 0 0 0.2 0 0.2 0 211.4 0.6 383 172.6 383 384 0 10.6-2.2 40.4-2.2 40.4zM512-21.4c-70.6 0-128 61.2-128 136.4 0 2.6 0 5.2 0.2 8.4 0.8 31.8 6.8 53.4 13.4 67.8 12.4-26.6 34.6-51.2 70.4-51.2 11.8 0 21.4 9.6 21.4 21.4 0 30.4 0.6 65.4 8.2 97 6.8 28 22.8 57.8 43.2 81.8 9-31 26.8-56.2 44-80.6 24.6-35 50.2-71.4 54.6-133.2 0.2-3.6 0.6-7.4 0.6-11.4 0-75.2-57.4-136.4-128-136.4z" />
<glyph unicode="&#xe90f;" glyph-name="google-plus" horiz-adv-x="1025" d="M767.187 960h-510.375c-141.41 0-256.813-115.403-256.813-256.813v-511.187c0-140.597 115.403-256 256.813-256h511.187c141.41 0 256.813 115.403 256.813 256.813v510.375c-0.813 141.41-116.216 256.813-257.625 256.813zM363.073 187.124c-145.473 0-261.283 115.81-261.283 261.283s115.606 261.283 261.283 261.283c70.908 0 130.641-26.006 175.543-70.908l-70.908-67.251c-18.692 18.692-52.419 41.041-104.635 41.041-89.6 0-160.508-74.768-160.508-164.368s70.908-164.368 160.508-164.368c104.432 0 141.816 74.565 149.333 111.949h-149.333v89.6h246.451c3.657-15.035 3.657-26.21 3.657-44.902 0-149.333-100.775-253.765-250.108-253.359zM923.225 410.616h-74.768v-74.768h-74.768v74.768h-74.768v74.768h74.768v74.768h74.768v-74.768h74.768v-74.768z" />
<glyph unicode="&#xe910;" glyph-name="ham-menu" d="M0 277.398h796.466v-113.864h-796.466v113.864zM227.534 732.466h796.466v-113.864h-796.466v113.864zM113.864 504.932h796.271v-113.864h-796.271v113.864z" />
<glyph unicode="&#xe911;" glyph-name="images" d="M380.062 593.723c0-60.904-51.136-110.277-114.215-110.277s-114.215 49.373-114.215 110.277c0 60.904 51.136 110.277 114.215 110.277s114.215-49.373 114.215-110.277zM0 960v-1024h1024v1024h-1024zM982.646-24.615h-941.292v157.538h941.292v-157.538zM982.646 377.108l-232.369 202.831c-3.938 3.938-9.846 5.908-13.785 5.908-5.908 0-9.846-1.969-13.785-5.908l-171.323-181.169 78.769-74.831c7.877-7.877 7.877-19.692 0-27.569-3.938-3.938-9.846-5.908-13.785-5.908s-9.846 1.969-13.785 5.908l-78.769 72.862-96.492 92.554c-7.877 7.877-19.692 7.877-27.569 0l-346.585-289.477h-11.815v748.308h941.292v-543.508z" />
<glyph unicode="&#xe912;" glyph-name="live" d="M938.742 580.129l-79.903-26.621v10.105c0 27.315-22.234 49.548-49.548 49.548h-294.169c8.589 26.016 13.395 53.726 13.395 82.581 0 145.702-118.556 264.258-264.258 264.258s-264.258-118.556-264.258-264.258 118.556-264.258 264.258-264.258c35.048 0 68.46 7 99.097 19.46v-85.524c0-27.315 22.234-49.548 49.548-49.548h99.887l-157.661-379.871h118.556l39.258 99.097h196.323l39.258-99.097h118.556l-157.661 379.871h99.871c27.315 0 49.548 22.234 49.548 49.548v10.105l79.903-26.621h85.258v231.226zM375.806 547.097h65.323c-22.476-26.71-50.887-48.177-83.177-62.565zM464.202 580.129h-92.589l-40.169 53.548 13.202 65.927 82.79 27.597 67.589-40.54c-1.508-38.702-12.492-74.952-30.823-106.532zM156.903 580.129h-92.589c-18.202 31.347-29.137 67.274-30.79 105.653l82.831 41.419 67.387-26.952 13.331-66.556zM34.847 723.371c3.798 31.694 14.040 61.363 29.371 87.798l29.25-58.5zM216.427 705.29l47.831 35.871 47.831-35.871-11.806-59.097h-72.032zM467.194 806.419c13.347-24.379 22.226-51.484 26.024-80.153l-43.944 26.371zM443.919 841l-27.548-82.645-83.056-27.677-52.54 39.387v66.726l81.702 67.96c31.734-14.96 59.597-36.758 81.444-63.75zM326.887 918.113l-61.887-51.476-63.040 51.565c19.855 5.565 40.694 8.766 62.298 8.766 21.734 0 42.677-3.218 62.629-8.855zM166.153 904.823l81.589-66.758v-68l-52.024-39.024-68.129 27.25-42.016 84.016c21.734 26.444 49.298 47.766 80.581 62.516zM87.403 547.097h65.323l17.855-62.565c-32.29 14.387-60.702 35.855-83.177 62.565zM208.629 471.565l-25.347 88.694 39.685 52.903h82.581l39.669-52.903-25.347-88.694c-17.839-4.435-36.403-7.048-55.613-7.048s-37.774 2.613-55.629 7.048zM451.218-30.968h-46.605l134.411 323.863c6.815-12.387 16.516-22.855 28.468-30.339zM611.097 249.806c4.315 0 8.476 0.629 12.621 1.274l46.29-116.887h-117.823l46.29 116.887c4.145-0.645 8.306-1.274 12.621-1.274zM611.097 282.839c-27.315 0-49.548 22.234-49.548 49.548s22.234 49.548 49.548 49.548 49.548-22.234 49.548-49.548-22.234-49.548-49.548-49.548zM526.024 68.129l13.081 33.032h143.984l13.081-33.032zM770.976-30.968l-116.274 293.508c11.952 7.484 21.653 17.952 28.468 30.339l134.411-323.847zM825.806 365.419c0-9.097-7.403-16.516-16.516-16.516h-117.282c-7.677 37.637-41.024 66.065-80.911 66.065s-73.234-28.427-80.911-66.065h-117.282c-9.113 0-16.516 7.419-16.516 16.516v101.823c45.306 26.306 82 65.637 105.129 112.887h307.774c9.113 0 16.516-7.419 16.516-16.516zM858.839 518.669l66.065 22.016v-152.355l-66.065 22.016zM990.968 381.935h-33.032v165.161h33.032zM495.484 448h231.226v99.097h-231.226zM528.516 514.065h165.161v-33.032h-165.161z" />
<glyph unicode="&#xe913;" glyph-name="marr-left" d="M63.998 448l512 512-256.002-512 256.002-512-512 512zM960.002-64l-256 512 256 512-512-512 512-512z" />
<glyph unicode="&#xe914;" glyph-name="marr-right" d="M448.053-64l256 512-256 512 512-512-512-512zM575.947 448l-512 512 256-512-256-512 512 512z" />
<glyph unicode="&#xe915;" glyph-name="messenger" d="M1023.8 468.8c-3 134-58 258.8-154.8 351.6-96.4 92.4-223.4 142-357 139.6-133.8 2.4-260.6-47.2-357.2-139.8-96.8-92.6-151.8-217.6-154.8-351.4v-0.8c0.8-136.6 59.2-266.4 160.6-357.2v-123.8c0-24 16.8-45 39.8-49.8 3.4-0.8 6.8-1 10.2-1 9.2 0 18.4 2.6 26.4 7.6l99.4 62.2c56.2-19.6 114.6-29.6 174.2-29.6h0.8c3.2 0 6.6 0 9.8 0 130.2 0 253.4 49.4 347.6 139.8 96.8 92.8 151.8 217.6 154.8 351.6v0.6l0.2 0.4zM848.8 553.2l-241-241c-18.4-18.4-48.2-19.6-68-2.6l-114.4 98-190.6-104c-7.6-4.2-15.8-6.2-24-6.2-12.8 0-25.6 5-35.2 14.6-9.4 9.4-14.8 22-14.8 35.4s5.2 26 14.6 35.4l240.8 241.2c18.4 18.4 48.2 19.6 68 2.6l114.2-98 190.6 104c21.8 11.8 49.2 5.8 64.2-14 14.8-19.8 13-47.8-4.4-65.4z" />
<glyph unicode="&#xe916;" glyph-name="mobile" d="M571.101 829.897h-117.586c-10.261 0-18.674-8.414-18.674-18.674s8.414-18.674 18.674-18.674h117.586c10.261 0 18.674 8.414 18.674 18.674 0.205 10.261-8.208 18.674-18.674 18.674zM512 178.559v0c-18.469 0-35.912-7.388-49.045-20.521s-20.111-30.576-20.111-49.045c0.205-38.169 31.192-69.156 69.361-69.156 0 0 0.205 0 0.205 0 37.964 0.205 68.951 31.192 69.156 69.156 0 38.374-31.192 69.566-69.566 69.566zM540.524 108.992c0-7.593-3.078-14.57-8.414-19.905s-12.313-8.208-19.905-8.208h-2.463c-14.365 1.436-25.651 13.544-25.446 28.319 0 15.596 12.723 28.114 28.114 28.114 0 0 0.205 0 0.205 0 15.186-0.205 27.909-12.723 27.909-28.319zM700.588 959.795h-379.434c-38.99 2.052-77.98-12.107-106.709-38.785l-1.231-1.231c-27.498-29.961-41.863-70.182-39.606-110.608v-722.341c0-110.814 80.853-150.009 150.009-150.009h376.766c110.814 0 150.009 80.853 150.009 150.009v723.162c0.205 110.608-80.648 149.804-149.804 149.804zM247.279 181.021v3.283h0.205v627.123c-1.436 20.521 5.335 41.042 18.674 56.433 14.775 12.928 34.475 19.495 54.176 18.059h380.255c10.876 0 31.602-1.642 48.224-12.313 17.238-11.081 26.267-29.55 27.703-56.228v-610.501l0.205-22.573v-3.489h-0.205v-94.397c0-11.287-1.642-39.195-19.495-57.048-12.518-12.518-31.397-18.879-56.433-18.879h-376.972c-10.876 0-31.602 1.642-48.224 12.313-18.879 12.107-27.909 33.039-27.909 63.82v94.397h-0.205z" />
<glyph unicode="&#xe917;" glyph-name="motorcycle" d="M844 448c-26.334 0-51.366-5.686-73.932-15.892l-27.552 41.084c39.038 22.22 84.072 34.808 131.484 34.808 16.568 0 30 13.432 30 30v60c0 115.794-94.206 210-210 210h-60c-16.568 0-30-13.432-30-30s13.432-30 30-30h30v-60h-92c-10.030 0-19.398-5.014-24.962-13.36l-31.094-46.64h-249.888l-15.064 22.596c-15.616 23.42-41.742 37.404-69.892 37.404h-151.1c-16.568 0-30-13.432-30-30 0-77.076 58.436-140.762 133.332-149.080l40.688-61.030c-96.494-3.168-174.020-82.64-174.020-179.89 0-99.252 80.748-180 180-180 76.844 0 144.662 49.202 169.722 120 18.010 0 160.296 0 178.010 0 39.902 0 74.544 28.398 82.368 67.524l4.25 21.252c11.14 55.698 39.828 104.44 79.656 141.028l26.278-39.186c-34.642-32.824-56.284-79.24-56.284-130.618 0-99.252 80.748-180 180-180s180 80.748 180 180c0 99.252-80.748 180-180 180zM475.944 568l-40-60h-89.888l-40 60h169.888zM180 148c-66.168 0-120 53.832-120 120s53.832 120 120 120c5.412 0 10.762-0.384 16.048-1.086-43.024-6.726-76.048-44.034-76.048-88.914 0-49.626 40.374-89.8 90-89.8h73.908c-21.006-36.204-60.266-60.2-103.908-60.2zM210 268c-16.542 0-30 13.458-30 30s13.458 30 30 30c16.554 0 145.040 0 163.458 0l30.002-60c-3.064 0-187.954 0-193.46 0zM555.514 308.544l-4.25-21.252c-2.236-11.18-12.134-19.292-23.534-19.292-24.382 0-3.928 0-42.354 0-9.15 0-17.376 5.084-21.466 13.266l-45.078 90.15c-5.082 10.164-15.468 16.584-26.832 16.584h-93.1c-8.042 0-15.508 3.996-19.968 10.688-13.268 19.902-91.35 137.024-103.97 155.954-5.564 8.344-14.932 13.358-24.962 13.358-39.112 0-72.478 25.078-84.86 60h115.96c8.042 0 15.508-3.996 19.97-10.688l24.022-36.032c0.020-0.032 0.042-0.062 0.062-0.094l79.886-119.828c5.562-8.344 14.93-13.358 24.96-13.358h122c10.030 0 19.398 5.014 24.962 13.358l79.884 119.828c0.022 0.032 0.042 0.064 0.064 0.096l31.144 46.918h105.84c0.036 0 0.070 0 0.104 0 16.568 0 30 13.232 30 29.8v86.986c68.382-13.938 120-74.55 120-146.986v-31.38c-141.536-13.062-260.382-117.564-288.484-258.076zM844 148c-66.168 0-120 53.832-120 120 0 30.58 11.516 58.51 30.414 79.724l64.67-96.434c9.23-13.764 27.87-17.434 41.626-8.208 13.76 9.228 17.436 27.864 8.208 41.626l-64.702 96.482c12.456 4.394 25.84 6.81 39.784 6.81 66.168 0 120-53.832 120-120s-53.832-120-120-120z" />
<glyph unicode="&#xe918;" glyph-name="news" d="M867.2 608.427h-266.667l87.68 318.080c0.64 2.133 1.067 4.693 1.067 7.040-0.213 14.507-11.947 26.453-26.667 26.453h-334.933c-11.947 0-22.187-7.68-25.387-19.2l-170.88-586.027c-0.64-2.133-1.067-4.907-1.067-7.253 0-14.507 11.947-26.453 26.453-26.453h301.013l-88.747-351.787c-0.64-2.56-0.64-5.12-0.64-6.827 0-14.507 11.947-26.453 26.453-26.453 8.32 0 16.213 3.84 21.12 10.453l472.533 619.52c3.413 4.693 5.333 10.24 5.333 16.213-0.213 14.293-12.16 26.24-26.667 26.24zM517.333 340.693c0.64 2.56 0.64 5.12 0.64 6.827 0 14.507-11.947 26.453-26.453 26.453h-299.307l155.52 532.907h280.32l-87.68-318.080c-0.64-2.133-1.067-4.693-1.067-7.040 0-14.507 11.947-26.453 26.453-26.453h247.893l-361.813-474.667 65.493 260.053z" />
<glyph unicode="&#xe919;" glyph-name="picture" d="M1021.489 708.214v-663.179c0-8.608-6.994-15.781-15.781-15.781h-821.173c-8.608 0-15.781 6.994-15.781 15.781v663.179c0 8.608 6.994 15.781 15.781 15.781h820.993c8.967-0.179 15.961-7.173 15.961-15.781zM721.642 581.784c-43.399 0-79.087-35.329-79.087-79.087 0-43.399 35.329-79.087 79.087-79.087 43.578 0 79.087 35.329 79.087 79.087-0.359 43.758-35.688 79.087-79.087 79.087zM984.546 163.217l-159.966 180.231c-5.559 6.277-16.319 6.277-21.879 0l-105.628-118.719-280.3 315.27c-5.559 6.277-16.319 6.277-21.879 0l-189.019-212.87c-2.331-2.511-3.766-6.097-3.766-9.684v-242.102c0-8.070 6.456-14.705 14.705-14.705h756.971c7.891 0 14.705 6.456 14.705 14.705v78.19c-0.359 3.587-1.614 7.173-3.945 9.684zM196.551 118.383h-149.744c-5.201 0-9.684 4.483-9.684 9.684v702.991c0 5.201 4.483 9.684 9.684 9.684h900.618c5.201 0 9.684-4.483 9.684-9.684v-107.063h33.356v107.063c0 23.672-19.189 42.861-42.861 42.861h-900.797c-23.672 0-43.040-19.189-43.040-42.861v-702.991c0-23.672 19.189-42.861 42.861-42.861h149.924v33.177z" />
<glyph unicode="&#xe91a;" glyph-name="play" d="M512 960c-282.317 0-512-229.683-512-512s229.683-512 512-512 512 229.683 512 512-229.683 512-512 512zM777.609 433.903l-375.467-256c-2.884-1.963-6.246-2.97-9.609-2.97-2.731 0-5.478 0.649-7.97 1.98-5.598 2.953-9.097 8.755-9.097 15.087v512c0 6.332 3.499 12.134 9.097 15.087 5.598 2.97 12.356 2.56 17.596-0.99l375.467-256c4.642-3.174 7.441-8.448 7.441-14.097s-2.799-10.923-7.458-14.097z" />
<glyph unicode="&#xe91b;" glyph-name="result" d="M809.387 722.987c-22.827 12.373-153.387 83.84-228.267 129.28-14.293 15.787-34.773 24.533-56.107 24.533-21.12 0-41.6-8.747-56.107-24.32-74.667-45.653-205.227-116.907-228.267-129.28h-143.787v-702.933h856.747v702.72h-144.213zM603.307 785.067c29.44-17.067 71.68-41.387 109.867-62.080h-161.707c27.52 9.387 47.36 32.853 51.84 62.080zM493.227 801.707l0.853 1.92v2.773c0.853 4.053 2.987 7.467 7.040 11.307l0.64 0.64c5.76 6.827 14.507 10.88 23.68 10.88 10.24 0 18.773-3.2 23.68-9.173l0.64-0.64c2.347-2.347 4.693-6.187 7.040-12.16v-1.28l0.427-1.28c0.853-2.56 0.853-4.48 0.853-6.827 0-18.773-14.080-32.853-32.853-32.853s-32.853 14.080-32.853 32.853c0.213 1.707 0.213 2.987 0.853 3.84zM447.147 785.067c4.693-29.227 24.32-52.693 51.627-62.080h-161.707c38.4 20.693 80.64 45.013 110.080 62.080zM907.52 66.347h-764.373v512.64h764.16v-512.64zM907.52 625.28h-764.373v51.413h764.16v-51.413zM658.133 272.853c27.307 0 49.707 22.4 49.707 49.707 0 27.52-22.187 49.707-49.707 49.707s-49.707-22.187-49.707-49.707 22.187-49.707 49.707-49.707zM523.947 272.853c27.307 0 49.707 22.4 49.707 49.707 0 27.52-22.187 49.707-49.707 49.707s-49.707-22.187-49.707-49.707 22.187-49.707 49.707-49.707zM391.040 272.853c27.52 0 49.707 22.4 49.707 49.707 0 27.52-22.187 49.707-49.707 49.707s-49.707-22.187-49.707-49.707 22.187-49.707 49.707-49.707zM256.853 272.853c27.52 0 49.707 22.4 49.707 49.707 0 27.52-22.187 49.707-49.707 49.707s-49.707-22.187-49.707-49.707 22.4-49.707 49.707-49.707zM792.107 272.853c27.307 0 49.707 22.4 49.707 49.707 0 27.52-22.187 49.707-49.707 49.707s-49.707-22.187-49.707-49.707 22.4-49.707 49.707-49.707zM658.133 398.72c27.307 0 49.707 22.187 49.707 49.707s-22.187 49.707-49.707 49.707-49.707-22.187-49.707-49.707 22.187-49.707 49.707-49.707zM523.947 398.72c27.307 0 49.707 22.187 49.707 49.707s-22.187 49.707-49.707 49.707c-27.52 0-49.707-22.187-49.707-49.707s22.187-49.707 49.707-49.707zM792.107 398.72c27.307 0 49.707 22.187 49.707 49.707s-22.187 49.707-49.707 49.707-49.707-22.187-49.707-49.707 22.4-49.707 49.707-49.707zM523.947 133.333c27.307 0 49.707 22.187 49.707 49.707s-22.187 49.707-49.707 49.707c-27.52 0-49.707-22.187-49.707-49.707s22.187-49.707 49.707-49.707zM391.040 133.333c27.52 0 49.707 22.187 49.707 49.707s-22.187 49.707-49.707 49.707-49.707-22.187-49.707-49.707 22.187-49.707 49.707-49.707zM256.853 133.333c27.52 0 49.707 22.187 49.707 49.707s-22.187 49.707-49.707 49.707-49.707-22.187-49.707-49.707 22.4-49.707 49.707-49.707z" />
<glyph unicode="&#xe91c;" glyph-name="rss" d="M766.579 959.594h-509.97c-141.297 0-256.609-115.312-256.609-256.609v-510.782c0-140.485 115.312-255.797 256.609-255.797h510.782c141.297 0 256.609 115.312 256.609 256.609v509.97c-0.812 141.297-116.124 256.609-257.421 256.609zM277.722 129.675c-47.099 0-85.266 38.167-85.266 84.454 0 47.099 38.167 84.454 85.266 84.454s85.266-38.167 85.266-84.454c0-46.287-38.167-84.454-85.266-84.454zM491.293 131.299c0 81.205-30.046 154.29-86.078 210.322-56.844 56.844-129.117 86.078-210.322 86.078v122.62c227.375 0 419.020-191.645 419.020-419.020h-122.62zM708.111 131.299c0 284.219-228.999 513.218-513.218 513.218v122.62c349.183 0 635.838-286.655 635.838-635.838h-122.62z" />
<glyph unicode="&#xe91d;" glyph-name="search" d="M902.497 250.883c162.002 162.005 161.999 425.609 0 587.614-162.005 162.005-425.606 162.005-587.607 0-137.439-137.439-158.255-341.847-62.502-501.467 0 0 6.878-11.539-2.411-20.822-52.995-52.991-211.988-211.988-211.988-211.988-42.194-42.191-52.239-101.189-14.821-138.614l6.442-6.436c37.418-37.424 96.419-27.383 138.61 14.811 0 0 158.657 158.66 211.543 211.543 9.735 9.735 21.27 2.857 21.27 2.857 159.617-95.75 364.024-74.938 501.464 62.502zM391.599 327.595c-119.705 119.705-119.702 314.477 0.003 434.182 119.705 119.702 314.477 119.705 434.179 0 119.705-119.702 119.705-314.477 0-434.182-119.705-119.699-314.474-119.699-434.182 0zM418.117 569.348c-5.572 0-11.236 1.095-16.695 3.401-21.808 9.23-32.011 34.393-22.781 56.204 58.012 137.093 216.738 201.429 353.828 143.417 21.808-9.23 32.011-34.393 22.781-56.204-9.233-21.811-34.39-32.008-56.208-22.781-93.533 39.578-201.838-4.318-241.413-97.851-6.924-16.359-22.804-26.186-39.513-26.186z" />
<glyph unicode="&#xe91e;" glyph-name="sopcast" d="M1003.8 885c-13 13-30.4 20.2-48.8 20.2h-886c-38.2 0-69.2-31.2-69.2-69.2v-611.8c0-38.2 31-69.2 69.2-69.4h295.4v-36c0-36-29.4-65.2-65.2-65.2h-67c-17.4 0-31.4-14-31.4-31.4s14-31.4 31.4-31.4h559.8c17.4 0 31.2 14.4 31.2 31.8s-14 31.4-31.4 31.4h-67c-36 0-65.2 29.4-65.2 65.2v36h295.4c38.2 0 69.2 31.2 69.2 69.2v611.8c-0.2 18.4-7.4 35.8-20.4 48.8zM62.6 836c0 3.6 2.8 6.2 6.2 6.2h886c3.6 0 6.2-2.8 6.2-6.2v-435h-898.4v435zM409.4 54c11.8 19.6 18 42 18 65.2v36h169.4v-36c0-23.4 6.2-45.6 18-65.2h-205.4zM961.2 224.4c0-3.6-2.8-6.2-6.2-6.2h-886c-3.6 0-6.2 2.8-6.2 6.2v113.8h898.4v-113.8zM512 244.8c18.4 0 33.2 15 33.2 33.2 0 18.4-14.8 33.2-33.2 33.2s-33.2-14.8-33.2-33.2 14.8-33.2 33.2-33.2zM371.2 524.8c8.4 0 16.4 3 22.4 9.2l164.2 164.2c12.2 12.4 12.2 32.4 0 44.6-12.4 12.2-32.4 12.2-44.6 0l-164.2-164.2c-6-6-9.2-13.8-9.2-22.4s3.4-16.4 9.2-22.4c5.8-5.6 13.6-9 22.2-9zM545 537.6c6-6 13.8-9.2 22.4-9.2s16.4 3.4 22.4 9.2l65.4 65.4c12.2 12.4 12.2 32.4 0 44.6-12.4 12.2-32.2 12.2-44.6 0l-65.4-65.4c-12.4-12.4-12.4-32.4-0.2-44.6z" />
<glyph unicode="&#xe91f;" glyph-name="stopwatch" d="M839.648 618.797l43.055 43.063c23.391 23.383 23.391 61.445 0 84.844-23.391 23.391-61.453 23.391-84.844 0l-45.969-45.969c-47.953 33.398-102.617 56.516-159.891 67.609v59.656h40c11.047 0 20 8.953 20 20v52c0 33.086-26.914 60-60 60h-160c-33.086 0-60-26.914-60-60v-52c0-11.047 8.953-20 20-20h40v-59.656c-57.266-11.086-111.938-34.211-159.891-67.609l-45.969 45.969c-23.383 23.391-61.445 23.391-84.844 0-23.391-23.391-23.391-61.453 0-84.844l43.055-43.063c-59.68-74.336-92.352-166.93-92.352-262.797 0-231.586 188.414-420 420-420s420 188.414 420 420c0 95.867-32.672 188.461-92.352 262.797zM826.141 718.422c7.805 7.797 20.484 7.789 28.281 0 7.789-7.797 7.789-20.484 0-28.281l-41.328-41.32c-9.313 9.563-19.078 18.68-29.234 27.313zM412 900c0 11.031 8.969 20 20 20h160c11.031 0 20-8.969 20-20v-32h-200zM552 828v-53.891c-26.508 2.484-53.484 2.484-80 0v53.891zM169.578 718.422c7.797 7.789 20.484 7.797 28.281 0l42.281-42.289c-10.156-8.633-19.922-17.75-29.234-27.313l-41.328 41.32c-7.789 7.797-7.789 20.484 0 28.281zM512-24c-209.531 0-380 170.469-380 380 0 92.43 33.555 181.484 94.477 250.773 16.781 19.086 35.508 36.523 55.656 51.852 50.492 38.422 110.258 63.711 172.836 73.141 18.727 2.805 37.914 4.234 57.031 4.234s38.305-1.43 57.023-4.234c62.586-9.43 122.352-34.719 172.852-73.141 20.141-15.328 38.867-32.766 55.648-51.852 60.922-69.289 94.477-158.344 94.477-250.773 0-209.531-170.469-380-380-380zM512 296c33.086 0 60 26.914 60 60 0 26.070-16.719 48.305-40 56.563v143.438c0 11.047-8.953 20-20 20s-20-8.953-20-20v-143.438c-23.281-8.258-40-30.492-40-56.563 0-33.086 26.914-60 60-60zM512 376c11.031 0 20-8.969 20-20s-8.969-20-20-20-20 8.969-20 20 8.969 20 20 20zM725.055 567c-0.313 0.367-0.625 0.734-0.977 1.078-0.375 0.383-0.773 0.727-1.172 1.070-35.25 34.875-78.797 60.68-126.055 74.633-10.602 3.125-21.719-2.922-24.844-13.516s2.922-21.719 13.516-24.844c35.016-10.344 67.68-28.219 95.523-52.086l-13.492-13.492c-7.805-7.813-7.805-20.477 0-28.289 3.906-3.906 9.023-5.859 14.148-5.859 5.117 0 10.234 1.953 14.141 5.859l13.523 13.523c36.188-42.078 57.68-93.875 61.867-149.078h-19.234c-11.047 0-20-8.961-20-20 0-11.047 8.953-20 20-20h19.234c-4.188-55.211-25.68-107-61.867-149.078l-13.523 13.523c-7.813 7.805-20.477 7.805-28.289 0-7.813-7.813-7.813-20.477 0-28.289l13.523-13.523c-42.078-36.188-93.875-57.68-149.078-61.875v19.242c0 11.047-8.953 20-20 20s-20-8.953-20-20v-19.234c-55.203 4.188-107 25.68-149.078 61.867l13.523 13.523c7.813 7.813 7.813 20.477 0 28.289-7.813 7.805-20.477 7.805-28.289 0l-13.523-13.523c-36.188 42.078-57.68 93.875-61.867 149.078h19.234c11.047 0 20 8.953 20 20s-8.953 20-20 20h-19.234c4.188 55.203 25.68 107 61.867 149.078l13.523-13.523c3.906-3.906 9.023-5.859 14.141-5.859 5.125 0 10.242 1.953 14.148 5.859 7.805 7.813 7.805 20.477 0 28.289l-13.492 13.492c27.844 23.875 60.508 41.742 95.523 52.086 10.594 3.125 16.641 14.25 13.516 24.844s-14.234 16.633-24.844 13.516c-47.25-13.945-90.781-39.742-126.023-74.602-0.414-0.352-0.82-0.711-1.203-1.094-0.344-0.344-0.648-0.703-0.961-1.063-56.086-56.609-86.961-131.484-86.961-211.023 0-79.531 30.875-154.398 86.945-211 0.313-0.367 0.625-0.734 0.977-1.078 0.344-0.352 0.703-0.656 1.063-0.969 56.609-56.078 131.477-86.953 211.016-86.953 79.531 0 154.398 30.867 211 86.938 0.367 0.32 0.734 0.633 1.078 0.984 0.344 0.336 0.648 0.703 0.961 1.055 56.086 56.609 86.961 131.484 86.961 211.023 0 79.531-30.875 154.398-86.945 211zM512 616c11.039 0 20 8.961 20 20s-8.961 20-20 20-20-8.961-20-20 8.961-20 20-20z" />
<glyph unicode="&#xe920;" glyph-name="timeline" d="M388.844 674.714c6.013-5.345 13.585-8.24 21.157-8.24 0.668 0 0.891 0 1.559 0h384.39c8.686 0.668 16.258 4.231 21.825 10.69 5.345 6.236 8.24 14.253 8.017 22.493v230.5c-0.891 17.148-15.812 30.511-33.183 29.843h-384.612c-17.148-0.891-30.511-15.812-29.843-33.183v-230.278c0.668-8.686 4.231-16.258 10.69-21.825zM444.075 731.727v162.575h316.687v-162.798h-316.687zM907.080 595.431h-499.083c-8.686-0.668-16.258-4.231-21.825-10.69-5.345-6.236-8.24-14.253-8.017-22.493v-230.946c0.668-8.686 4.231-16.258 10.69-21.825 6.013-5.345 13.585-8.24 21.157-8.24 0.668 0 0.891 0 1.559 0.223h498.638c8.686 0.668 16.258 4.231 21.825 10.69 5.345 6.236 8.24 14.253 8.017 22.493v230.946c-0.891 17.371-15.812 30.511-32.96 29.843zM875.010 529.51v-162.798h-430.935v162.798h430.935zM792.609 230.194h-384.612c-8.686-0.668-16.258-4.231-21.825-10.69-5.345-6.236-8.24-14.253-8.017-22.493v-230.946c0.668-8.686 4.231-16.258 10.69-21.825 6.013-5.345 13.585-8.24 21.157-8.24 0.668 0 0.891 0 1.559 0.223h384.39c8.686 0.668 16.258 4.231 21.825 10.69 5.345 6.236 8.24 14.253 8.017 22.493v230.946c-0.891 17.371-15.812 30.511-33.183 29.843zM760.985 164.273v-162.798h-316.91v162.798h316.91zM227.605 173.181v169.702c45.432 14.253 77.279 57.013 76.611 104.672 0.668 48.104-31.179 90.864-76.611 104.672v169.702c54.117 16.926 87.523 72.602 74.829 128.501-13.362 59.24-71.711 96.209-130.283 83.069-50.109-11.358-85.296-55.008-85.296-106.008-1.336-48.104 29.843-91.087 75.274-105.117v-169.702c-25.166-7.349-46.768-23.607-61.021-45.655-15.812-24.498-21.157-54.117-14.921-82.624 8.686-39.196 37.86-70.152 75.497-81.51v-169.702c-45.432-13.808-76.611-57.013-75.274-104.672 0-59.908 48.995-109.126 109.348-109.126 59.908 0 109.126 48.995 109.348 109.348 0.223 48.773-31.401 90.641-77.502 104.449zM195.535 491.65c24.498 0 43.65-19.153 43.65-43.65 0-24.275-19.598-43.65-43.428-43.65-23.829 0.668-42.759 19.821-42.759 43.65 0.223 23.829 19.153 42.982 42.537 43.65zM195.535 782.949c-23.829 0.668-42.314 19.821-42.314 43.65s18.93 42.982 42.314 43.65c24.498 0 44.096-19.153 44.764-43.65-0.223-24.052-20.489-43.65-44.764-43.65zM195.535 113.051c24.275 0 44.318-19.598 44.764-43.65-0.668-24.498-20.266-43.65-44.764-43.65-24.275 0-43.65 19.598-43.65 43.65 0 24.275 19.153 43.65 43.65 43.65z" />
<glyph unicode="&#xe921;" glyph-name="title" d="M1008.8 577.6c0 95.6-35.4 187.2-100 257.8-1 1.8-2.6 3.2-4 4.6-40.8 43-91.6 76.4-146.8 96.8-1 0.4-2.4 0.8-3.6 1.2-41.4 14.8-84.2 22-128 22-49 0-96.6-9.2-141.6-27.2-1.2-0.4-2.8-1-4-1.8-53-21.8-101-56-139.6-99-1.6-1.6-2.8-3-3.8-4.6-60.4-69.6-93.6-158.4-93.6-250.2 0-14.2 0.8-28.4 2.4-42.4 0-0.2 0-0.4 0-0.6 2.6-23.2 7.2-46.2 14.2-68.4l-197.2-197.2c-5.4-5.2-8.2-12.2-8.2-19.6 0-7.2 3-14.4 8.2-19.6 5.2-5.4 12.2-8.2 19.6-8.2 7.2 0 14.4 3 19.6 8.2l180.2 180.2c3.8-7.8 8.2-15.6 12.4-23.2 0.6-1.6 1.6-3 2.6-4.6 47-78.6 119.4-137.2 205.2-166.6l-124.8-124.8c-10.8-11-10.8-28.6 0-39.2 5.2-5.4 12.2-8.2 19.6-8.2 7.2 0 14.4 3 19.8 8.2l148.4 148.4c20.2-3.2 40.6-5 61-5 67.4 0 133.4 17.8 191.4 51.6 56 32.6 103.2 79.2 136.8 134.8 1.2 1.6 2.2 3.2 3 5 26.2 45.2 42.8 94.4 48.8 146.4v0.4l-8.6 0.8 8.6-0.6c1.2 15 2 30 2 44.6zM857 809l-15.6-135.4-98-22.2-89.4 64.8v94.8l96.4 69.2c40-16.4 75.8-40.4 106.6-71.2zM703.8 610.8l-29.8-92h-96.8l-29.8 92.2 78.4 56.8 78-57zM682.8 899.6l-58-41.4-64.8 39.8c40.2 8.2 82.2 8.8 122.8 1.6zM490.6 875.2l107.4-65.6v-93.4l-89.2-64.8-99 22.2-20.6 129.2c29 30.6 63.2 55 101.4 72.4zM342.8 741l13-81-55.6-56c3.8 48.4 18.4 95 42.6 137zM384 357.8l75.6-14.4 38.4-66.8c-43.4 18.4-82.2 46.2-114 81.2zM464 398.8l-126.2 24.2c-17.8 32.8-29.6 68-35.2 105l91.4 92.2 99.2-22.4 33.4-102.8-62.6-96.2zM677.2 254.2c-17-2.8-34.2-4-51.2-4s-34.4 1.6-51.2 4l-64.8 112.8 62.4 96.2h107.6l62.2-96.4-65-112.6zM754.2 276.4l38.4 66.8 75.2 14c-31.8-34.8-70.4-62.4-113.6-80.8zM914.2 422.4l-126-23.6-62.6 96.4 33.4 103 99 22.2 91.4-94c-5.8-36.6-17.6-71.4-35.2-104zM896 660.4l10 86.2c26.6-43.8 42.4-93 46.4-144.2l-56.4 58zM315.8 267.2c-9.8 9.8-26.2 9.8-36 0l-257.8-257.8c-9.8-9.8-9.8-26.2 0-36 4.8-5 11.2-7.6 18-7.6s13.4 2.6 18 7.6l257.8 257.8c9.8 9.8 9.8 26.2 0 36zM317.4-21c-5.6 0-11.2-2.4-15.2-6.2s-6.2-9.4-6.2-15.2c0-5.6 2.4-11.2 6.2-15.2 4-4 9.4-6.2 15.2-6.2 5.6 0 11.2 2.4 15.2 6.2 4 4 6.2 9.4 6.2 15.2 0 5.6-2.4 11.2-6.2 15.2-3.8 3.8-9.4 6.2-15.2 6.2z" />
<glyph unicode="&#xe922;" glyph-name="twitter" d="M766.579 959.594h-509.97c-141.297 0-256.609-115.312-256.609-256.609v-510.782c0-140.485 115.312-255.797 256.609-255.797h510.782c141.297 0 256.609 115.312 256.609 256.609v509.97c-0.812 141.297-116.124 256.609-257.421 256.609zM765.767 576.305c0-5.684 0-11.369 0-17.053 0-170.531-131.553-367.048-372.733-367.048-73.897 0-142.921 21.113-200.577 57.656 10.557-0.812 20.301-1.624 30.858-1.624 61.716 0 117.748 20.301 162.411 55.22-57.656 0.812-105.567 38.167-122.62 89.326 8.121-1.624 16.241-2.436 24.362-2.436 12.181 0 24.362 1.624 34.918 4.872-58.468 12.181-103.131 64.152-103.131 126.68v1.624c16.241-9.745 37.354-15.429 58.468-16.241-34.918 22.738-58.468 62.528-58.468 107.191 0 23.55 6.496 45.475 17.865 64.964 64.964-77.957 160.787-129.117 269.602-134.801-2.436 9.745-3.248 19.489-3.248 29.234 0 71.461 58.468 129.117 130.741 129.117 37.354 0 71.461-15.429 95.822-40.603 30.046 5.684 57.656 16.241 82.83 31.67-9.745-30.046-30.858-55.22-57.656-71.461 26.798 3.248 51.971 9.745 75.521 20.301-17.865-25.986-39.791-48.723-64.964-66.588z" />
<glyph unicode="&#xe923;" glyph-name="video" d="M997.76 742.187h-57.387v40.96c0 14.293-11.733 26.24-26.24 26.24h-57.387v40.747c0 14.293-11.733 26.24-26.24 26.24h-637.013c-14.293 0-26.24-11.733-26.24-26.24v-40.747h-57.387c-14.293 0-26.24-11.733-26.24-26.24v-40.533h-57.6c-14.293 0-26.24-11.733-26.24-26.24v-670.507c0-14.293 11.733-26.24 26.24-26.24h971.947c14.507 0 26.24 11.733 26.027 26.027v670.293c0 14.507-11.733 26.24-26.24 26.24zM219.733 809.387v14.293h584.32v-14.293h-584.32zM136.107 742.4v14.293h752v-14.293h-752zM971.733 689.92v-618.027h-919.467v618.027h919.467zM444.8 198.613c5.12 0 10.24 1.493 14.507 4.267l223.36 156.16c2.987 1.92 4.907 4.48 6.613 6.613l0.213 0.213c4.053 5.76 5.547 13.013 4.267 20.053-1.067 7.040-5.12 12.8-10.88 16.64l-223.147 155.947c-4.267 3.2-9.6 4.693-14.933 4.693-14.293 0-26.24-11.733-26.24-26.24v-311.893c0-14.507 11.733-26.453 26.24-26.453zM471.253 275.2v211.413l151.040-105.813-151.040-105.6z" />
<glyph unicode="&#xe924;" glyph-name="vote" d="M964 386c0 49.626-40.374 90-90 90h-133.666c16.56 44.774 26.83 97.956 32.834 138.242 6.064 40.668-5.838 81.834-32.654 112.946-26.736 31.020-65.56 48.812-106.514 48.812-16.568 0-30-13.432-30-30 0-72.474-41.65-181.882-90.256-206.252-54.712-27.426-162.344-57.82-183.782-63.748-13.384 0-287.024 0-299.96 0-16.568 0-30-13.432-30-30v-420c-0.002-16.568 13.43-30 29.998-30h90v-30c0-16.568 13.432-30 30-30h124c36.642 0 68.216 22.022 82.244 53.516l210.48-52.62c2.38-0.594 4.824-0.896 7.276-0.896h180c49.626 0 90 40.374 90 90 0 11.704-2.246 22.892-6.328 33.158 38.176 10.42 66.328 45.406 66.328 86.842 0 11.704-2.246 22.892-6.328 33.158 38.176 10.42 66.328 45.406 66.328 86.842 0 23.030-8.694 44.066-22.972 60 14.278 15.934 22.972 36.97 22.972 60zM119.998 56h-60v360h60v-360zM303.998 26c0-16.542-13.458-30-30-30h-94v420h124v-390zM694 296h180c16.542 0 30-13.458 30-30s-13.458-30-30-30c-22.62 0-161.512 0-180 0-16.568 0-30-13.432-30-30s13.432-30 30-30h120c16.542 0 30-13.458 30-30s-13.458-30-30-30c-12.718 0-107.282 0-120 0-16.568 0-30-13.432-30-30s13.432-30 30-30h60c16.542 0 30-13.458 30-30s-13.458-30-30-30h-176.306l-213.694 53.422v373.826c40.476 11.622 126.33 37.644 176.632 62.862 68.9 34.542 111.090 143.798 121.070 224.988 12.762-4.668 24.282-12.544 33.368-23.084 15.408-17.874 22.244-41.538 18.756-64.924-14.21-95.308-32.036-134.43-46.658-163.672-4.65-9.3-4.154-20.344 1.312-29.188s15.122-14.23 25.52-14.23h180c16.542 0 30-13.458 30-30s-13.458-30-30-30h-180c-16.568 0-30-13.432-30-30s13.432-30 30-30zM664 960c-16.568 0-30-13.432-30-30v-64c0-16.568 13.432-30 30-30s30 13.432 30 30v64c0 16.568-13.432 30-30 30zM494.294 808.132l-42.426 42.426c-11.714 11.716-30.71 11.716-42.426 0s-11.716-30.71 0-42.426l42.426-42.426c11.714-11.716 30.712-11.716 42.426 0 11.716 11.716 11.716 30.71 0 42.426zM393.998 626h-60c-16.568 0-30-13.432-30-30s13.432-30 30-30h60c16.568 0 30 13.432 30 30s-13.432 30-30 30zM994 626h-60c-16.568 0-30-13.432-30-30s13.432-30 30-30h60c16.568 0 30 13.432 30 30s-13.432 30-30 30zM918.558 850.558c-11.714 11.716-30.71 11.716-42.426 0l-42.426-42.426c-11.716-11.716-11.716-30.71 0-42.426 11.714-11.716 30.712-11.716 42.426 0l42.426 42.426c11.716 11.716 11.716 30.71 0 42.426z" />
<glyph unicode="&#xe925;" glyph-name="youtube" d="M446.171 361.854l172.292 92.648-172.292 94.273zM767.187 960h-511.187c-140.597 0-256-115.403-256-256.813v-511.187c0-140.597 115.403-256 256-256h511.187c141.41 0 256.813 115.403 256.813 256.813v510.375c0 141.41-115.403 256.813-256.813 256.813zM828.952 422.806c0-53.638-4.876-108.089-4.876-108.089s-5.689-45.511-24.381-65.829c-24.381-26.819-51.2-26.819-63.39-28.444-89.397-6.502-223.492-7.314-223.492-7.314s-166.603 2.438-217.803 7.314c-13.816 2.438-46.324 1.625-70.705 28.444-19.505 20.317-24.381 65.829-24.381 65.829s-4.876 54.451-4.876 108.089v50.387c0 53.638 4.876 108.089 4.876 108.089s5.689 45.511 24.381 65.829c24.381 26.819 51.2 27.632 63.39 29.257 90.21 6.502 224.305 7.314 224.305 7.314s134.095-0.813 223.492-7.314c12.19-1.625 39.822-2.438 64.203-28.444 19.505-20.317 24.381-66.641 24.381-66.641s4.876-54.451 4.876-108.089v-50.387z" />
<glyph unicode="&#xe926;" glyph-name="zalo" d="M766.579 959.594h-509.97c-141.297 0-256.609-115.312-256.609-256.609v-510.782c0-140.485 115.312-255.797 256.609-255.797h510.782c141.297 0 256.609 115.312 256.609 256.609v509.97c-0.812 141.297-116.124 256.609-257.421 256.609zM517.278 145.104c-55.22 0-106.379 13.805-151.854 38.979l-173.78-55.22 56.844 166.471c-28.422 47.099-44.663 102.319-44.663 160.787 0 172.155 140.485 311.017 313.453 311.017s313.453-138.861 313.453-311.017-140.485-311.017-313.453-311.017zM333.551 398.262c24.362 0 47.099 0.203 69.634 0 12.79-0.203 19.692-5.481 20.91-15.632 1.421-12.79-5.887-21.113-19.692-21.316-25.986-0.406-51.971-0.203-77.957-0.203-7.511 0-15.023-0.406-22.534 0.203-9.339 0.406-18.474 2.436-22.941 11.978s-1.218 18.271 4.872 26.189c24.768 31.467 49.738 63.137 74.506 94.604 1.421 1.827 2.842 3.857 4.263 5.684-1.624 2.639-3.857 1.421-5.684 1.624-17.256 0.203-34.918 0-52.174 0.203-4.060 0-8.121 0.406-11.978 1.218-9.136 2.030-14.82 11.166-12.79 20.301 1.421 6.090 6.293 11.166 12.384 12.587 3.857 1.015 7.918 1.421 11.978 1.421 28.625 0.203 57.453 0.203 85.875 0 5.075 0.203 10.151-0.406 15.023-1.827 10.963-3.654 15.632-13.805 11.166-24.362-3.857-9.136-9.948-17.053-16.038-24.971-21.113-26.798-42.024-53.596-63.137-79.987-1.421-2.030-3.045-4.060-5.684-7.715v0zM519.918 482.715c3.857 5.075 7.918 9.542 14.414 10.963 12.79 2.639 24.565-5.684 24.768-18.474 0.406-32.076 0.406-64.355 0-96.431 0-8.324-5.481-15.835-13.399-18.068-8.121-3.045-17.256-0.609-22.534 6.293-2.639 3.451-3.857 4.060-7.715 1.015-14.617-11.978-31.264-14.008-48.926-8.121-28.625 9.339-40.4 31.67-43.445 58.874-3.451 29.437 6.496 54.408 32.685 69.837 21.925 12.79 44.054 11.775 64.152-5.887v0zM463.074 424.247c0.406-7.105 2.639-13.805 6.699-19.489 8.73-11.572 25.174-14.008 36.948-5.278 1.827 1.421 3.654 3.248 5.278 5.278 8.933 12.181 8.933 32.279 0 44.46-4.466 6.293-11.572 9.948-19.083 10.151-17.662 1.015-30.046-12.587-29.843-35.121zM631.372 423.232c-1.218 41.212 25.783 72.070 64.355 73.288 41.009 1.218 70.852-26.189 72.070-66.385 1.218-40.603-23.55-69.431-61.919-73.288-42.024-4.263-75.115 26.189-74.506 66.385v0zM671.569 427.090c-0.406-8.121 2.030-15.835 6.902-22.534 8.933-11.572 25.377-13.805 36.948-4.872 1.827 1.218 3.248 2.842 4.669 4.466 9.339 12.181 9.339 32.685 0.203 45.069-4.466 6.090-11.572 9.948-19.083 10.151-17.256 1.015-29.64-12.181-29.64-32.279zM617.161 455.105c0-24.971 0.203-49.738 0-74.709 0.203-11.369-8.933-20.91-20.301-21.113-1.827 0-4.060 0.203-5.887 0.609-8.121 2.030-14.211 10.557-14.211 20.707v127.695c0 7.511-0.203 15.023 0 22.534 0.203 12.384 8.121 20.504 19.895 20.504 12.181 0.203 20.504-7.918 20.504-20.707 0.203-25.174 0-50.347 0-75.521z" />
</font>
</defs>
</svg>
