<?xml version="1.0" standalone="no"?>
<!DOCTYPE svg PUBLIC "-//W3C//DTD SVG 1.1//EN" "http://www.w3.org/Graphics/SVG/1.1/DTD/svg11.dtd" >
<svg>
<metadata>
Created by FontForge 20120731 at Sun Jun 12 12:55:31 2016
 By ,,,
(c) Copyright 2001 by Tom Truong. All Rights Reserved
</metadata>
<defs>
<font id="UVNChimBien" horiz-adv-x="1126" >
  <font-face 
    font-family="UVN Chim Bien"
    font-weight="400"
    font-stretch="semi-condensed"
    units-per-em="2048"
    panose-1="2 9 6 3 4 5 10 2 4 4"
    ascent="1638"
    descent="-410"
    x-height="1176"
    cap-height="1483"
    bbox="-313 -483 2048 2329"
    underline-thickness="141"
    underline-position="-139"
    unicode-range="U+0020-F002"
  />
<missing-glyph horiz-adv-x="1024" 
d="M128 0v2329h768v-2329h-768zM256 128h512v2073h-512v-2073z" />
    <glyph glyph-name=".notdef" horiz-adv-x="1024" 
d="M128 0v2329h768v-2329h-768zM256 128h512v2073h-512v-2073z" />
    <glyph glyph-name=".null" horiz-adv-x="0" 
 />
    <glyph glyph-name="nonmarkingreturn" horiz-adv-x="573" 
 />
    <glyph glyph-name="space" unicode=" " horiz-adv-x="573" 
 />
    <glyph glyph-name="exclam" unicode="!" horiz-adv-x="819" 
d="M403 246h148l-64 -160q-34 -86 -135 -86h-147l63 160q34 86 135 86zM428 1479h162q-90 -286 -90 -961q0 -93 -19 -118t-67 -25h-80q16 70 16 149q0 187 -31.5 456.5t-31.5 342.5q0 85 27 118q31 38 114 38z" />
    <glyph glyph-name="quotedbl" unicode="&#x22;" horiz-adv-x="694" 
d="M496 856l-74 458q-2 12 -2 40q0 108 96 108t96 -106q0 -16 -4 -41l-73 -459h-39zM160 856l-74 459q-2 12 -2 39q0 108 94 108q96 0 96 -108q0 -27 -2 -40l-73 -458h-39z" />
    <glyph glyph-name="numbersign" unicode="#" horiz-adv-x="1575" 
d="M977 858h-275l-94 -264h275zM920 1460l-156 -436h268l156 436h182l-156 -436h291l-59 -166h-291l-92 -262h307l-59 -168h-307l-154 -434h-184l155 434h-268l-154 -434h-184l156 434h-301l59 168h301l92 262h-319l61 166h318l155 436h183z" />
    <glyph glyph-name="dollar" unicode="$" horiz-adv-x="1147" 
d="M633 571q0 -25 -1 -77.5t-1 -79.5v-46q0 -15 4 -257q82 12 133 62q55 54 55 134q0 132 -190 264zM532 1370q-163 -31 -163 -172q0 -116 170 -260q0 189 -7 432zM526 1651h119l-6 -160q200 -10 373 -141q-37 -82 -96 -119q-53 -34 -148 -45q18 30 18 63q0 104 -149 125
l-4 -512q245 -177 329.5 -287t84.5 -227q0 -162 -127 -260q-109 -84 -281 -100l4 -195h-117l4 195q-244 8 -454 182q32 92 93 133q48 32 156 53q-18 -56 -18 -84q0 -70 82 -117q65 -37 146 -46q0 66 2 197t2 196v137q-178 134 -253 214q-136 147 -136 288q0 152 117 245
q99 80 261 103z" />
    <glyph glyph-name="percent" unicode="%" horiz-adv-x="1300" 
d="M991 627q-92 0 -92 -279q0 -276 92 -276q94 0 94 276q0 279 -94 279zM991 721q135 0 203 -126q55 -100 55 -247q0 -145 -56 -247q-69 -126 -202 -126t-202 126q-56 102 -56 247q0 146 55 247q68 126 203 126zM313 1407q-94 0 -94 -277q0 -278 94 -278q93 0 93 278
q0 277 -93 277zM960 1490q53 -3 89 -3q-10 0 87 3q-354 -555 -798 -1502q-60 4 -84 4q-15 0 -44 -2t-44 -2q467 774 794 1502zM311 1501q135 0 203 -126q55 -101 55 -247t-55 -246q-69 -124 -203 -124q-133 0 -201 125q-55 100 -55 245t55 246q68 127 201 127z" />
    <glyph glyph-name="ampersand" unicode="&#x26;" horiz-adv-x="1513" 
d="M535 786q-177 -91 -177 -292q0 -150 95 -245t245 -95q125 0 222 71zM1077 1358q-26 -77 -71 -109q-39 -28 -125 -38q8 30 8 53q0 45 -40 72q-35 24 -83 24q-73 0 -118.5 -49t-45.5 -123q0 -93 105 -246l352 -514q47 90 47 244q0 15 -3 45t-3 45q0 47 80 47h256
q-6 -85 -85 -117q-15 -6 -44 -22q-39 -29 -86 -160q-48 -135 -80 -203q54 -92 115 -129t165 -37q-19 -80 -52 -109q-36 -32 -116 -32h-170l-98 129q-164 -152 -381 -152q-204 0 -336.5 128t-132.5 331q0 318 336 451q-88 144 -88 270q0 154 109 250q104 92 260 92
q192 0 325 -141z" />
    <glyph glyph-name="quotesingle" unicode="'" horiz-adv-x="358" 
d="M160 856l-74 459q-2 12 -2 39q0 108 94 108q96 0 96 -108q0 -27 -2 -40l-73 -458h-39z" />
    <glyph glyph-name="parenleft" unicode="(" horiz-adv-x="729" 
d="M424 1612q137 -83 137 -170q0 -40 -61 -197q-129 -331 -129 -633q0 -444 221 -872q-85 24 -138.5 74t-107.5 161q-168 345 -168 766q0 476 246 871z" />
    <glyph glyph-name="parenright" unicode=")" horiz-adv-x="729" 
d="M137 1626q82 -23 137 -73.5t109 -159.5q168 -342 168 -766q0 -477 -244 -871q-139 80 -139 168q0 43 61 196q129 323 129 634q0 444 -221 872z" />
    <glyph glyph-name="asterisk" unicode="*" horiz-adv-x="1024" 
d="M420 1479h184l-45 -351l315 158l60 -186l-346 -60l246 -252l-158 -116l-164 313l-164 -313l-158 116l246 252l-346 60l60 186l315 -158z" />
    <glyph glyph-name="plus" unicode="+" horiz-adv-x="1706" 
d="M938 1221v-527h514v-166h-514v-528h-170v528h-514v166h514v527h170z" />
    <glyph glyph-name="comma" unicode="," horiz-adv-x="573" 
d="M285 258h149q-44 -190 -97 -291q-85 -161 -224 -188q49 80 49 184q0 28 -4 84t-4 84q0 75 28 101t103 26z" />
    <glyph glyph-name="hyphen" unicode="-" horiz-adv-x="739" 
d="M627 750q-33 -128 -66 -162.5t-108 -34.5q-28 0 -85 2t-85 2q-120 0 -172 -20q19 110 45 143q36 45 137 45q30 0 89 -2t89 -2q107 0 156 29z" />
    <glyph glyph-name="hyphen" unicode="&#x2010;" horiz-adv-x="739" 
d="M627 750q-33 -128 -66 -162.5t-108 -34.5q-28 0 -85 2t-85 2q-120 0 -172 -20q19 110 45 143q36 45 137 45q30 0 89 -2t89 -2q107 0 156 29z" />
    <glyph glyph-name="period" unicode="." horiz-adv-x="573" 
d="M313 246h146l-58 -160q-31 -86 -143 -86h-145l57 160q31 86 143 86z" />
    <glyph glyph-name="slash" unicode="/" horiz-adv-x="569" 
d="M467 1503h160q-302 -797 -570 -1693h-155q262 763 565 1693z" />
    <glyph glyph-name="zero" unicode="0" horiz-adv-x="1147" 
d="M573 1354q-138 0 -193 -254q-32 -148 -32 -361q0 -212 32 -361q56 -253 193 -253q226 0 226 614q0 213 -32 362q-56 253 -194 253zM573 1503q220 0 357 -207q135 -203 135 -557t-134 -557q-136 -207 -358 -207q-221 0 -357 207q-134 203 -134 557t135 557
q136 207 356 207z" />
    <glyph glyph-name="one" unicode="1" horiz-adv-x="1147" 
d="M727 1511q-6 -153 -6 -172v-985q0 -150 29 -181.5t118 -31.5h154q-20 -81 -52 -110q-35 -31 -116 -31h-694q26 70 56 99t125 44q89 14 108 42q24 34 24 157v788q0 81 -15 114q-23 50 -93 50q-72 0 -230 -39q11 75 44.5 114t98.5 54q18 4 172 29t277 59z" />
    <glyph glyph-name="two" unicode="2" horiz-adv-x="1147" 
d="M305 215h373q220 0 342 76q-46 -159 -98 -216q-69 -75 -217 -75q-52 0 -156 4t-156 4q-105 0 -311 -10v22q0 123 41 213q34 76 200 243q388 389 388 583q0 115 -64 183.5t-178 68.5q-161 0 -328 -127q-6 28 -6 51q0 138 140 207q109 53 262 53q184 0 308 -113
q128 -117 128 -299q0 -173 -143 -350q-82 -103 -280 -270q-192 -162 -245 -248z" />
    <glyph glyph-name="three" unicode="3" horiz-adv-x="1147" 
d="M647 868q164 -27 256 -133t92 -272q0 -105 -51 -203q-147 -285 -504 -285q-196 0 -340 109q57 84 111 84q24 0 92.5 -15.5t106.5 -15.5q142 0 230.5 92.5t88.5 235.5q0 161 -117 245q-102 74 -270 74q-28 0 -74 -4q18 71 35 91q20 24 102 47q92 24 116 41q128 88 128 196
q0 89 -60 140q-57 48 -147 48q-91 0 -221 -61q-12 48 -12 78q0 78 120 116q84 27 185 27q160 0 262 -85q109 -90 109 -247q0 -209 -238 -303z" />
    <glyph glyph-name="four" unicode="4" horiz-adv-x="1147" 
d="M655 1280q-136 -124 -247 -287q-138 -203 -138 -340q0 -54 52 -71q28 -9 96 -9h235zM932 1491q-45 -83 -45 -240v-678h98q69 0 129 29q-66 -217 -191 -217q-17 0 -36 4v-106q0 -133 122 -140q-17 -79 -51 -110q-37 -33 -116 -33h-242q42 86 50 190q3 31 3 199h-307
q-129 0 -178 20q-84 34 -84 142q0 145 121 374q102 194 223 335q110 128 220.5 179.5t283.5 51.5z" />
    <glyph glyph-name="five" unicode="5" horiz-adv-x="1147" 
d="M915 1536q-11 -140 -50 -199q-52 -77 -181 -77q-37 0 -109.5 4t-109.5 4q-60 0 -81 -39q-13 -25 -17 -94l-11 -203q119 69 238 69q193 0 308 -141q108 -131 108 -328q0 -240 -138 -394q-143 -161 -380 -161q-189 0 -359 103q59 104 105 104q23 0 97.5 -24.5t119.5 -24.5
q142 0 220 117q68 101 68 250q0 131 -55 216q-65 99 -190 99q-59 0 -147.5 -40t-106.5 -40q-47 0 -47 64q0 12 2 33q2 25 2 33l18 443q4 95 33 131q33 40 125 40q51 0 151.5 -7.5t151.5 -7.5q156 0 235 70z" />
    <glyph glyph-name="six" unicode="6" horiz-adv-x="1147" 
d="M592 909q-117 0 -172 -126q-39 -92 -39 -228q0 -157 37 -267q55 -163 180 -163q114 0 164 146q33 98 33 241q0 397 -203 397zM971 1407q-58 -88 -109 -88q-29 0 -88 15.5t-90 15.5q-270 0 -295 -443q110 156 281 156q188 0 291 -160q88 -137 88 -336q0 -235 -108 -398
q-125 -189 -349 -189q-254 0 -372 232q-91 178 -91 458q0 336 107 549q140 280 442 280q145 0 293 -92z" />
    <glyph glyph-name="seven" unicode="7" horiz-adv-x="1147" 
d="M1083 1478l-289 -624h117v-129h-177l-296 -639q-51 -111 -119 -111q-44 0 -126 35q53 68 83 133l268 582h-248v129h308l184 399q-149 13 -329 13q-201 0 -320 -43q35 140 73 187q55 71 179 71q73 0 219.5 -10.5t220.5 -10.5q132 0 252 18z" />
    <glyph glyph-name="eight" unicode="8" horiz-adv-x="1147" 
d="M573 768q-229 -151 -229 -369q0 -114 56 -194q64 -90 173 -90q108 0 172 89q58 79 58 191q0 218 -230 373zM682 852q377 -124 377 -444q0 -199 -146 -320q-137 -113 -340 -113t-340 112q-147 120 -147 319q0 321 379 446q-270 91 -270 330q0 147 118 238q108 83 260 83
q155 0 261 -83q116 -91 116 -242q0 -233 -268 -326zM573 924q156 116 156 268q0 77 -39 130q-43 60 -117 60t-117 -60q-38 -54 -38 -130q0 -153 155 -268z" />
    <glyph glyph-name="nine" unicode="9" horiz-adv-x="1147" 
d="M176 92q54 84 109 84q23 0 90.5 -18.5t105.5 -18.5q154 0 231 143q58 109 64 281q-107 -143 -276 -143q-186 0 -292 161q-91 139 -91 334q0 252 133.5 417t331.5 165q250 0 368 -228q92 -177 92 -452q0 -339 -104 -551q-139 -282 -442 -282q-166 0 -320 108zM561 1354
q-109 0 -158 -150q-34 -101 -34 -239q0 -148 36 -248q53 -148 173 -148q113 0 166 126q40 93 40 223q0 160 -38 271q-56 165 -185 165z" />
    <glyph glyph-name="colon" unicode=":" horiz-adv-x="573" 
d="M313 246h146l-58 -160q-31 -86 -143 -86h-145l57 160q31 86 143 86zM313 1028h146l-58 -162q-31 -86 -143 -86h-145l57 160q31 88 143 88z" />
    <glyph glyph-name="semicolon" unicode=";" horiz-adv-x="573" 
d="M285 258h149q-44 -190 -97 -291q-85 -161 -224 -188q49 80 49 184q0 28 -4 84t-4 84q0 75 28 101t103 26zM328 1028h145l-57 -162q-30 -86 -144 -86h-145l57 160q31 88 144 88z" />
    <glyph glyph-name="less" unicode="&#x3c;" horiz-adv-x="1706" 
d="M1442 991l-934 -381l934 -381v-182l-1178 483v160l1178 486v-185z" />
    <glyph glyph-name="equal" unicode="=" horiz-adv-x="1706" 
d="M1452 487v-165h-1198v165h1198zM1452 901v-168h-1198v168h1198z" />
    <glyph glyph-name="greater" unicode="&#x3e;" horiz-adv-x="1706" 
d="M1442 690v-160l-1178 -483v182l934 381l-934 381v185z" />
    <glyph glyph-name="question" unicode="?" horiz-adv-x="971" 
d="M420 246h139l-57 -160q-31 -86 -135 -86h-146l62 160q33 86 137 86zM589 506q-21 -74 -50 -101q-34 -30 -107 -30h-133q-20 54 -20 98q0 106 74 237l138 216q74 121 74 204q0 88 -54 144.5t-142 56.5q-107 0 -228 -127q-32 64 -32 90q0 71 109.5 137t248.5 66
q142 0 239 -88t97 -229q0 -85 -40 -165q-24 -46 -180 -228q-137 -159 -137 -201q0 -71 143 -80z" />
    <glyph glyph-name="at" unicode="@" horiz-adv-x="2019" 
d="M1305 823l51 170h172l-172 -616q-17 -61 -17 -96q0 -103 82 -103q33 0 84 22q47 20 92 56q228 182 228 518q0 293 -205 463q-191 158 -490 158q-263 0 -477.5 -145.5t-307.5 -390.5q-62 -161 -62 -357q0 -335 230 -534q218 -189 558 -189q331 0 625 209l37 -47
q-299 -224 -662 -224q-189 0 -347 46q-272 80 -428.5 286t-156.5 488q0 393 296 660q286 259 683 259q334 0 543 -175q223 -188 223 -515q0 -159 -59 -297q-60 -142 -168 -238q-124 -110 -262 -110q-201 0 -213 205q-124 -203 -303 -203q-143 0 -221 101q-70 92 -70 239
q0 201 147 371q154 176 352 176q184 0 218 -187zM1249 772q0 74 -31 123q-37 59 -106 59q-63 0 -117 -45q-84 -70 -155 -251q-68 -172 -68 -291q0 -72 29 -122q35 -61 102 -61q144 0 253 229q93 195 93 359z" />
    <glyph glyph-name="A" unicode="A" horiz-adv-x="1262" 
d="M1253 152q-24 -93 -53 -120q-34 -32 -125 -32h-227q31 79 31 188q0 106 -41 252h-506q-37 -132 -37 -200q0 -99 84 -99q-28 -87 -50 -109q-30 -32 -112 -32h-168q42 83 99 323q26 116 85 347q45 164 119 385q68 205 68 231q0 58 -80 62q21 58 29 75q24 48 51 56
q18 5 64 9q39 3 118 3q107 0 137 -18q63 -37 216 -564q103 -353 165 -619q5 -23 17 -67q25 -71 116 -71zM568 1319q-10 -87 -86 -337q-78 -259 -113 -394h432q-54 239 -211 731h-22z" />
    <glyph glyph-name="B" unicode="B" horiz-adv-x="1266" 
d="M462 897v-545q0 -117 26 -169q37 -74 142 -74q123 0 196 94q66 86 66 213q0 323 -430 481zM757 899v-12q180 -50 284 -167q113 -126 113 -306q0 -215 -144 -329q-132 -105 -352 -105q-69 0 -205.5 15t-205.5 15q-40 0 -86 -4q61 88 61 277v921q0 107 -67 121q-20 5 -53 6
q17 93 89 130q67 34 320 34q526 0 526 -342q0 -244 -280 -254zM462 1036q102 -55 178 -55t123 50.5t47 127.5q0 92 -63.5 150.5t-155.5 58.5q-75 0 -104 -33q-25 -31 -25 -108v-191z" />
    <glyph glyph-name="C" unicode="C" horiz-adv-x="1081" 
d="M1075 1370q-39 -84 -97 -117q-49 -28 -150 -38q18 38 18 63q0 40 -49 64q-39 20 -84 20q-194 0 -284 -222q-64 -160 -64 -388q0 -613 385 -613q159 0 288 111q2 -12 2 -35q0 -240 -354 -240q-303 0 -461 235q-135 201 -135 521q0 350 168 561t444 211q195 0 373 -133z
" />
    <glyph glyph-name="D" unicode="D" horiz-adv-x="1360" 
d="M177 2q43 94 43 205v985q0 76 -25 104.5t-97 34.5q11 93 87 130q72 34 349 34q154 0 253 -17q255 -46 378 -274q102 -189 102 -473q0 -341 -142 -533q-161 -218 -489 -218q-68 0 -203 13t-203 13q-7 0 -53 -4zM462 344q0 -117 23 -164q35 -71 137 -71q165 0 269.5 172
t104.5 460q0 286 -102.5 455.5t-267.5 169.5q-94 0 -131 -49q-33 -42 -33 -139v-834z" />
    <glyph glyph-name="E" unicode="E" horiz-adv-x="1159" 
d="M275 1479h809q-19 -113 -62 -162q-46 -52 -155 -74q9 25 9 39q0 29 -36.5 41t-201.5 12q-123 0 -148.5 -19t-25.5 -83v-330h328q59 0 122 18q-28 -99 -57 -128q-38 -37 -133 -37h-260v-439q0 -105 37 -129q46 -30 323 -30q183 0 260 28q-26 -117 -63 -150
q-41 -36 -158 -36h-686q45 90 45 211v975q0 75 -27 106.5t-101 36.5q20 91 54.5 120.5t126.5 29.5z" />
    <glyph glyph-name="F" unicode="F" horiz-adv-x="1090" 
d="M276 1479h807q-18 -114 -60 -162q-45 -52 -155 -74q9 18 9 35q0 57 -232 57q-127 0 -153.5 -19t-26.5 -83v-330h328q59 0 122 18q-28 -99 -57 -128q-38 -37 -133 -37h-260v-443q0 -88 19 -119q24 -41 104 -49q-25 -85 -50 -111q-34 -34 -114 -34h-250q49 100 49 223v963
q0 78 -27.5 107.5t-101.5 35.5q19 87 56.5 118.5t125.5 31.5z" />
    <glyph glyph-name="G" unicode="G" horiz-adv-x="1239" 
d="M1151 1329q-52 -87 -136 -120q-65 -25 -179 -25q41 41 41 73q0 50 -55 77q-44 22 -99 22q-198 0 -291 -230q-67 -166 -67 -399q0 -224 70 -383q95 -215 290 -215q95 0 132 65q26 47 26 146q0 17 -1 51.5t-1 50.5q0 94 -68 123q-40 17 -151 17q40 145 135 145q28 0 85 -3
t85 -3q109 0 181 14q-46 -90 -46 -194v-219q0 -145 -28 -203q-38 -80 -163 -117q-85 -25 -209 -25q-304 0 -469 229q-145 202 -145 519q0 326 158 540q177 238 491 238q224 0 414 -174z" />
    <glyph glyph-name="H" unicode="H" horiz-adv-x="1440" 
d="M513 1483q-49 -106 -49 -235v-369h512v295q0 79 -21 113q-27 42 -104 50q22 75 40 101q32 45 93 45q31 0 92 -2t92 -2q55 0 99 4q-49 -106 -49 -235v-945q0 -80 19 -110q25 -40 103 -48q-26 -85 -50 -110q-33 -35 -113 -35h-250q49 98 49 223v502h-512v-412
q0 -87 19 -119q24 -41 104 -49q-26 -86 -50 -110q-32 -35 -112 -35h-250q47 94 47 223v951q0 79 -21 112q-26 43 -103 51q21 74 40 101q31 45 92 45q31 0 92.5 -2t92.5 -2q63 0 98 4z" />
    <glyph glyph-name="I" unicode="I" horiz-adv-x="688" 
d="M513 1483q-49 -106 -49 -235v-945q0 -80 19 -110q26 -40 104 -48q-26 -86 -50 -110q-32 -35 -112 -35h-250q47 94 47 223v951q0 79 -21 112q-26 43 -103 51q21 74 40 101q31 45 92 45q31 0 92.5 -2t92.5 -2q63 0 98 4z" />
    <glyph glyph-name="J" unicode="J" horiz-adv-x="840" 
d="M424 1479h248q-45 -102 -45 -219v-902q0 -190 -46 -270q-62 -106 -235 -106q-51 0 -152.5 13t-152.5 13q-30 0 -72 -10q23 79 41 106q33 50 94 50q24 0 71 -4.5t71 -4.5q139 0 139 199v821q0 91 -28 125q-31 38 -119 41q25 93 58.5 120.5t127.5 27.5z" />
    <glyph glyph-name="K" unicode="K" horiz-adv-x="1343" 
d="M509 1483q-49 -106 -49 -235v-376l403 467q92 107 170 128q30 9 215 16q-24 -122 -73 -144q-5 -2 -36 -10q-122 -30 -206 -127l-215 -248l469 -692q78 -115 180 -115q-22 -85 -49 -113q-35 -34 -117 -34h-194q4 33 4 37q0 49 -58 137l-395 596l-98 -104v-353
q0 -87 19 -119q24 -41 104 -49q-27 -86 -50 -110q-33 -35 -112 -35h-246q47 94 47 216v967q0 75 -25 109q-27 38 -99 45q23 79 42 104q32 42 99 42q29 0 87 -2t87 -2q56 0 96 4z" />
    <glyph glyph-name="L" unicode="L" horiz-adv-x="977" 
d="M262 1479h242q-39 -94 -39 -181v-970q0 -119 49 -151q36 -25 164 -25q247 0 332 59q-34 -112 -63 -150q-48 -61 -144 -61q-70 0 -211 5t-211 5q-82 0 -204 -10q46 100 46 215v920q0 103 -17 137q-26 50 -116 59q25 85 54 113q36 35 118 35z" />
    <glyph glyph-name="M" unicode="M" horiz-adv-x="1683" 
d="M369 1479l288 -1q-4 -25 -4 -32q0 -38 44 -160q121 -337 149 -520q57 216 92 326q72 228 129 301q67 86 219 86q75 0 135 -7q-37 -37 -37 -98q0 -16 15 -116q11 -75 35 -227q54 -347 83 -679q18 -211 140 -211q-22 -77 -51 -106q-36 -35 -111 -35h-264q49 85 49 236
q0 133 -29 391t-92 680l-174 -514q-132 -350 -241 -448q4 18 4 52q0 105 -105 375q-136 349 -178 543q-63 -359 -98 -629.5t-35 -384.5q0 -75 20 -107q26 -44 99 -44q-26 -86 -57 -115q-37 -35 -122 -35h-170q41 75 93 487q37 291 73 503q37 217 37 243q0 62 -32 85
q-25 17 -92 19q20 82 61 112t127 30z" />
    <glyph glyph-name="N" unicode="N" horiz-adv-x="1436" 
d="M274 1479h195q-2 -33 -2 -19q0 -37 37 -104l483 -877q35 -70 105 -211q-21 109 -21 203v668q0 105 -22 140q-30 46 -127 46q18 93 51.5 123.5t126.5 30.5h172q-51 -69 -51 -235v-920q0 -91 20 -128q27 -53 109 -57q-19 -85 -54 -112t-122 -27h-203q4 16 4 27q0 31 -27 79
l-499 889q-19 35 -94 198q18 -137 18 -210v-661q0 -91 27 -130q32 -47 118 -47q-24 -88 -53 -114q-34 -31 -121 -31h-158q37 74 37 247v929q0 79 -21 110q-26 41 -104 45q26 92 53 117q33 31 123 31z" />
    <glyph glyph-name="O" unicode="O" horiz-adv-x="1362" 
d="M680 1358q-185 0 -263 -233q-52 -154 -52 -386t52 -385q78 -233 263 -233t263 233q52 153 52 385t-52 386q-78 233 -263 233zM680 1503q265 0 430 -208q162 -207 162 -556q0 -312 -136 -520q-159 -244 -456 -244q-296 0 -455 244q-135 208 -135 520q0 351 162.5 557.5
t427.5 206.5z" />
    <glyph glyph-name="P" unicode="P" horiz-adv-x="1188" 
d="M465 625v-318q0 -88 23 -118q29 -38 118 -40q-27 -91 -48 -115q-32 -34 -116 -34h-262q43 101 43 244v915q0 90 -16 118q-22 40 -103 44q19 96 97 134q75 36 334 36q573 0 573 -477q0 -194 -123 -323q-126 -132 -319 -132q-110 0 -201 66zM463 993q0 -291 166 -291
q116 0 174 119q45 92 45 221q0 126 -52 212q-63 102 -182 102q-96 0 -129 -71q-22 -47 -22 -157v-135z" />
    <glyph glyph-name="Q" unicode="Q" horiz-adv-x="1362" 
d="M764 6q244 -119 414 -119q125 0 243 68q-31 -236 -293 -236q-149 0 -408.5 140.5t-379.5 140.5q-116 0 -238 -61q28 93 44 121q37 67 98 67q24 0 88 -12q-242 197 -242 630q0 340 163 548t425 208q267 0 429.5 -206t162.5 -550q0 -328 -140 -529.5t-366 -209.5zM680 1358
q-180 0 -260 -235q-55 -160 -55 -384t55 -383q80 -235 260 -235q181 0 261 234q54 159 54 384q0 224 -55 384q-80 235 -260 235z" />
    <glyph glyph-name="R" unicode="R" horiz-adv-x="1253" 
d="M825 692l254 -442q67 -117 170 -117q-23 -74 -49 -100q-34 -33 -104 -33h-198q5 30 5 45q0 41 -31 100l-251 476q-89 -18 -158 -25v-295q0 -86 19 -118q25 -41 104 -50q-26 -81 -53 -104q-32 -29 -111 -29h-248q49 96 49 221v940q0 87 -26 120q-29 38 -113 42
q24 96 97 132t321 36q242 0 348 -49q242 -112 242 -371q0 -275 -267 -379zM463 738q368 16 368 333q0 118 -51 194q-60 89 -172 89q-90 0 -121 -46q-24 -36 -24 -126v-444z" />
    <glyph glyph-name="S" unicode="S" horiz-adv-x="1100" 
d="M999 1356q-39 -94 -102 -136q-59 -39 -164 -46q31 35 31 67q0 59 -72 91q-56 26 -123 26q-77 0 -133 -39q-65 -44 -65 -117q0 -91 137 -222q136 -117 273 -234q165 -144 208 -245q31 -73 31 -149q0 -180 -150 -284q-131 -91 -319 -91q-283 0 -498 197q39 99 98 142
q53 39 164 59q-26 -48 -26 -80q0 -76 88 -125q75 -41 158 -41q93 0 160 46q75 52 75 142q0 116 -255 323q-184 149 -243 217q-127 143 -127 288q0 175 137 271q120 85 302 85q210 0 415 -145z" />
    <glyph glyph-name="T" unicode="T" horiz-adv-x="1047" 
d="M1104 1497q-34 -111 -77 -146q-37 -31 -139 -36q2 0 -143 0q-98 0 -98 -80v-926q0 -89 20 -121q25 -42 107 -47q-23 -81 -50 -108q-34 -33 -112 -33h-256q50 100 50 262v971q0 54 -26 71t-159 17q-171 0 -260 -29q38 123 99 159q49 28 180 28q74 0 223 -4.5t223 -4.5
q333 0 418 27z" />
    <glyph glyph-name="U" unicode="U" horiz-adv-x="1376" 
d="M248 1479h270q-100 -244 -100 -715q0 -629 334 -629q325 0 325 653q0 362 -39 450q-43 94 -147 100q26 85 47 108q31 33 111 33h190q-41 -88 -41 -224q0 -80 7 -239.5t7 -239.5q0 -349 -88 -536q-124 -263 -432 -263q-292 0 -423 257q-99 195 -99 518q0 113 9 264.5
t9 179.5q0 70 -26 99.5t-96 39.5q25 88 59 116t123 28z" />
    <glyph glyph-name="V" unicode="V" horiz-adv-x="1161" 
d="M178 1479h211q-27 -75 -27 -123q0 -41 33 -194q29 -132 84 -354q99 -398 146 -599q266 859 266 983q0 79 -46 111q-36 26 -120 30q23 85 60 115.5t124 30.5h244q-44 -104 -142 -457q-121 -432 -170 -584q-100 -306 -172 -379q-76 -78 -206 -92l2 -2l2 1v5q0 12 -84 292
q-92 306 -158 564q-28 121 -57 242q-44 184 -62 213q-33 51 -112 51q24 86 60.5 116t123.5 30z" />
    <glyph glyph-name="W" unicode="W" horiz-adv-x="1708" 
d="M188 1479h183q-29 -60 -29 -119q0 -71 67.5 -360.5t192.5 -755.5q17 34 63 198q44 154 132 492q-47 199 -59 234q-57 170 -130 173q10 0 -20 -2q24 85 58.5 112.5t121.5 27.5h199q-23 -50 -23 -115q0 -84 65.5 -377.5t186.5 -740.5q101 325 163 595t62 353
q0 130 -171 139q25 90 65 118t135 28h221q-43 -73 -129 -437q-205 -867 -312 -988q-66 -73 -177 -83l2 1v8q1 16 -70.5 265t-126.5 466q-42 -151 -132 -451q-15 -50 -54 -143q-38 -68 -84.5 -99.5t-132.5 -46.5q4 3 4 11q0 19 -84 301q-91 300 -154 548q-28 122 -57 244
q-44 182 -64 217q-23 40 -108 50q21 90 63 116q34 21 133 21z" />
    <glyph glyph-name="X" unicode="X" horiz-adv-x="1184" 
d="M268 1479h183q0 -4 -1 -11.5t-1 -11.5q0 -44 20 -86l207 -430l121 248q26 53 26 86q0 53 -81 57q31 84 55 109q36 39 112 39h193q-64 -93 -107 -183l-245 -512l247 -503q35 -71 66 -99q42 -39 110 -41q-20 -80 -47 -107q-33 -34 -110 -34h-204q9 38 9 53q0 40 -22 86
l-264 547l-203 -397q-27 -53 -27 -90q0 -49 84 -56q-35 -85 -64 -110q-37 -33 -120 -33h-197q61 79 127 209l324 635l-176 364q-60 125 -179 125q20 87 47 114q33 32 117 32z" />
    <glyph glyph-name="Y" unicode="Y" horiz-adv-x="1036" 
d="M113 1479h171q-5 -25 -5 -39q0 -37 45 -131l139 -289q42 -87 119 -264l190 444q19 44 19 76q0 55 -99 55q31 91 60 117q36 31 127 31h184q-45 -77 -86 -168l-322 -715v-283q0 -88 18 -119q25 -41 105 -49q-27 -85 -51 -110q-33 -35 -113 -35h-249q49 102 49 216v380
l-301 606q-35 70 -70 98q-42 33 -113 33q22 88 57.5 117t125.5 29z" />
    <glyph glyph-name="Z" unicode="Z" horiz-adv-x="1092" 
d="M1026 1483q-46 -132 -111 -254l-564 -1067q86 -8 341 -8q221 0 359 36q-20 -43 -64 -125q-27 -46 -67 -58q-23 -7 -91 -7q-69 0 -208 4t-209 4q-209 0 -387 -8q43 122 114 254l572 1069q-138 8 -236 8q-275 0 -362 -35q35 99 68 134q46 49 138 49q9 0 55 -2
q209 -9 398 -9q140 0 254 15z" />
    <glyph glyph-name="bracketleft" unicode="[" horiz-adv-x="739" 
d="M178 1679h348q91 0 121 -124q-56 14 -119 14h-145v-1661h145q57 0 119 16q-30 -127 -121 -127h-348q8 89 8 184v1547q0 72 -8 151z" />
    <glyph glyph-name="backslash" unicode="\" horiz-adv-x="569" 
d="M-57 1503h159q355 -1087 566 -1693h-156q-264 884 -569 1693z" />
    <glyph glyph-name="bracketright" unicode="]" horiz-adv-x="739" 
d="M211 1679h350q-10 -105 -10 -197v-1524q0 -71 10 -160l-350 -1q-89 0 -121 127q64 -16 119 -16h147v1661h-147q-63 0 -119 -14q30 124 121 124z" />
    <glyph glyph-name="asciicircum" unicode="^" horiz-adv-x="2048" 
d="M1130 1462l502 -565h-104l-506 397l-506 -397h-104l503 565h215z" />
    <glyph glyph-name="underscore" unicode="_" horiz-adv-x="1024" 
d="M1024 -311v-172h-1024v172h1024z" />
    <glyph glyph-name="grave" unicode="`" horiz-adv-x="1024" 
d="M240 1669h153q69 0 101 -57l170 -301h-125z" />
    <glyph glyph-name="a" unicode="a" 
d="M1056 133q-21 -74 -43 -98q-34 -37 -134 -37q-73 0 -131 -16q6 54 6 145q-120 -150 -299 -150q-175 0 -277 133q-92 122 -92 302q0 190 101 307q107 123 294 123q163 0 262 -131q2 20 2 59q0 155 -72.5 225t-228.5 70q-123 0 -266 -41q34 104 88.5 139t225.5 35
q254 0 363 -129q101 -119 101 -379v-409q0 -79 12 -104q20 -42 88 -44zM532 698q-110 0 -170 -88q-51 -76 -51 -192q0 -117 52 -198q61 -95 172 -95q114 0 170 96q45 78 45 201q0 116 -50 190q-57 86 -168 86z" />
    <glyph glyph-name="b" unicode="b" horiz-adv-x="1196" 
d="M382 520q0 -148 50 -252q65 -135 198 -135q136 0 200 148q48 110 48 266q0 506 -252 506q-130 0 -195 -145q-49 -109 -49 -257v-131zM210 1616h221q-43 -117 -43 -225v-340q113 139 307 139q186 0 303 -164t117 -430q0 -279 -121 -447.5t-317 -168.5q-186 0 -299 157
q0 -88 -62 -121q-45 -24 -139 -24q-7 0 -21.5 1t-21.5 1q35 80 35 201v1126q0 83 -14 114q-22 46 -94 54q14 71 45.5 99t103.5 28z" />
    <glyph glyph-name="c" unicode="c" horiz-adv-x="944" 
d="M940 1081q-50 -97 -78 -122q-43 -39 -133 -39q4 13 4 26q0 58 -50 90q-43 29 -103 29q-142 0 -214 -170q-55 -129 -55 -293q0 -178 62 -305q80 -166 239 -166q56 0 147 37t107 37q28 0 74 -58q-137 -172 -365 -172q-242 0 -378 184q-121 165 -121 416q0 258 128 432
q143 193 392 193q171 0 344 -119z" />
    <glyph glyph-name="d" unicode="d" horiz-adv-x="1200" 
d="M811 647q0 150 -49 257q-65 143 -197 143q-145 0 -209 -181q-43 -122 -43 -301q0 -168 46 -279q65 -157 208 -157q131 0 195 133q49 101 49 248v137zM844 1616h225q-45 -113 -45 -238v-1185q0 -125 37 -195h-39q-96 0 -142 20q-68 30 -71 113q-117 -147 -297 -147
q-224 0 -340 203q-94 165 -94 407q0 270 117.5 434t306.5 164q188 0 305 -141v278q0 78 -18 111q-24 44 -94 51q15 71 46.5 98t102.5 27z" />
    <glyph glyph-name="e" unicode="e" horiz-adv-x="1051" 
d="M756 872q0 78 -54 132.5t-131 54.5q-133 0 -209 -139q-61 -113 -61 -258q0 -49 12 -115l271 117q172 74 172 208zM997 948q-28 -160 -84 -240q-62 -86 -204 -149l-359 -158q85 -272 330 -272q43 0 122.5 19.5t110.5 19.5q52 0 99 -80q-184 -111 -389 -111
q-258 0 -407 193q-136 176 -136 442q0 239 126 404q138 182 369 182q185 0 318 -147q35 -43 104 -103z" />
    <glyph glyph-name="f" unicode="f" horiz-adv-x="666" 
d="M744 1624q-15 -77 -37 -100t-68 -26q-38 0 -75 -1q-67 -2 -98 -41t-31 -119v-161h113q78 0 137 26q-38 -127 -74.5 -151.5t-175.5 -24.5v-739q0 -71 17 -102q24 -44 92 -44q-21 -85 -59.5 -113t-127.5 -28h-182q43 94 43 240v786h-53q-60 0 -108 -14q24 82 39 108
q32 56 89 56h33v147q0 141 70 224q74 89 213 89q33 0 97.5 -11t96.5 -11q19 0 49 10z" />
    <glyph glyph-name="g" unicode="g" horiz-adv-x="1196" 
d="M807 715q0 157 -34 229q-50 107 -187 107q-149 0 -217 -155q-50 -113 -50 -284q0 -182 49 -302q69 -169 224 -169q108 0 215 95v479zM844 1075q13 74 96 94q32 7 147 7q-63 -93 -63 -236v-848q0 -148 -16 -222q-35 -154 -169 -235q-119 -71 -286 -71q-209 0 -444 102
q41 94 104 94q43 0 146.5 -25.5t158.5 -25.5q141 0 216 81q73 78 73 220v78q-133 -98 -287 -98q-221 0 -339 196q-97 163 -97 400q0 243 104 412q123 202 351 202q184 0 305 -125z" />
    <glyph glyph-name="h" unicode="h" horiz-adv-x="1184" 
d="M227 1616h215q-43 -86 -43 -227v-320q108 133 271 133q202 0 283 -141q61 -108 61 -330v-444q0 -78 15 -105q21 -38 91 -45q-21 -79 -53 -107q-35 -30 -115 -30h-202q45 102 45 231v562q0 262 -187 262q-209 0 -209 -293v-465q0 -74 17 -107q24 -47 92 -53
q-23 -78 -54 -105q-35 -32 -112 -32h-203q43 84 43 227v1094q0 75 -17 107q-24 46 -91 51q24 75 49 101q34 36 104 36z" />
    <glyph glyph-name="i" unicode="i" horiz-adv-x="598" 
d="M233 1176h216q-41 -78 -41 -219v-660q0 -77 16 -109q22 -47 90 -51q-23 -77 -51 -104q-34 -33 -109 -33h-207q41 80 41 218v661q0 75 -16 108q-23 47 -90 51q24 76 48 102q33 36 103 36zM344 1589h141l-47 -137q-28 -82 -139 -82h-143l49 137q29 82 139 82z" />
    <glyph glyph-name="j" unicode="j" horiz-adv-x="590" 
d="M233 1176h216q-41 -78 -41 -228v-999q0 -195 -50 -278q-66 -107 -245 -107q-117 0 -252 45q39 82 79 97q18 7 128 7q80 0 105 61q15 37 15 132v973q0 75 -16 108q-23 47 -90 51q24 76 48 102q33 36 103 36zM344 1589h141l-47 -137q-28 -82 -139 -82h-143l49 137
q29 82 139 82z" />
    <glyph glyph-name="k" unicode="k" horiz-adv-x="1071" 
d="M246 1616h198q-41 -82 -41 -220v-659l275 336q71 87 147 96q68 -1 213 21q-28 -123 -81 -139q-7 -2 -29 -6q-92 -16 -158 -87l-70 -75l240 -635q23 -60 50 -83q31 -26 91 -26q-18 -73 -44 -102q-34 -37 -103 -37h-182q18 44 18 80q0 45 -14 83l-205 554l-148 -170v-250
q0 -77 16 -109q23 -47 91 -51q-22 -73 -49 -101q-34 -36 -103 -36h-215q43 84 43 220v1109q0 70 -17 101q-23 44 -89 49q22 77 54 105q35 32 112 32z" />
    <glyph glyph-name="l" unicode="l" horiz-adv-x="598" 
d="M246 1616h203q-41 -78 -41 -218v-1101q0 -77 16 -109q22 -47 90 -51q-23 -78 -54 -105q-35 -32 -112 -32h-201q41 80 41 218v1103q0 76 -16 108q-23 44 -90 50q24 78 53 105q34 32 111 32z" />
    <glyph glyph-name="m" unicode="m" horiz-adv-x="1751" 
d="M949 1038q111 162 303 162q191 0 269 -142q59 -107 59 -317v-454q0 -76 15 -104q21 -38 89 -46q-20 -78 -52 -106q-35 -31 -113 -31h-197q43 104 43 231v562q0 258 -176 258q-199 0 -199 -289v-465q0 -76 16 -109q23 -47 91 -51q-23 -77 -51 -104q-34 -33 -109 -33h-201
q41 86 41 227v566q0 258 -174 258q-201 0 -201 -289v-465q0 -77 16 -109q23 -47 91 -51q-23 -78 -53 -105q-34 -32 -111 -32h-196q40 80 40 227v680q0 70 -16 94q-20 32 -85 35q22 91 58 121q27 22 85 22h19h20q68 0 120 17l-8 -145q106 149 285 149q202 0 282 -162z" />
    <glyph glyph-name="n" unicode="n" horiz-adv-x="1192" 
d="M1128 137q-23 -78 -45 -103q-31 -34 -104 -34h-219q43 98 43 231v562q0 262 -187 262q-206 0 -206 -293v-465q0 -76 16 -109q23 -47 90 -51q-22 -75 -47 -102q-34 -35 -104 -35h-218q43 84 43 227v680q0 70 -16 94q-21 32 -86 36q22 89 50 115q24 23 93 26q52 2 105 5
q31 4 63 13q-6 -40 -14 -145q111 149 297 149q197 0 278 -143q62 -110 62 -326v-444q0 -78 15 -105q21 -38 91 -45z" />
    <glyph glyph-name="o" unicode="o" horiz-adv-x="1085" 
d="M543 1053q-230 0 -230 -465q0 -463 230 -463q229 0 229 463q0 465 -229 465zM543 1200q241 0 364 -194q103 -163 103 -418q0 -256 -102 -419q-123 -194 -365 -194q-243 0 -365 194q-102 162 -102 419q0 256 103 418q122 194 364 194z" />
    <glyph glyph-name="p" unicode="p" horiz-adv-x="1196" 
d="M383 129v-250q0 -83 14 -114q22 -46 94 -54q-16 -73 -45 -99q-32 -30 -104 -30h-215q43 121 43 246v1155q0 117 -34 201q18 2 48 2q93 0 136 -23q59 -33 59 -121q111 156 301 156q220 0 337 -196q97 -162 97 -398q0 -250 -90 -411q-113 -203 -342 -203q-184 0 -299 139z
M383 537q0 -149 48 -258q65 -144 196 -144q252 0 252 500q0 160 -46 268q-64 150 -202 150q-133 0 -198 -135q-50 -104 -50 -252v-129z" />
    <glyph glyph-name="q" unicode="q" horiz-adv-x="1196" 
d="M813 659q0 148 -51 253q-66 135 -199 135q-141 0 -203 -159q-43 -110 -43 -278q0 -179 43 -302q64 -181 209 -181q130 0 195 144q49 109 49 257v131zM817 1042q0 87 58 120q43 24 135 24q30 0 48 -2q-32 -76 -32 -180v-1125q0 -85 13 -114q21 -46 94 -54q-17 -72 -45 -99
q-32 -30 -103 -30h-217q45 119 45 225v332q-117 -147 -313 -147q-186 0 -303 163t-117 429q0 242 96 410q118 206 342 206q186 0 299 -158z" />
    <glyph glyph-name="r" unicode="r" horiz-adv-x="768" 
d="M391 1191q-14 -106 -14 -220v-39q81 258 229 258q20 0 59.5 -4t59.5 -4q19 0 47 4q-25 -107 -57 -145q-37 -45 -125 -59q-94 -14 -124 -41q-56 -50 -56 -196v-448q0 -78 18 -110q24 -46 94 -50q-22 -77 -53 -105q-35 -32 -111 -32h-215q47 90 47 220v687q0 70 -16 95
q-21 31 -86 35q22 91 57 120q26 22 85 22h22h24q63 0 115 12z" />
    <glyph glyph-name="s" unicode="s" horiz-adv-x="872" 
d="M772 1182q-16 -84 -42 -120q-36 -50 -112 -50q-33 0 -98 14t-98 14q-105 0 -105 -92q0 -62 127 -173q203 -176 236 -212q127 -139 127 -272q0 -147 -108 -234q-100 -82 -250 -82q-220 0 -392 172q35 124 179 164v-18q0 -85 58 -136t144 -51q68 0 113 38q49 40 49 106
q0 75 -124 203q-115 116 -231 232q-124 141 -124 247q0 123 85 194q79 68 204 68q45 0 133 -14.5t133 -14.5t96 17z" />
    <glyph glyph-name="t" unicode="t" horiz-adv-x="688" 
d="M433 1495v-319h109q83 0 135 24q-40 -123 -75.5 -147.5t-168.5 -24.5v-760q0 -145 82 -145q14 0 40.5 7t39.5 7q38 0 76 -67q-109 -93 -236 -93q-219 0 -219 297v754h-55q-50 0 -106 -18q19 79 37 110q32 56 93 56h37v137q0 74 74 120q68 31 137 62z" />
    <glyph glyph-name="u" unicode="u" horiz-adv-x="1192" 
d="M215 1176h219q-45 -106 -45 -232v-561q0 -262 189 -262q206 0 206 293v465q0 75 -16 108q-23 47 -90 51q24 76 48 102q33 36 103 36h215q-40 -80 -40 -228v-680q0 -69 16 -94q21 -32 86 -35q-24 -90 -59 -120q-25 -22 -80 -22q-7 0 -22 1h-23q-67 0 -123 -18l8 145
q-110 -150 -299 -150q-198 0 -277 143q-59 108 -59 326v445q0 77 -16 105q-21 38 -90 45q23 78 46 103q31 34 103 34z" />
    <glyph glyph-name="v" unicode="v" horiz-adv-x="1055" 
d="M117 1176l170 -1q-6 -22 -6 -49q0 -55 38 -155l224 -590q17 -46 41 -155q17 82 41 151l172 491q20 57 20 93q0 73 -131 82q30 78 54 101q34 32 108 32h223q-22 -35 -80 -189l-297 -797q-42 -114 -75 -152q-51 -60 -150 -62q0 30 -43 148q-49 132 -172 443
q-157 395 -180 420q-42 46 -113 56q29 76 52 99q33 34 104 34z" />
    <glyph glyph-name="w" unicode="w" horiz-adv-x="1585" 
d="M115 1176h172q-13 -37 -13 -60q0 -29 13 -63l229 -596q26 -68 57 -195q12 49 45 141l134 371l-43 139q-38 122 -156 131q28 78 54 101q33 31 108 31h170q-17 -36 -17 -64q0 -24 11 -58l194 -601q21 -66 49 -190q21 91 45 159l160 457q19 54 19 84q0 67 -133 77
q27 78 52 102q33 34 107 34h230q-35 -54 -87 -196l-298 -810q-36 -98 -73 -136q-45 -47 -136 -64q2 8 2 18q0 16 -17 68l-178 546l-143 -424q-34 -101 -67 -141q-48 -58 -136 -67q0 43 -14 79l-328 842q-29 75 -62 106q-41 39 -114 43q26 78 54 104q34 32 110 32z" />
    <glyph glyph-name="x" unicode="x" horiz-adv-x="965" 
d="M180 1176l180 -1q-4 -30 -4 -36q0 -35 19 -70l76 -139q33 -61 75 -160q25 65 72 156l59 114q36 70 65 97q42 39 107 39h138q-17 -63 -32 -87q-20 -31 -57 -47q-68 -28 -116 -114l-154 -273l236 -419q54 -95 162 -95q-41 -141 -146 -141h-182q6 22 6 45q0 46 -22 86
l-99 182q-30 54 -90 187q-49 -107 -86 -181l-82 -163q-41 -81 -81 -115q-51 -41 -132 -41h-127q14 46 25 71q21 46 43 58q31 10 88 39q35 28 82 111l190 337l-178 314q-58 103 -182 107q18 73 45 102q34 37 102 37z" />
    <glyph glyph-name="y" unicode="y" horiz-adv-x="1036" 
d="M141 1176l176 -1q-8 -45 -8 -67q0 -41 17 -94l174 -539q22 -67 51 -190l231 585q25 63 25 101q0 67 -125 74q24 76 52 101q32 30 108 30h231q-57 -114 -82 -175l-456 -1114q-64 -157 -128 -225q-90 -96 -231 -96q-118 0 -244 53q41 90 88 90q19 0 58 -6t59 -6
q188 0 301 334l-291 860q-26 77 -58 109q-41 40 -114 40q28 81 54 105q33 31 112 31z" />
    <glyph glyph-name="z" unicode="z" horiz-adv-x="975" 
d="M952 1181q-42 -102 -108 -208l-512 -823h405q123 0 213 34q-32 -111 -71 -145q-45 -39 -156 -39q-77 0 -232 5t-233 5q-108 0 -240 -12q41 101 93 184l530 850h-328q-113 0 -204 -31q21 103 54 137q40 40 140 40q62 0 186.5 -5.5t186.5 -5.5q118 0 276 14z" />
    <glyph glyph-name="braceleft" unicode="{" horiz-adv-x="1024" 
d="M850 1459q-127 -2 -175.5 -55.5t-48.5 -248.5v-51v-52q0 -222 -55 -302q-58 -83 -209 -115q151 -32 209 -114q55 -81 55 -305v-50.5v-50.5q0 -195 48 -247.5t176 -54.5v-57h-10q-202 0 -289 62q-76 54 -93 183q-7 52 -7 302q0 161 -58 223.5t-215 75.5v68q159 15 216 76
t57 223q0 250 8 308q18 128 97 180q88 59 294 59v-57z" />
    <glyph glyph-name="bar" unicode="|" horiz-adv-x="1024" 
d="M602 1565v-2048h-178v2048h178z" />
    <glyph glyph-name="braceright" unicode="}" horiz-adv-x="1024" 
d="M848 670v-68q-157 -13 -215.5 -75t-58.5 -252q0 -22 1 -68.5t1 -69.5q0 -231 -84.5 -306t-317.5 -75v57q128 2 176 54.5t48 247.5v51.5v52.5q0 223 56.5 303.5t207.5 112.5q-150 32 -208 114q-56 79 -56 301v53v52q0 195 -48.5 248.5t-175.5 55.5v57h10q202 0 289 -61
q77 -55 95 -183q7 -55 7 -303q0 -162 57 -223t216 -76z" />
    <glyph glyph-name="asciitilde" unicode="~" horiz-adv-x="1706" 
d="M1530 600q-205 -141 -381 -141q-99 0 -291.5 67.5t-294.5 67.5q-158 0 -385 -160v187q211 143 387 143q118 0 294 -60q214 -73 292 -73q166 0 379 153v-184z" />
    <glyph glyph-name="exclamdown" unicode="&#xa1;" horiz-adv-x="819" 
d="M397 1104h78q-14 -64 -14 -150q0 -188 31.5 -457.5t31.5 -340.5q0 -85 -27 -118q-31 -38 -114 -38h-162q90 284 90 967q0 89 19 113t67 24zM459 1479h147l-63 -160q-34 -86 -135 -86h-148l64 160q34 86 135 86z" />
    <glyph glyph-name="cent" unicode="&#xa2;" horiz-adv-x="1147" 
d="M602 1075q-113 -35 -170 -183q-43 -114 -43 -257q0 -148 44 -262q55 -146 169 -194q2 145 2 292v323q0 133 -2 281zM594 1466h117l-8 -245q181 -8 335 -117l-27 -46q-49 -84 -70 -97.5t-118 -22.5q4 17 4 31q0 89 -124 116q-5 -311 -5 -462q0 -149 5 -463q73 0 159 35.5
t99 35.5q25 0 79 -57q-117 -149 -335 -174l6 -289h-117l6 293q-215 24 -333 206q-103 161 -103 390q0 231 104 395q117 185 332 219z" />
    <glyph glyph-name="sterling" unicode="&#xa3;" horiz-adv-x="1147" 
d="M1011 1290q-59 -20 -77 -20q-10 0 -94 56t-156 56q-97 0 -159 -61t-62 -158q0 -93 71 -288q46 -3 152 -3q161 0 209 21q-23 -97 -84 -132q-50 -28 -158 -28q-47 0 -77 2q28 -92 28 -153q0 -188 -207 -385q94 30 213 30q47 0 139.5 -10t139.5 -10q131 0 215 53
q-30 -139 -68 -189q-54 -71 -178 -71q-61 0 -184 13.5t-185 13.5q-108 0 -247 -29q-37 93 -37 131q0 33 51 97q125 157 125 249q0 82 -68 260q-125 0 -211 -16q45 150 164 154q-47 145 -47 249q0 174 136 280q124 97 304 97q272 0 352 -209z" />
    <glyph glyph-name="currency" unicode="&#xa4;" horiz-adv-x="1147" 
d="M1106 1380q-59 -140 -246 -161q17 38 17 63q0 80 -103 80q-117 0 -192 -164q-51 -114 -70 -266h438l-26 -96l-420 -1q-2 -26 -2 -83q0 -68 2 -98l379 -1l-27 -96h-344q49 -418 303 -418q150 0 258 104q2 -10 2 -38q0 -230 -315 -230q-240 0 -376 176q-114 150 -142 406
h-160l27 96h126q-2 28 -2 78q0 22 4 105h-155l27 96h139q35 241 157 393q143 178 369 178q188 0 332 -123z" />
    <glyph glyph-name="yen" unicode="&#xa5;" horiz-adv-x="1139" 
d="M162 1479h151q-4 -18 -4 -37q0 -40 45 -133l140 -289q39 -87 120 -260q215 478 215 516q0 59 -98 59q30 89 59 114q34 30 123 30h183q-43 -75 -84 -166l-176 -387h233v-97h-274l-82 -182h356v-96h-381v-242q0 -89 19 -120q25 -39 106 -48q-25 -83 -49 -108
q-33 -33 -111 -33h-231q45 88 45 221v330h-387v96h362l-94 182h-268v97h223l-139 280q-35 70 -68 97q-41 34 -112 34q21 86 55.5 114t122.5 28z" />
    <glyph glyph-name="brokenbar" unicode="&#xa6;" horiz-adv-x="1024" 
d="M602 408v-758h-178v758h178zM602 1432v-758h-178v758h178z" />
    <glyph glyph-name="section" unicode="&#xa7;" horiz-adv-x="1024" 
d="M745 516q0 39 -29 90q-34 60 -95 121q-192 193 -242 193q-40 0 -66 -26.5t-26 -66.5q0 -33 28 -79q30 -51 117.5 -148t135.5 -131q50 -37 91 -37q86 0 86 84zM862 1378q-54 -135 -200 -149q8 22 8 43q0 100 -125 100q-123 0 -123 -108q0 -71 106 -181l240 -249
q156 -162 156 -297q0 -95 -61.5 -155.5t-157.5 -72.5q100 -110 100 -241q0 -133 -89 -205q-83 -68 -218 -68q-175 0 -326 129q55 139 210 160q-3 -21 -3 -41q0 -109 115 -109q52 0 90.5 35.5t38.5 87.5q0 87 -146 240l-213 223q-145 152 -145 268q0 210 215 242
q-94 122 -94 227q0 122 94 187q81 57 209 57q170 0 319 -123z" />
    <glyph glyph-name="dieresis" unicode="&#xa8;" horiz-adv-x="1024" 
d="M709 1583h122l-49 -136q-26 -71 -118 -71h-125l49 136q26 71 121 71zM360 1583h123l-49 -135q-26 -72 -121 -72h-123l50 136q26 71 120 71z" />
    <glyph glyph-name="copyright" unicode="&#xa9;" horiz-adv-x="1683" 
d="M1165 1100l2 -320h-47q-65 273 -274 273q-236 0 -236 -369q0 -379 254 -379q163 0 277 174l43 -26q-124 -213 -350 -213q-180 0 -299 124.5t-119 305.5q0 182 116 306q119 128 299 128q61 0 120 -21q56 -22 112 -45q51 -1 61 62h41zM1464 678q0 258 -181 442.5
t-439 184.5q-259 0 -442 -184t-183 -443q0 -258 182.5 -441.5t440.5 -183.5q257 0 439.5 184t182.5 441zM844 1401q296 0 507.5 -213.5t211.5 -509.5q0 -298 -211.5 -508.5t-509.5 -210.5q-299 0 -510 210t-211 509t212 511t511 212z" />
    <glyph glyph-name="ordfeminine" unicode="&#xaa;" horiz-adv-x="846" 
d="M793 754q-16 -52 -33 -69q-26 -28 -101 -28q-53 0 -98 -9q4 54 4 100q-87 -105 -223 -105q-128 0 -204 90q-72 85 -72 215q0 138 78.5 219.5t215.5 81.5q123 0 197 -91q2 12 2 40q0 207 -225 207q-91 0 -201 -29q31 84 91 108q38 15 145 15q186 0 267 -84.5t81 -271.5
v-287q0 -57 10 -75q15 -27 66 -27zM399 1149q-80 0 -125 -60q-41 -54 -41 -137q0 -84 41 -141q46 -63 127 -63q162 0 162 206q0 85 -39 137q-43 58 -125 58z" />
    <glyph glyph-name="guillemotleft" unicode="&#xab;" horiz-adv-x="961" 
d="M719 948h182l-233 -360l233 -361h-182l-246 361zM326 948h182l-234 -360l234 -361h-182l-246 361z" />
    <glyph glyph-name="logicalnot" unicode="&#xac;" horiz-adv-x="1706" 
d="M1452 862v-502h-166v336h-1032v166h1198z" />
    <glyph glyph-name="registered" unicode="&#xae;" horiz-adv-x="1683" 
d="M748 981v-258q28 -2 53 -2q209 0 209 170q0 72 -47.5 115t-120.5 43q-94 0 -94 -68zM866 1096q118 0 205 -40q115 -53 115 -157q0 -159 -283 -209q113 -29 163.5 -89.5t63.5 -177.5q10 -91 54 -91q59 0 59 133h49v-23q0 -174 -170 -174q-111 0 -142 77q-5 13 -24 162
q-13 104 -75 143q-43 26 -109 26h-24v-246q0 -53 29 -74q22 -17 79 -22v-47h-389v46q59 4 83 20q30 22 30 77v520q0 56 -30 77q-23 15 -83 20v49h399zM1464 678q0 258 -181.5 442.5t-438.5 184.5q-260 0 -442.5 -183.5t-182.5 -443.5q0 -258 182.5 -441.5t440.5 -183.5
q257 0 439.5 184t182.5 441zM844 1401q302 0 510.5 -214t208.5 -517q0 -209 -129.5 -397t-324.5 -264q-127 -50 -282 -50q-291 0 -498.5 214t-207.5 505q0 299 212 511t511 212z" />
    <glyph glyph-name="degree" unicode="&#xb0;" horiz-adv-x="674" 
d="M522 1165q0 78 -53.5 131.5t-130.5 53.5q-78 0 -132 -54t-54 -131t54.5 -131.5t131.5 -54.5t130.5 54t53.5 132zM338 1460q124 0 209.5 -86.5t85.5 -210.5q0 -123 -87 -209t-210 -86q-124 0 -208.5 85.5t-84.5 209.5q0 125 85 211t210 86z" />
    <glyph glyph-name="plusminus" unicode="&#xb1;" horiz-adv-x="1706" 
d="M1452 182v-168h-1198v168h1198zM938 1206v-334h514v-165h-514v-334h-170v334h-514v165h514v334h170z" />
    <glyph glyph-name="twosuperior" unicode="&#xb2;" horiz-adv-x="758" 
d="M201 721h245q148 0 228 45q-32 -98 -68 -132q-45 -42 -141 -42q-34 0 -102.5 2t-102.5 2q-86 0 -206 -6q-2 21 -2 30q0 77 49 144q29 40 107 110q261 233 261 353q0 151 -160 151q-104 0 -215 -75q-4 10 -4 30q0 84 96 125q72 31 168 31q117 0 199 -64q90 -70 90 -184
q0 -105 -99 -215q-53 -57 -186 -160q-125 -96 -157 -145z" />
    <glyph glyph-name="threesuperior" unicode="&#xb3;" horiz-adv-x="758" 
d="M428 1112q229 -31 229 -242q0 -63 -33 -122q-96 -170 -333 -170q-132 0 -225 65q36 49 73 49q21 0 65 -9t66 -9q91 0 151 53t60 143q0 100 -82 151q-67 42 -174 42q-8 0 -24.5 -1t-24.5 -1q11 39 24 53.5t67 27.5q60 14 77 25q84 53 84 117q0 55 -41 87q-37 28 -94 28
q-60 0 -148 -37q0 7 -4 22t-4 23q0 47 80 70q56 16 123 16q100 0 168 -48q76 -54 76 -151q0 -126 -156 -182z" />
    <glyph glyph-name="acute" unicode="&#xb4;" horiz-adv-x="1024" 
d="M631 1669h153l-299 -358h-125l170 301q32 57 101 57z" />
    <glyph glyph-name="paragraph" unicode="&#xb6;" horiz-adv-x="1024" 
d="M969 1380h-117v-1380h-129v1380h-168v-1380h-131v784q-161 6 -262 94q-107 94 -107 252q0 166 115 261q107 88 276 88h523v-99z" />
    <glyph glyph-name="cedilla" unicode="&#xb8;" horiz-adv-x="1024" 
d="M449 0h88v-96q247 0 247 -180q0 -197 -258 -197q-90 0 -258 43v108q160 -38 254 -38q109 0 109 75q0 87 -125 87q-24 0 -57 -3v201z" />
    <glyph glyph-name="onesuperior" unicode="&#xb9;" horiz-adv-x="758" 
d="M479 1499q-4 -99 -4 -101v-602q0 -71 14 -92q18 -28 84 -28h101q-14 -50 -36.5 -67t-74.5 -17h-457q32 76 105 84q70 8 86 28t16 93v473q0 98 -71 98q-52 0 -152 -22q6 44 28 67.5t66 32.5q99 15 295 53z" />
    <glyph glyph-name="ordmasculine" unicode="&#xba;" horiz-adv-x="815" 
d="M408 1397q-172 0 -172 -326q0 -323 172 -323t172 323q0 326 -172 326zM408 1499q177 0 269 -130q81 -114 81 -298q0 -185 -80 -298q-92 -130 -270 -130t-270 130q-81 113 -81 298q0 184 81 298q92 130 270 130z" />
    <glyph glyph-name="guillemotright" unicode="&#xbb;" horiz-adv-x="961" 
d="M453 948h182l246 -360l-246 -361h-182l231 361zM59 948h183l245 -360l-245 -361h-183l234 361z" />
    <glyph glyph-name="onequarter" unicode="&#xbc;" horiz-adv-x="1788" 
d="M1479 717q-83 -67 -154 -158q-90 -115 -90 -192q0 -45 94 -45h148zM1653 836q-29 -46 -29 -136v-378h62q45 0 81 16q-22 -67 -48 -91q-31 -30 -95 -30v-59q0 -74 77 -78q-23 -80 -106 -80h-151q26 53 31 105q2 19 2 112h-195q-78 0 -108 11q-56 19 -56 81q0 81 78 211
q64 107 139 185q84 87 173 114q59 17 139 17h6zM1203 1491q46 -4 87 -4q24 0 88 4q-351 -546 -799 -1503q-66 4 -81 4t-44 -2t-44 -2q444 738 793 1503zM457 1495q-4 -89 -4 -93v-562q0 -67 14 -86q18 -25 80 -25h96q-14 -48 -35 -64t-71 -16h-437q29 71 95 79q75 10 87 24
q15 20 15 90v440q0 92 -68 92q-47 0 -145 -22q8 42 29 63.5t61 30.5q94 13 283 49z" />
    <glyph glyph-name="onehalf" unicode="&#xbd;" horiz-adv-x="1788" 
d="M1257 121h236q141 0 215 43q-30 -93 -65 -125q-43 -39 -134 -39q-33 0 -98 2t-98 2q-84 0 -196 -6q-2 21 -2 29q0 72 47 135q29 39 104 102q247 209 247 330q0 139 -153 139q-100 0 -206 -69q-3 7 -3 28q0 79 92 118q68 28 160 28q110 0 188 -60q86 -65 86 -172
q0 -99 -92 -200q-53 -58 -174.5 -148.5t-153.5 -136.5zM1203 1491q46 -4 87 -4q24 0 88 4q-351 -546 -799 -1503q-66 4 -81 4t-44 -2t-44 -2q444 738 793 1503zM457 1495q-4 -89 -4 -93v-562q0 -67 14 -86q18 -25 80 -25h96q-14 -48 -35 -64t-71 -16h-437q29 71 95 79
q75 10 87 24q15 20 15 90v440q0 92 -68 92q-47 0 -145 -22q8 42 29 63.5t61 30.5q94 13 283 49z" />
    <glyph glyph-name="threequarters" unicode="&#xbe;" horiz-adv-x="1788" 
d="M1479 717q-83 -67 -154 -158q-90 -115 -90 -192q0 -45 94 -45h148zM1653 836q-29 -46 -29 -136v-378h62q45 0 81 16q-22 -67 -48 -91q-31 -30 -95 -30v-59q0 -74 77 -78q-23 -80 -106 -80h-151q26 53 31 105q2 19 2 112h-195q-78 0 -108 11q-56 19 -56 81q0 81 78 211
q64 107 139 185q84 87 173 114q59 17 139 17h6zM1203 1491q46 -4 87 -4q24 0 88 4q-351 -546 -799 -1503q-66 4 -81 4t-44 -2t-44 -2q444 738 793 1503zM408 1135q219 -34 219 -226q0 -127 -116 -205q-102 -69 -235 -69q-120 0 -213 61q35 47 70 47q21 0 62.5 -8t62.5 -8
q85 0 141 48q60 50 60 134q0 91 -77 139q-65 40 -162 40q-25 0 -50 -3q10 41 21 52.5t64 24.5q59 15 73 24q82 49 82 110q0 105 -131 105q-60 0 -140 -33q-8 33 -8 43q0 44 76 65q53 15 117 15q95 0 160 -44q73 -51 73 -142q0 -118 -149 -170z" />
    <glyph glyph-name="questiondown" unicode="&#xbf;" horiz-adv-x="971" 
d="M514 1102h133q21 -53 21 -109q0 -122 -145.5 -338t-145.5 -309q0 -88 56.5 -144.5t144.5 -56.5q106 0 229 127q31 -58 31 -94q0 -67 -111 -132.5t-250 -65.5q-141 0 -236 87q-98 90 -98 230q0 114 93 244q30 43 171 199q93 102 93 151q0 69 -143 78q22 74 51 101
q34 32 106 32zM580 1477h145l-63 -160q-34 -86 -136 -86h-147l63 160q34 86 138 86z" />
    <glyph glyph-name="Agrave" unicode="&#xc0;" horiz-adv-x="1262" 
d="M1253 152q-24 -93 -53 -120q-34 -32 -125 -32h-227q31 79 31 188q0 106 -41 252h-506q-37 -132 -37 -200q0 -99 84 -99q-28 -87 -50 -109q-30 -32 -112 -32h-168q42 83 99 323q26 116 85 347q45 164 119 385q68 205 68 231q0 58 -80 62q21 58 29 75q24 48 51 56
q18 5 64 9q39 3 118 3q107 0 137 -18q63 -37 216 -564q103 -353 165 -619q5 -23 17 -67q25 -71 116 -71zM568 1319q-10 -87 -86 -337q-78 -259 -113 -394h432q-54 239 -211 731h-22zM322 1972h153q69 0 101 -57l170 -301h-125z" />
    <glyph glyph-name="Aacute" unicode="&#xc1;" horiz-adv-x="1262" 
d="M1253 152q-24 -93 -53 -120q-34 -32 -125 -32h-227q31 79 31 188q0 106 -41 252h-506q-37 -132 -37 -200q0 -99 84 -99q-28 -87 -50 -109q-30 -32 -112 -32h-168q42 83 99 323q26 116 85 347q45 164 119 385q68 205 68 231q0 58 -80 62q21 58 29 75q24 48 51 56
q18 5 64 9q39 3 118 3q107 0 137 -18q63 -37 216 -564q103 -353 165 -619q5 -23 17 -67q25 -71 116 -71zM568 1319q-10 -87 -86 -337q-78 -259 -113 -394h432q-54 239 -211 731h-22zM713 1972h153l-299 -358h-125l170 301q32 57 101 57z" />
    <glyph glyph-name="Acircumflex" unicode="&#xc2;" horiz-adv-x="1262" 
d="M1253 152q-24 -93 -53 -120q-34 -32 -125 -32h-227q31 79 31 188q0 106 -41 252h-506q-37 -132 -37 -200q0 -99 84 -99q-28 -87 -50 -109q-30 -32 -112 -32h-168q42 83 99 323q26 116 85 347q45 164 119 385q68 205 68 231q0 58 -80 62q21 58 29 75q24 48 51 56
q18 5 64 9q39 3 118 3q107 0 137 -18q63 -37 216 -564q103 -353 165 -619q5 -23 17 -67q25 -71 116 -71zM568 1319q-10 -87 -86 -337q-78 -259 -113 -394h432q-54 239 -211 731h-22zM490 1922h208l195 -358h-125l-174 225l-174 -225h-127z" />
    <glyph glyph-name="Atilde" unicode="&#xc3;" horiz-adv-x="1262" 
d="M1253 152q-24 -93 -53 -120q-34 -32 -125 -32h-227q31 79 31 188q0 106 -41 252h-506q-37 -132 -37 -200q0 -99 84 -99q-28 -87 -50 -109q-30 -32 -112 -32h-168q42 83 99 323q26 116 85 347q45 164 119 385q68 205 68 231q0 58 -80 62q21 58 29 75q24 48 51 56
q18 5 64 9q39 3 118 3q107 0 137 -18q63 -37 216 -564q103 -353 165 -619q5 -23 17 -67q25 -71 116 -71zM568 1319q-10 -87 -86 -337q-78 -259 -113 -394h432q-54 239 -211 731h-22zM801 1905h100q-55 -218 -207 -218q-39 0 -112.5 25t-102.5 25q-64 0 -92 -70h-100
q48 209 205 209q39 0 109 -23.5t106 -23.5q72 0 94 76z" />
    <glyph glyph-name="Adieresis" unicode="&#xc4;" horiz-adv-x="1262" 
d="M1253 152q-24 -93 -53 -120q-34 -32 -125 -32h-227q31 79 31 188q0 106 -41 252h-506q-37 -132 -37 -200q0 -99 84 -99q-28 -87 -50 -109q-30 -32 -112 -32h-168q42 83 99 323q26 116 85 347q45 164 119 385q68 205 68 231q0 58 -80 62q21 58 29 75q24 48 51 56
q18 5 64 9q39 3 118 3q107 0 137 -18q63 -37 216 -564q103 -353 165 -619q5 -23 17 -67q25 -71 116 -71zM568 1319q-10 -87 -86 -337q-78 -259 -113 -394h432q-54 239 -211 731h-22zM791 1886h122l-49 -136q-26 -71 -118 -71h-125l49 136q26 71 121 71zM442 1886h123
l-49 -135q-26 -72 -121 -72h-123l50 136q26 71 120 71z" />
    <glyph glyph-name="Aring" unicode="&#xc5;" horiz-adv-x="1262" 
d="M1247 152q-26 -93 -51 -118q-33 -34 -121 -34h-223q33 85 33 188t-43 252h-514q-37 -134 -37 -202q0 -94 84 -97q-29 -87 -48 -108q-30 -33 -110 -33h-164q44 88 100 328q94 402 203 727q68 206 68 231q0 56 -80 62q18 47 31 72q27 53 46.5 59t64.5 9q40 3 118 3
q101 0 131 -18q64 -39 219 -574q107 -368 166 -623q4 -18 13 -53q25 -71 114 -71zM564 1319q-10 -87 -86 -337q-78 -259 -113 -394h442q-49 221 -213 731h-30zM606 1948q-57 0 -97 -37t-40 -94t39.5 -94t97.5 -37q57 0 96 37t39 94q0 56 -39.5 93.5t-95.5 37.5zM606 2073
q107 0 179.5 -74.5t72.5 -181.5q0 -108 -72 -183t-180 -75t-181 75t-73 183t73 182t181 74z" />
    <glyph glyph-name="AE" unicode="&#xc6;" horiz-adv-x="1804" 
d="M864 1188q0 72 -6 92q-13 45 -67 45q-59 0 -160 -222q-36 -80 -113 -239h346v324zM702 1479h1031q-19 -115 -65 -165t-159 -71q9 25 9 41q0 28 -33.5 39.5t-200.5 11.5q-119 0 -143.5 -18.5t-24.5 -83.5v-330h324q54 0 126 18q-28 -100 -60 -129q-38 -36 -136 -36h-254
v-439q0 -107 35 -131q41 -28 315 -28q187 0 267 28q-25 -118 -65 -152t-159 -34h-690q45 94 45 211v508h-415q-197 -412 -197 -512q0 -37 14 -49.5t53 -16.5q-24 -88 -46 -111q-30 -30 -113 -30h-187q23 33 126 280q173 413 357 769q99 192 99 229q0 55 -77 57q25 98 75 125
q36 19 149 19z" />
    <glyph glyph-name="Ccedilla" unicode="&#xc7;" horiz-adv-x="1081" 
d="M1075 1370q-39 -84 -97 -117q-49 -28 -150 -38q18 38 18 63q0 40 -49 64q-39 20 -84 20q-194 0 -284 -222q-64 -160 -64 -388q0 -613 385 -613q159 0 288 111q2 -12 2 -35q0 -240 -354 -240q-303 0 -461 235q-135 201 -135 521q0 350 168 561t444 211q195 0 373 -133z
M568 0h88v-96q247 0 247 -180q0 -197 -258 -197q-90 0 -258 43v108q160 -38 254 -38q109 0 109 75q0 87 -125 87q-24 0 -57 -3v201z" />
    <glyph glyph-name="Egrave" unicode="&#xc8;" horiz-adv-x="1159" 
d="M276 1479h809q-19 -113 -62 -162q-46 -52 -155 -74q9 25 9 39q0 29 -36.5 41t-201.5 12q-123 0 -148.5 -19t-25.5 -83v-330h328q59 0 122 18q-28 -99 -57 -128q-38 -37 -133 -37h-260v-439q0 -105 37 -129q46 -30 323 -30q183 0 260 28q-26 -117 -63 -150
q-41 -36 -158 -36h-686q45 90 45 211v975q0 75 -27 106.5t-101 36.5q20 91 54.5 120.5t126.5 29.5zM308 1972h153q69 0 101 -57l170 -301h-125z" />
    <glyph glyph-name="Eacute" unicode="&#xc9;" horiz-adv-x="1159" 
d="M276 1479h809q-19 -113 -62 -162q-46 -52 -155 -74q9 25 9 39q0 29 -36.5 41t-201.5 12q-123 0 -148.5 -19t-25.5 -83v-330h328q59 0 122 18q-28 -99 -57 -128q-38 -37 -133 -37h-260v-439q0 -105 37 -129q46 -30 323 -30q183 0 260 28q-26 -117 -63 -150
q-41 -36 -158 -36h-686q45 90 45 211v975q0 75 -27 106.5t-101 36.5q20 91 54.5 120.5t126.5 29.5zM699 1972h153l-299 -358h-125l170 301q32 57 101 57z" />
    <glyph glyph-name="Ecircumflex" unicode="&#xca;" horiz-adv-x="1159" 
d="M276 1479h809q-19 -113 -62 -162q-46 -52 -155 -74q9 25 9 39q0 29 -36.5 41t-201.5 12q-123 0 -148.5 -19t-25.5 -83v-330h328q59 0 122 18q-28 -99 -57 -128q-38 -37 -133 -37h-260v-439q0 -105 37 -129q46 -30 323 -30q183 0 260 28q-26 -117 -63 -150
q-41 -36 -158 -36h-686q45 90 45 211v975q0 75 -27 106.5t-101 36.5q20 91 54.5 120.5t126.5 29.5zM490 1922h208l195 -358h-125l-174 225l-174 -225h-127z" />
    <glyph glyph-name="Edieresis" unicode="&#xcb;" horiz-adv-x="1159" 
d="M276 1479h809q-19 -113 -62 -162q-46 -52 -155 -74q9 25 9 39q0 29 -36.5 41t-201.5 12q-123 0 -148.5 -19t-25.5 -83v-330h328q59 0 122 18q-28 -99 -57 -128q-38 -37 -133 -37h-260v-439q0 -105 37 -129q46 -30 323 -30q183 0 260 28q-26 -117 -63 -150
q-41 -36 -158 -36h-686q45 90 45 211v975q0 75 -27 106.5t-101 36.5q20 91 54.5 120.5t126.5 29.5zM777 1886h122l-49 -136q-26 -71 -118 -71h-125l49 136q26 71 121 71zM428 1886h123l-49 -135q-26 -72 -121 -72h-123l50 136q26 71 120 71z" />
    <glyph glyph-name="Igrave" unicode="&#xcc;" horiz-adv-x="688" 
d="M514 1483q-49 -106 -49 -235v-945q0 -80 19 -110q26 -40 104 -48q-26 -86 -50 -110q-32 -35 -112 -35h-250q47 94 47 223v951q0 79 -21 112q-26 43 -103 51q21 74 40 101q31 45 92 45q31 0 92.5 -2t92.5 -2q63 0 98 4zM72 1972h153q69 0 101 -57l170 -301h-125z" />
    <glyph glyph-name="Iacute" unicode="&#xcd;" horiz-adv-x="688" 
d="M514 1483q-49 -106 -49 -235v-945q0 -80 19 -110q26 -40 104 -48q-26 -86 -50 -110q-32 -35 -112 -35h-250q47 94 47 223v951q0 79 -21 112q-26 43 -103 51q21 74 40 101q31 45 92 45q31 0 92.5 -2t92.5 -2q63 0 98 4zM463 1972h153l-299 -358h-125l170 301q32 57 101 57
z" />
    <glyph glyph-name="Icircumflex" unicode="&#xce;" horiz-adv-x="688" 
d="M514 1483q-49 -106 -49 -235v-945q0 -80 19 -110q26 -40 104 -48q-26 -86 -50 -110q-32 -35 -112 -35h-250q47 94 47 223v951q0 79 -21 112q-26 43 -103 51q21 74 40 101q31 45 92 45q31 0 92.5 -2t92.5 -2q63 0 98 4zM240 1972h208l195 -358h-125l-174 225l-174 -225
h-127z" />
    <glyph glyph-name="Idieresis" unicode="&#xcf;" horiz-adv-x="688" 
d="M514 1483q-49 -106 -49 -235v-945q0 -80 19 -110q26 -40 104 -48q-26 -86 -50 -110q-32 -35 -112 -35h-250q47 94 47 223v951q0 79 -21 112q-26 43 -103 51q21 74 40 101q31 45 92 45q31 0 92.5 -2t92.5 -2q63 0 98 4zM541 1886h122l-49 -136q-26 -71 -118 -71h-125
l49 136q26 71 121 71zM192 1886h123l-49 -135q-26 -72 -121 -72h-123l50 136q26 71 120 71z" />
    <glyph glyph-name="Eth" unicode="&#xd0;" horiz-adv-x="1389" 
d="M209 2q43 94 43 205v528h-136v129h136v328q0 76 -25.5 104.5t-97.5 34.5q10 94 92 131q76 35 344 35q288 0 420 -76q313 -181 313 -690q0 -343 -142 -535q-162 -216 -492 -216q-67 0 -201 13t-201 13q-8 0 -53 -4zM494 317q0 -208 165 -208q204 0 303 228q74 169 74 404
q0 238 -74 403q-99 222 -307 222q-91 0 -129 -50q-32 -43 -32 -138v-314h237v-129h-237v-418z" />
    <glyph glyph-name="Ntilde" unicode="&#xd1;" horiz-adv-x="1436" 
d="M274 1479h195q-2 -33 -2 -19q0 -37 37 -104l483 -877q35 -70 105 -211q-21 109 -21 203v668q0 105 -22 140q-30 46 -127 46q18 93 51.5 123.5t126.5 30.5h172q-51 -69 -51 -235v-920q0 -91 20 -128q27 -53 109 -57q-19 -85 -54 -112t-122 -27h-203q4 16 4 27q0 31 -27 79
l-499 889q-19 35 -94 198q18 -137 18 -210v-661q0 -91 27 -130q32 -47 118 -47q-24 -88 -53 -114q-34 -31 -121 -31h-158q37 74 37 247v929q0 79 -21 110q-26 41 -104 45q26 92 53 117q33 31 123 31zM926 1905h100q-55 -218 -207 -218q-39 0 -112.5 25t-102.5 25
q-64 0 -92 -70h-100q48 209 205 209q39 0 109 -23.5t106 -23.5q72 0 94 76z" />
    <glyph glyph-name="Ograve" unicode="&#xd2;" horiz-adv-x="1362" 
d="M680 1358q-185 0 -263 -233q-52 -154 -52 -386t52 -385q78 -233 263 -233t263 233q52 153 52 385t-52 386q-78 233 -263 233zM680 1503q265 0 430 -208q162 -207 162 -556q0 -312 -136 -520q-159 -244 -456 -244q-296 0 -455 244q-135 208 -135 520q0 351 162.5 557.5
t427.5 206.5zM410 1972h153q69 0 101 -57l170 -301h-125z" />
    <glyph glyph-name="Oacute" unicode="&#xd3;" horiz-adv-x="1362" 
d="M680 1358q-185 0 -263 -233q-52 -154 -52 -386t52 -385q78 -233 263 -233t263 233q52 153 52 385t-52 386q-78 233 -263 233zM680 1503q265 0 430 -208q162 -207 162 -556q0 -312 -136 -520q-159 -244 -456 -244q-296 0 -455 244q-135 208 -135 520q0 351 162.5 557.5
t427.5 206.5zM801 1972h153l-299 -358h-125l170 301q32 57 101 57z" />
    <glyph glyph-name="Ocircumflex" unicode="&#xd4;" horiz-adv-x="1362" 
d="M680 1358q-185 0 -263 -233q-52 -154 -52 -386t52 -385q78 -233 263 -233t263 233q52 153 52 385t-52 386q-78 233 -263 233zM680 1503q265 0 430 -208q162 -207 162 -556q0 -312 -136 -520q-159 -244 -456 -244q-296 0 -455 244q-135 208 -135 520q0 351 162.5 557.5
t427.5 206.5zM580 1922h208l195 -358h-125l-174 225l-174 -225h-127z" />
    <glyph glyph-name="Otilde" unicode="&#xd5;" horiz-adv-x="1362" 
d="M680 1358q-185 0 -263 -233q-52 -154 -52 -386t52 -385q78 -233 263 -233t263 233q52 153 52 385t-52 386q-78 233 -263 233zM680 1503q265 0 430 -208q162 -207 162 -556q0 -312 -136 -520q-159 -244 -456 -244q-296 0 -455 244q-135 208 -135 520q0 351 162.5 557.5
t427.5 206.5zM889 1905h100q-55 -218 -207 -218q-39 0 -112.5 25t-102.5 25q-64 0 -92 -70h-100q48 209 205 209q39 0 109 -23.5t106 -23.5q72 0 94 76z" />
    <glyph glyph-name="Odieresis" unicode="&#xd6;" horiz-adv-x="1362" 
d="M680 1358q-185 0 -263 -233q-52 -154 -52 -386t52 -385q78 -233 263 -233t263 233q52 153 52 385t-52 386q-78 233 -263 233zM680 1503q265 0 430 -208q162 -207 162 -556q0 -312 -136 -520q-159 -244 -456 -244q-296 0 -455 244q-135 208 -135 520q0 351 162.5 557.5
t427.5 206.5zM879 1886h122l-49 -136q-26 -71 -118 -71h-125l49 136q26 71 121 71zM530 1886h123l-49 -135q-26 -72 -121 -72h-123l50 136q26 71 120 71z" />
    <glyph glyph-name="multiply" unicode="&#xd7;" horiz-adv-x="1706" 
d="M862 729l461 459l117 -117l-459 -461l459 -458l-117 -119l-461 461l-459 -461l-116 119l458 458l-458 461l116 117z" />
    <glyph glyph-name="Oslash" unicode="&#xd8;" horiz-adv-x="1362" 
d="M963 1079q-240 -344 -519 -813q93 -151 240 -151q181 0 266 212q62 152 62 365q0 263 -49 387zM913 1217q-88 147 -237 147q-191 0 -274 -233q-56 -157 -56 -392q0 -201 51 -336q261 384 516 814zM1106 1503h145l-143 -207q162 -205 162 -561q0 -315 -138 -521
q-160 -239 -460 -239q-184 0 -342 123l-82 -123h-139l143 205q-162 222 -162 572q0 341 163 546t427 205q181 0 346 -121z" />
    <glyph glyph-name="Ugrave" unicode="&#xd9;" horiz-adv-x="1376" 
d="M248 1479h270q-100 -244 -100 -715q0 -629 334 -629q325 0 325 653q0 362 -39 450q-43 94 -147 100q26 85 47 108q31 33 111 33h190q-41 -88 -41 -224q0 -80 7 -239.5t7 -239.5q0 -349 -88 -536q-124 -263 -432 -263q-292 0 -423 257q-99 195 -99 518q0 113 9 264.5
t9 179.5q0 70 -26 99.5t-96 39.5q25 88 59 116t123 28zM416 1972h153q69 0 101 -57l170 -301h-125z" />
    <glyph glyph-name="Uacute" unicode="&#xda;" horiz-adv-x="1376" 
d="M248 1479h270q-100 -244 -100 -715q0 -629 334 -629q325 0 325 653q0 362 -39 450q-43 94 -147 100q26 85 47 108q31 33 111 33h190q-41 -88 -41 -224q0 -80 7 -239.5t7 -239.5q0 -349 -88 -536q-124 -263 -432 -263q-292 0 -423 257q-99 195 -99 518q0 113 9 264.5
t9 179.5q0 70 -26 99.5t-96 39.5q25 88 59 116t123 28zM807 1972h153l-299 -358h-125l170 301q32 57 101 57z" />
    <glyph glyph-name="Ucircumflex" unicode="&#xdb;" horiz-adv-x="1376" 
d="M248 1479h270q-100 -244 -100 -715q0 -629 334 -629q325 0 325 653q0 362 -39 450q-43 94 -147 100q26 85 47 108q31 33 111 33h190q-41 -88 -41 -224q0 -80 7 -239.5t7 -239.5q0 -349 -88 -536q-124 -263 -432 -263q-292 0 -423 257q-99 195 -99 518q0 113 9 264.5
t9 179.5q0 70 -26 99.5t-96 39.5q25 88 59 116t123 28zM584 1972h208l195 -358h-125l-174 225l-174 -225h-127z" />
    <glyph glyph-name="Udieresis" unicode="&#xdc;" horiz-adv-x="1376" 
d="M248 1479h270q-100 -244 -100 -715q0 -629 334 -629q325 0 325 653q0 362 -39 450q-43 94 -147 100q26 85 47 108q31 33 111 33h190q-41 -88 -41 -224q0 -80 7 -239.5t7 -239.5q0 -349 -88 -536q-124 -263 -432 -263q-292 0 -423 257q-99 195 -99 518q0 113 9 264.5
t9 179.5q0 70 -26 99.5t-96 39.5q25 88 59 116t123 28zM885 1886h122l-49 -136q-26 -71 -118 -71h-125l49 136q26 71 121 71zM536 1886h123l-49 -135q-26 -72 -121 -72h-123l50 136q26 71 120 71z" />
    <glyph glyph-name="Yacute" unicode="&#xdd;" horiz-adv-x="1036" 
d="M113 1479h171q-5 -25 -5 -39q0 -37 45 -131l139 -289q42 -87 119 -264l190 444q19 44 19 76q0 55 -99 55q31 91 60 117q36 31 127 31h184q-45 -77 -86 -168l-322 -715v-283q0 -88 18 -119q25 -41 105 -49q-27 -85 -51 -110q-33 -35 -113 -35h-249q49 102 49 216v380
l-301 606q-35 70 -70 98q-42 33 -113 33q22 88 57.5 117t125.5 29zM637 1972h153l-299 -358h-125l170 301q32 57 101 57z" />
    <glyph glyph-name="Thorn" unicode="&#xde;" horiz-adv-x="1182" 
d="M460 772q0 -289 168 -289q117 0 176 116q47 91 47 220q0 120 -52 207q-62 104 -175 104q-101 0 -138 -67q-26 -47 -26 -154v-137zM284 1479h227q-47 -92 -47 -242q78 16 158 16q220 0 347 -107q136 -115 136 -331q0 -204 -119 -335q-123 -136 -325 -136q-123 0 -199 68
v-109q0 -88 23 -118q28 -38 118 -38q-23 -86 -49 -113q-33 -34 -115 -34h-262q43 103 43 244v934q0 78 -21 113q-28 46 -103 50q18 79 63 110q41 28 125 28z" />
    <glyph glyph-name="germandbls" unicode="&#xdf;" horiz-adv-x="1307" 
d="M497 147q21 70 58 103t110 49q1 -86 61 -140.5t147 -54.5q72 0 122.5 40.5t50.5 111.5t-128 192l-236 224q-128 139 -128 252q0 72 44 127q22 28 89 80q55 43 68.5 74t13.5 85q0 201 -160 201q-174 0 -174 -203v-1288h-260q43 94 43 246v774h-53q-60 0 -108 -14
q26 86 38 108q32 55 90 55h33v111q0 354 375 354q186 0 275 -73q98 -81 98 -263q0 -57 -11 -92q-13 -43 -105 -131q-83 -79 -83 -131q0 -69 188 -236q217 -194 250 -250q45 -77 45 -165q0 -145 -105 -234q-99 -84 -247 -84q-235 0 -401 172z" />
    <glyph glyph-name="agrave" unicode="&#xe0;" 
d="M1056 133q-21 -74 -43 -98q-34 -37 -134 -37q-73 0 -131 -16q6 54 6 145q-120 -150 -299 -150q-175 0 -277 133q-92 122 -92 302q0 190 101 307q107 123 294 123q163 0 262 -131q2 20 2 59q0 155 -72.5 225t-228.5 70q-123 0 -266 -41q34 104 88.5 139t225.5 35
q254 0 363 -129q101 -119 101 -379v-409q0 -79 12 -104q20 -42 88 -44zM532 698q-110 0 -170 -88q-51 -76 -51 -192q0 -117 52 -198q61 -95 172 -95q114 0 170 96q45 78 45 201q0 116 -50 190q-57 86 -168 86zM291 1669h153q69 0 101 -57l170 -301h-125z" />
    <glyph glyph-name="aacute" unicode="&#xe1;" 
d="M1056 133q-21 -74 -43 -98q-34 -37 -134 -37q-73 0 -131 -16q6 54 6 145q-120 -150 -299 -150q-175 0 -277 133q-92 122 -92 302q0 190 101 307q107 123 294 123q163 0 262 -131q2 20 2 59q0 155 -72.5 225t-228.5 70q-123 0 -266 -41q34 104 88.5 139t225.5 35
q254 0 363 -129q101 -119 101 -379v-409q0 -79 12 -104q20 -42 88 -44zM532 698q-110 0 -170 -88q-51 -76 -51 -192q0 -117 52 -198q61 -95 172 -95q114 0 170 96q45 78 45 201q0 116 -50 190q-57 86 -168 86zM682 1669h153l-299 -358h-125l170 301q32 57 101 57z" />
    <glyph glyph-name="acircumflex" unicode="&#xe2;" 
d="M1056 133q-21 -74 -43 -98q-34 -37 -134 -37q-73 0 -131 -16q6 54 6 145q-120 -150 -299 -150q-175 0 -277 133q-92 122 -92 302q0 190 101 307q107 123 294 123q163 0 262 -131q2 20 2 59q0 155 -72.5 225t-228.5 70q-123 0 -266 -41q34 104 88.5 139t225.5 35
q254 0 363 -129q101 -119 101 -379v-409q0 -79 12 -104q20 -42 88 -44zM532 698q-110 0 -170 -88q-51 -76 -51 -192q0 -117 52 -198q61 -95 172 -95q114 0 170 96q45 78 45 201q0 116 -50 190q-57 86 -168 86zM459 1669h208l195 -358h-125l-174 225l-174 -225h-127z" />
    <glyph glyph-name="atilde" unicode="&#xe3;" 
d="M1056 133q-21 -74 -43 -98q-34 -37 -134 -37q-73 0 -131 -16q6 54 6 145q-120 -150 -299 -150q-175 0 -277 133q-92 122 -92 302q0 190 101 307q107 123 294 123q163 0 262 -131q2 20 2 59q0 155 -72.5 225t-228.5 70q-123 0 -266 -41q34 104 88.5 139t225.5 35
q254 0 363 -129q101 -119 101 -379v-409q0 -79 12 -104q20 -42 88 -44zM532 698q-110 0 -170 -88q-51 -76 -51 -192q0 -117 52 -198q61 -95 172 -95q114 0 170 96q45 78 45 201q0 116 -50 190q-57 86 -168 86zM770 1602h100q-55 -218 -207 -218q-39 0 -112.5 25t-102.5 25
q-64 0 -92 -70h-100q48 209 205 209q39 0 109 -23.5t106 -23.5q72 0 94 76z" />
    <glyph glyph-name="adieresis" unicode="&#xe4;" 
d="M1056 133q-21 -74 -43 -98q-34 -37 -134 -37q-73 0 -131 -16q6 54 6 145q-120 -150 -299 -150q-175 0 -277 133q-92 122 -92 302q0 190 101 307q107 123 294 123q163 0 262 -131q2 20 2 59q0 155 -72.5 225t-228.5 70q-123 0 -266 -41q34 104 88.5 139t225.5 35
q254 0 363 -129q101 -119 101 -379v-409q0 -79 12 -104q20 -42 88 -44zM532 698q-110 0 -170 -88q-51 -76 -51 -192q0 -117 52 -198q61 -95 172 -95q114 0 170 96q45 78 45 201q0 116 -50 190q-57 86 -168 86zM760 1583h122l-49 -136q-26 -71 -118 -71h-125l49 136
q26 71 121 71zM411 1583h123l-49 -135q-26 -72 -121 -72h-123l50 136q26 71 120 71z" />
    <glyph glyph-name="aring" unicode="&#xe5;" 
d="M1056 133q-26 -91 -68 -117q-27 -17 -97 -18q-86 0 -141 -16q4 52 4 145q-117 -147 -299 -147q-176 0 -277 132q-92 119 -92 300q0 190 101 307q107 123 294 123q163 0 262 -131q2 20 2 59q0 155 -73 225t-228 70q-123 0 -266 -41q34 103 88.5 138.5t225.5 35.5
q254 0 363 -129q101 -119 101 -379v-409q0 -78 12 -104q20 -42 88 -44zM532 698q-110 0 -170 -88q-51 -76 -51 -192q0 -117 52 -198q61 -95 172 -95q114 0 170 96q45 78 45 201q0 116 -50 190q-57 86 -168 86zM545 1653q-56 0 -93.5 -37.5t-37.5 -93.5t37.5 -93.5
t93.5 -37.5t93.5 37.5t37.5 93.5q0 55 -38 93t-93 38zM545 1780q108 0 183 -74t75 -182q0 -109 -74.5 -183.5t-183.5 -74.5q-110 0 -183 74t-73 184q0 108 74 182t182 74z" />
    <glyph glyph-name="ae" unicode="&#xe6;" horiz-adv-x="1710" 
d="M1415 872q0 78 -53.5 132.5t-130.5 54.5q-134 0 -209 -137q-61 -113 -61 -258q0 -49 12 -117l272 117q170 73 170 208zM532 698q-110 0 -170 -88q-51 -76 -51 -192q0 -117 52 -197q61 -94 172 -94q114 0 170 95q45 78 45 200q0 116 -50 190q-57 86 -168 86zM1657 948
q-28 -161 -84 -240q-62 -86 -205 -149l-358 -158q89 -274 333 -274q43 0 123 18.5t113 18.5q51 0 92 -76q-180 -108 -385 -108q-312 0 -446 256q-46 -118 -145 -187t-224 -69q-184 0 -288 125q-97 117 -97 305q0 184 99 304q106 128 286 128q174 0 272 -131q2 20 2 59
q0 155 -72.5 225t-228.5 70q-123 0 -266 -41q33 103 86.5 138.5t227.5 35.5q311 0 391 -186q138 186 358 186q189 0 320 -154q32 -40 96 -96z" />
    <glyph glyph-name="ccedilla" unicode="&#xe7;" horiz-adv-x="944" 
d="M940 1081q-50 -97 -78 -122q-43 -39 -133 -39q4 13 4 26q0 58 -50 90q-43 29 -103 29q-142 0 -214 -170q-55 -129 -55 -293q0 -178 62 -305q80 -166 239 -166q56 0 147 37t107 37q28 0 74 -58q-137 -172 -365 -172q-242 0 -378 184q-121 165 -121 416q0 258 128 432
q143 193 392 193q171 0 344 -119zM500 0h88v-96q247 0 247 -180q0 -197 -258 -197q-90 0 -258 43v108q160 -38 254 -38q109 0 109 75q0 87 -125 87q-24 0 -57 -3v201z" />
    <glyph glyph-name="egrave" unicode="&#xe8;" horiz-adv-x="1051" 
d="M756 872q0 78 -54 132.5t-131 54.5q-133 0 -209 -139q-61 -113 -61 -258q0 -49 12 -115l271 117q172 74 172 208zM997 948q-28 -160 -84 -240q-62 -86 -204 -149l-359 -158q85 -272 330 -272q43 0 122.5 19.5t110.5 19.5q52 0 99 -80q-184 -111 -389 -111
q-258 0 -407 193q-136 176 -136 442q0 239 126 404q138 182 369 182q185 0 318 -147q35 -43 104 -103zM289 1669h153q69 0 101 -57l170 -301h-125z" />
    <glyph glyph-name="eacute" unicode="&#xe9;" horiz-adv-x="1051" 
d="M756 872q0 78 -54 132.5t-131 54.5q-133 0 -209 -139q-61 -113 -61 -258q0 -49 12 -115l271 117q172 74 172 208zM997 948q-28 -160 -84 -240q-62 -86 -204 -149l-359 -158q85 -272 330 -272q43 0 122.5 19.5t110.5 19.5q52 0 99 -80q-184 -111 -389 -111
q-258 0 -407 193q-136 176 -136 442q0 239 126 404q138 182 369 182q185 0 318 -147q35 -43 104 -103zM680 1669h153l-299 -358h-125l170 301q32 57 101 57z" />
    <glyph glyph-name="ecircumflex" unicode="&#xea;" horiz-adv-x="1051" 
d="M756 872q0 78 -54 132.5t-131 54.5q-133 0 -209 -139q-61 -113 -61 -258q0 -49 12 -115l271 117q172 74 172 208zM997 948q-28 -160 -84 -240q-62 -86 -204 -149l-359 -158q85 -272 330 -272q43 0 122.5 19.5t110.5 19.5q52 0 99 -80q-184 -111 -389 -111
q-258 0 -407 193q-136 176 -136 442q0 239 126 404q138 182 369 182q185 0 318 -147q35 -43 104 -103zM457 1669h208l195 -358h-125l-174 225l-174 -225h-127z" />
    <glyph glyph-name="edieresis" unicode="&#xeb;" horiz-adv-x="1051" 
d="M756 872q0 78 -54 132.5t-131 54.5q-133 0 -209 -139q-61 -113 -61 -258q0 -49 12 -115l271 117q172 74 172 208zM997 948q-28 -160 -84 -240q-62 -86 -204 -149l-359 -158q85 -272 330 -272q43 0 122.5 19.5t110.5 19.5q52 0 99 -80q-184 -111 -389 -111
q-258 0 -407 193q-136 176 -136 442q0 239 126 404q138 182 369 182q185 0 318 -147q35 -43 104 -103zM758 1583h122l-49 -136q-26 -71 -118 -71h-125l49 136q26 71 121 71zM409 1583h123l-49 -135q-26 -72 -121 -72h-123l50 136q26 71 120 71z" />
    <glyph glyph-name="igrave" unicode="&#xec;" horiz-adv-x="598" 
d="M233 1176h216q-41 -78 -41 -219v-660q0 -77 16 -109q22 -47 90 -51q-23 -77 -51 -104q-34 -33 -109 -33h-207q41 80 41 218v661q0 75 -16 108q-23 47 -90 51q24 76 48 102q33 36 103 36zM27 1669h153q69 0 101 -57l170 -301h-125z" />
    <glyph glyph-name="iacute" unicode="&#xed;" horiz-adv-x="598" 
d="M233 1176h216q-41 -78 -41 -219v-660q0 -77 16 -109q22 -47 90 -51q-23 -77 -51 -104q-34 -33 -109 -33h-207q41 80 41 218v661q0 75 -16 108q-23 47 -90 51q24 76 48 102q33 36 103 36zM418 1669h153l-299 -358h-125l170 301q32 57 101 57z" />
    <glyph glyph-name="icircumflex" unicode="&#xee;" horiz-adv-x="598" 
d="M233 1176h216q-41 -78 -41 -219v-660q0 -77 16 -109q22 -47 90 -51q-23 -77 -51 -104q-34 -33 -109 -33h-207q41 80 41 218v661q0 75 -16 108q-23 47 -90 51q24 76 48 102q33 36 103 36zM195 1669h208l195 -358h-125l-174 225l-174 -225h-127z" />
    <glyph glyph-name="idieresis" unicode="&#xef;" horiz-adv-x="598" 
d="M233 1176h216q-41 -78 -41 -219v-660q0 -77 16 -109q22 -47 90 -51q-23 -77 -51 -104q-34 -33 -109 -33h-207q41 80 41 218v661q0 75 -16 108q-23 47 -90 51q24 76 48 102q33 36 103 36zM496 1583h122l-49 -136q-26 -71 -118 -71h-125l49 136q26 71 121 71zM147 1583h123
l-49 -135q-26 -72 -121 -72h-123l50 136q26 71 120 71z" />
    <glyph glyph-name="eth" unicode="&#xf0;" horiz-adv-x="1085" 
d="M543 938q-130 0 -188 -148q-40 -103 -40 -258q0 -417 228 -417q227 0 227 411q0 157 -39 261q-58 151 -188 151zM461 1642q117 -82 221 -196l211 108l55 -102l-196 -102q247 -419 247 -820q0 -238 -103 -384q-119 -169 -347 -169q-234 0 -356 168q-107 147 -107 390
q0 231 107 376q120 162 344 162q93 0 151 -29q-28 114 -94 228l-195 -101l-51 107l191 98q-69 99 -158 178z" />
    <glyph glyph-name="ntilde" unicode="&#xf1;" horiz-adv-x="1192" 
d="M1128 137q-23 -78 -45 -103q-31 -34 -104 -34h-219q43 98 43 231v562q0 262 -187 262q-206 0 -206 -293v-465q0 -76 16 -109q23 -47 90 -51q-22 -75 -47 -102q-34 -35 -104 -35h-218q43 84 43 227v680q0 70 -16 94q-21 32 -86 36q22 89 50 115q24 23 93 26q52 2 105 5
q31 4 63 13q-6 -40 -14 -145q111 149 297 149q197 0 278 -143q62 -110 62 -326v-444q0 -78 15 -105q21 -38 91 -45zM803 1602h100q-55 -218 -207 -218q-39 0 -112.5 25t-102.5 25q-64 0 -92 -70h-100q48 209 205 209q39 0 109 -23.5t106 -23.5q72 0 94 76z" />
    <glyph glyph-name="ograve" unicode="&#xf2;" horiz-adv-x="1085" 
d="M543 1053q-230 0 -230 -465q0 -463 230 -463q229 0 229 463q0 465 -229 465zM543 1200q241 0 364 -194q103 -163 103 -418q0 -256 -102 -419q-123 -194 -365 -194q-243 0 -365 194q-102 162 -102 419q0 256 103 418q122 194 364 194zM271 1669h153q69 0 101 -57l170 -301
h-125z" />
    <glyph glyph-name="oacute" unicode="&#xf3;" horiz-adv-x="1085" 
d="M543 1053q-230 0 -230 -465q0 -463 230 -463q229 0 229 463q0 465 -229 465zM543 1200q241 0 364 -194q103 -163 103 -418q0 -256 -102 -419q-123 -194 -365 -194q-243 0 -365 194q-102 162 -102 419q0 256 103 418q122 194 364 194zM662 1669h153l-299 -358h-125
l170 301q32 57 101 57z" />
    <glyph glyph-name="ocircumflex" unicode="&#xf4;" horiz-adv-x="1085" 
d="M543 1053q-230 0 -230 -465q0 -463 230 -463q229 0 229 463q0 465 -229 465zM543 1200q241 0 364 -194q103 -163 103 -418q0 -256 -102 -419q-123 -194 -365 -194q-243 0 -365 194q-102 162 -102 419q0 256 103 418q122 194 364 194zM439 1669h208l195 -358h-125
l-174 225l-174 -225h-127z" />
    <glyph glyph-name="otilde" unicode="&#xf5;" horiz-adv-x="1085" 
d="M543 1053q-230 0 -230 -465q0 -463 230 -463q229 0 229 463q0 465 -229 465zM543 1200q241 0 364 -194q103 -163 103 -418q0 -256 -102 -419q-123 -194 -365 -194q-243 0 -365 194q-102 162 -102 419q0 256 103 418q122 194 364 194zM750 1602h100q-55 -218 -207 -218
q-39 0 -112.5 25t-102.5 25q-64 0 -92 -70h-100q48 209 205 209q39 0 109 -23.5t106 -23.5q72 0 94 76z" />
    <glyph glyph-name="odieresis" unicode="&#xf6;" horiz-adv-x="1085" 
d="M543 1053q-230 0 -230 -465q0 -463 230 -463q229 0 229 463q0 465 -229 465zM543 1200q241 0 364 -194q103 -163 103 -418q0 -256 -102 -419q-123 -194 -365 -194q-243 0 -365 194q-102 162 -102 419q0 256 103 418q122 194 364 194zM740 1583h122l-49 -136
q-26 -71 -118 -71h-125l49 136q26 71 121 71zM391 1583h123l-49 -135q-26 -72 -121 -72h-123l50 136q26 71 120 71z" />
    <glyph glyph-name="divide" unicode="&#xf7;" horiz-adv-x="1706" 
d="M854 367q57 0 97 -40.5t40 -97.5t-40 -96t-97 -39q-58 0 -97.5 38.5t-39.5 96.5q0 57 40 97.5t97 40.5zM1452 694v-166h-1198v166h1198zM854 1128q57 0 97 -41t40 -98t-40 -96t-97 -39q-58 0 -97.5 38.5t-39.5 96.5q0 57 40 98t97 41z" />
    <glyph glyph-name="oslash" unicode="&#xf8;" horiz-adv-x="1085" 
d="M752 846q-185 -301 -373 -633q68 -96 160 -96q241 0 241 465q0 150 -28 264zM707 967q-69 92 -160 92q-242 0 -242 -457q0 -146 29 -270q143 229 373 635zM866 1210h125l-108 -170q125 -167 125 -444q0 -261 -102 -425q-123 -196 -369 -196q-159 0 -261 88l-61 -100h-123
l111 174q-125 155 -125 469q0 249 108 409q125 185 363 185q138 0 258 -86z" />
    <glyph glyph-name="ugrave" unicode="&#xf9;" horiz-adv-x="1192" 
d="M215 1176h219q-45 -106 -45 -232v-561q0 -262 189 -262q206 0 206 293v465q0 75 -16 108q-23 47 -90 51q24 76 48 102q33 36 103 36h215q-40 -80 -40 -228v-680q0 -69 16 -94q21 -32 86 -35q-24 -90 -59 -120q-25 -22 -80 -22q-7 0 -22 1h-23q-67 0 -123 -18l8 145
q-110 -150 -299 -150q-198 0 -277 143q-59 108 -59 326v445q0 77 -16 105q-21 38 -90 45q23 78 46 103q31 34 103 34zM324 1669h153q69 0 101 -57l170 -301h-125z" />
    <glyph glyph-name="uacute" unicode="&#xfa;" horiz-adv-x="1192" 
d="M215 1176h219q-45 -106 -45 -232v-561q0 -262 189 -262q206 0 206 293v465q0 75 -16 108q-23 47 -90 51q24 76 48 102q33 36 103 36h215q-40 -80 -40 -228v-680q0 -69 16 -94q21 -32 86 -35q-24 -90 -59 -120q-25 -22 -80 -22q-7 0 -22 1h-23q-67 0 -123 -18l8 145
q-110 -150 -299 -150q-198 0 -277 143q-59 108 -59 326v445q0 77 -16 105q-21 38 -90 45q23 78 46 103q31 34 103 34zM715 1669h153l-299 -358h-125l170 301q32 57 101 57z" />
    <glyph glyph-name="ucircumflex" unicode="&#xfb;" horiz-adv-x="1192" 
d="M215 1176h219q-45 -106 -45 -232v-561q0 -262 189 -262q206 0 206 293v465q0 75 -16 108q-23 47 -90 51q24 76 48 102q33 36 103 36h215q-40 -80 -40 -228v-680q0 -69 16 -94q21 -32 86 -35q-24 -90 -59 -120q-25 -22 -80 -22q-7 0 -22 1h-23q-67 0 -123 -18l8 145
q-110 -150 -299 -150q-198 0 -277 143q-59 108 -59 326v445q0 77 -16 105q-21 38 -90 45q23 78 46 103q31 34 103 34zM492 1669h208l195 -358h-125l-174 225l-174 -225h-127z" />
    <glyph glyph-name="udieresis" unicode="&#xfc;" horiz-adv-x="1192" 
d="M215 1176h219q-45 -106 -45 -232v-561q0 -262 189 -262q206 0 206 293v465q0 75 -16 108q-23 47 -90 51q24 76 48 102q33 36 103 36h215q-40 -80 -40 -228v-680q0 -69 16 -94q21 -32 86 -35q-24 -90 -59 -120q-25 -22 -80 -22q-7 0 -22 1h-23q-67 0 -123 -18l8 145
q-110 -150 -299 -150q-198 0 -277 143q-59 108 -59 326v445q0 77 -16 105q-21 38 -90 45q23 78 46 103q31 34 103 34zM793 1583h122l-49 -136q-26 -71 -118 -71h-125l49 136q26 71 121 71zM444 1583h123l-49 -135q-26 -72 -121 -72h-123l50 136q26 71 120 71z" />
    <glyph glyph-name="yacute" unicode="&#xfd;" horiz-adv-x="1036" 
d="M141 1176l176 -1q-8 -45 -8 -67q0 -41 17 -94l174 -539q22 -67 51 -190l231 585q25 63 25 101q0 67 -125 74q24 76 52 101q32 30 108 30h231q-57 -114 -82 -175l-456 -1114q-64 -157 -128 -225q-90 -96 -231 -96q-118 0 -244 53q41 90 88 90q19 0 58 -6t59 -6
q188 0 301 334l-291 860q-26 77 -58 109q-41 40 -114 40q28 81 54 105q33 31 112 31zM637 1669h153l-299 -358h-125l170 301q32 57 101 57z" />
    <glyph glyph-name="thorn" unicode="&#xfe;" horiz-adv-x="1196" 
d="M383 537q0 -149 48 -258q65 -144 196 -144q252 0 252 500q0 160 -46 268q-64 150 -202 150q-133 0 -198 -135q-50 -104 -50 -252v-129zM379 1042q111 156 301 156q220 0 337 -196q97 -162 97 -398q0 -250 -90 -411q-113 -203 -342 -203q-180 0 -295 133v-244
q0 -83 14 -114q22 -46 94 -54q-16 -73 -44 -99q-31 -30 -103 -30h-221q43 121 43 246v1587q0 123 -35 199q8 0 26 1t27 1q108 0 147 -30q44 -36 44 -140v-404z" />
    <glyph glyph-name="ydieresis" unicode="&#xff;" horiz-adv-x="1036" 
d="M141 1176l176 -1q-8 -45 -8 -67q0 -41 17 -94l174 -539q22 -67 51 -190l231 585q25 63 25 101q0 67 -125 74q24 76 52 101q32 30 108 30h231q-57 -114 -82 -175l-456 -1114q-64 -157 -128 -225q-90 -96 -231 -96q-118 0 -244 53q41 90 88 90q19 0 58 -6t59 -6
q188 0 301 334l-291 860q-26 77 -58 109q-41 40 -114 40q28 81 54 105q33 31 112 31zM715 1583h122l-49 -136q-26 -71 -118 -71h-125l49 136q26 71 121 71zM366 1583h123l-49 -135q-26 -72 -121 -72h-123l50 136q26 71 120 71z" />
    <glyph glyph-name="Cacute" unicode="&#x106;" horiz-adv-x="1081" 
d="M1075 1370q-39 -84 -97 -117q-49 -28 -150 -38q18 38 18 63q0 40 -49 64q-39 20 -84 20q-194 0 -284 -222q-64 -160 -64 -388q0 -613 385 -613q159 0 288 111q2 -12 2 -35q0 -240 -354 -240q-303 0 -461 235q-135 201 -135 521q0 350 168 561t444 211q195 0 373 -133z
M750 1972h153l-299 -358h-125l170 301q32 57 101 57z" />
    <glyph glyph-name="cacute" unicode="&#x107;" horiz-adv-x="944" 
d="M940 1081q-50 -97 -78 -122q-43 -39 -133 -39q4 13 4 26q0 58 -50 90q-43 29 -103 29q-142 0 -214 -170q-55 -129 -55 -293q0 -178 62 -305q80 -166 239 -166q56 0 147 37t107 37q28 0 74 -58q-137 -172 -365 -172q-242 0 -378 184q-121 165 -121 416q0 258 128 432
q143 193 392 193q171 0 344 -119zM682 1669h153l-299 -358h-125l170 301q32 57 101 57z" />
    <glyph glyph-name="Ccaron" unicode="&#x10c;" horiz-adv-x="1081" 
d="M1075 1370q-39 -84 -97 -117q-49 -28 -150 -38q18 38 18 63q0 40 -49 64q-39 20 -84 20q-194 0 -284 -222q-64 -160 -64 -388q0 -613 385 -613q159 0 288 111q2 -12 2 -35q0 -240 -354 -240q-303 0 -461 235q-135 201 -135 521q0 350 168 561t444 211q195 0 373 -133z
M330 1972h127l174 -227l174 227h125l-195 -358h-208z" />
    <glyph glyph-name="ccaron" unicode="&#x10d;" horiz-adv-x="944" 
d="M940 1081q-50 -97 -78 -122q-43 -39 -133 -39q4 13 4 26q0 58 -50 90q-43 29 -103 29q-142 0 -214 -170q-55 -129 -55 -293q0 -178 62 -305q80 -166 239 -166q56 0 147 37t107 37q28 0 74 -58q-137 -172 -365 -172q-242 0 -378 184q-121 165 -121 416q0 258 128 432
q143 193 392 193q171 0 344 -119zM262 1669h127l174 -227l174 227h125l-195 -358h-208z" />
    <glyph glyph-name="Dslash" unicode="&#x110;" horiz-adv-x="1389" 
d="M209 2q43 94 43 205v528h-136v129h136v328q0 76 -25.5 104.5t-97.5 34.5q10 94 92 131q76 35 344 35q288 0 420 -76q313 -181 313 -690q0 -343 -142 -535q-162 -216 -492 -216q-67 0 -201 13t-201 13q-8 0 -53 -4zM494 317q0 -208 165 -208q204 0 303 228q74 169 74 404
q0 238 -74 403q-99 222 -307 222q-91 0 -129 -50q-32 -43 -32 -138v-314h237v-129h-237v-418z" />
    <glyph glyph-name="dcroat" unicode="&#x111;" horiz-adv-x="1219" 
d="M811 582q0 150 -50 257q-65 142 -198 142q-139 0 -204 -169q-46 -120 -46 -286q0 -151 51 -257q67 -140 201 -140q132 0 196 131q50 101 50 248v74zM864 1616h205q-45 -121 -45 -273h176v-108h-176v-1042q0 -123 37 -195h-49q-198 0 -203 133q-112 -147 -303 -147
q-184 0 -305 161.5t-121 415.5q0 224 100 382q117 185 328 185q176 0 299 -143v250h-301v108h301v11q0 69 -20 100q-25 39 -91 45q19 78 53 100q29 17 115 17z" />
    <glyph glyph-name="Gbreve" unicode="&#x11e;" horiz-adv-x="1239" 
d="M1151 1329q-52 -87 -136 -120q-65 -25 -179 -25q41 41 41 73q0 50 -55 77q-44 22 -99 22q-198 0 -291 -230q-67 -166 -67 -399q0 -224 70 -383q95 -215 290 -215q95 0 132 65q26 47 26 146q0 17 -1 51.5t-1 50.5q0 94 -68 123q-40 17 -151 17q40 145 135 145q28 0 85 -3
t85 -3q109 0 181 14q-46 -90 -46 -194v-219q0 -145 -28 -203q-38 -80 -163 -117q-85 -25 -209 -25q-304 0 -469 229q-145 202 -145 519q0 326 158 540q177 238 491 238q224 0 414 -174zM324 1935h109q11 -143 188 -143q178 0 189 143h106q-21 -286 -295 -286
q-276 0 -297 286z" />
    <glyph glyph-name="gbreve" unicode="&#x11f;" horiz-adv-x="1196" 
d="M807 715q0 157 -34 229q-50 107 -187 107q-149 0 -217 -155q-50 -113 -50 -284q0 -182 49 -302q69 -169 224 -169q108 0 215 95v479zM844 1075q13 74 96 94q32 7 147 7q-63 -93 -63 -236v-848q0 -148 -16 -222q-35 -154 -169 -235q-119 -71 -286 -71q-209 0 -444 102
q41 94 104 94q43 0 146.5 -25.5t158.5 -25.5q141 0 216 81q73 78 73 220v78q-133 -98 -287 -98q-221 0 -339 196q-97 163 -97 400q0 243 104 412q123 202 351 202q184 0 305 -125zM301 1632h109q11 -143 188 -143q178 0 189 143h106q-21 -286 -295 -286q-276 0 -297 286z
" />
    <glyph glyph-name="Idotaccent" unicode="&#x130;" horiz-adv-x="688" 
d="M514 1483q-49 -106 -49 -235v-945q0 -80 19 -110q26 -40 104 -48q-26 -86 -50 -110q-32 -35 -112 -35h-250q47 94 47 223v951q0 79 -21 112q-26 43 -103 51q21 74 40 101q31 45 92 45q31 0 92.5 -2t92.5 -2q63 0 98 4zM367 1886h122l-49 -136q-26 -71 -119 -71h-122
l49 135q26 72 119 72z" />
    <glyph glyph-name="dotlessi" unicode="&#x131;" horiz-adv-x="598" 
d="M233 1176h216q-41 -78 -41 -219v-660q0 -77 16 -109q22 -47 90 -51q-23 -77 -51 -104q-34 -33 -109 -33h-207q41 80 41 218v661q0 75 -16 108q-23 47 -90 51q24 76 48 102q33 36 103 36z" />
    <glyph glyph-name="Lslash" unicode="&#x141;" horiz-adv-x="1006" 
d="M293 1479h242q-41 -100 -41 -181v-362l247 168v-156l-247 -168v-446q0 -121 46 -155q36 -27 165 -27q245 0 335 59q-34 -112 -63 -150q-47 -61 -143 -61q-70 0 -211 5t-211 5q-81 0 -205 -10q45 98 45 215v440l-191 -131v156l191 131v324q0 104 -16 137q-25 50 -115 59
q25 86 54 114q35 34 118 34z" />
    <glyph glyph-name="lslash" unicode="&#x142;" horiz-adv-x="653" 
d="M274 1616h205q-43 -82 -43 -218v-460l189 123v-127l-189 -125v-512q0 -76 16 -109q23 -47 91 -51q-24 -78 -54 -105q-35 -32 -112 -32h-201q41 80 41 218v491l-188 -125v129l188 125v483q0 75 -16 107q-23 45 -90 51q23 77 52 105q35 32 111 32z" />
    <glyph glyph-name="OE" unicode="&#x152;" horiz-adv-x="1956" 
d="M1042 1313q-2 92 -14 165l852 1q-18 -113 -61 -161q-45 -51 -154 -75q8 22 8 45q0 24 -33 37q-26 10 -161 10q-161 0 -187 -16q-30 -19 -30 -86v-330h327q61 0 123 18q-30 -104 -56 -130q-35 -35 -134 -35h-260v-443q0 -66 10 -91q10 -28 33 -40q42 -22 356 -22
q150 0 219 26q-23 -118 -61.5 -152t-157.5 -34h-635q13 116 16 186q-150 -211 -378 -211q-256 0 -415 210t-159 554q0 349 161.5 556.5t428.5 207.5q196 0 362 -190zM696 1370q-196 0 -281 -234q-57 -158 -57 -397q0 -240 57 -397q85 -233 281 -233t281 233q57 157 57 397
q0 239 -57 397q-85 234 -281 234z" />
    <glyph glyph-name="oe" unicode="&#x153;" horiz-adv-x="1745" 
d="M1448 866q0 81 -51 137t-131 56q-134 0 -210 -138q-63 -113 -63 -259q0 -33 15 -115l270 117q170 74 170 202zM899 989q132 211 373 211q188 0 319 -151q33 -43 99 -101q-29 -161 -84 -239q-61 -87 -203 -150l-359 -158q87 -274 332 -274q43 0 122.5 18.5t113.5 18.5
q52 0 94 -76q-187 -111 -381 -111q-288 0 -422 222q-117 -222 -368 -222q-237 0 -358 195q-101 162 -101 414q0 249 101 415q121 199 355 199q254 0 367 -211zM545 1053q-238 0 -238 -465q0 -461 236 -461q237 0 237 461q0 465 -235 465z" />
    <glyph glyph-name="Scedilla" unicode="&#x15e;" horiz-adv-x="1100" 
d="M999 1356q-39 -94 -102 -136q-59 -39 -164 -46q31 35 31 67q0 59 -72 91q-56 26 -123 26q-77 0 -133 -39q-65 -44 -65 -117q0 -91 137 -222q136 -117 273 -234q165 -144 208 -245q31 -73 31 -149q0 -180 -150 -284q-131 -91 -319 -91q-283 0 -498 197q39 99 98 142
q53 39 164 59q-26 -48 -26 -80q0 -76 88 -125q75 -41 158 -41q93 0 160 46q75 52 75 142q0 116 -255 323q-184 149 -243 217q-127 143 -127 288q0 175 137 271q120 85 302 85q210 0 415 -145zM488 0h88v-96q247 0 247 -180q0 -197 -258 -197q-90 0 -258 43v108
q160 -38 254 -38q109 0 109 75q0 87 -125 87q-24 0 -57 -3v201z" />
    <glyph glyph-name="scedilla" unicode="&#x15f;" horiz-adv-x="872" 
d="M772 1182q-16 -84 -42 -120q-36 -50 -112 -50q-33 0 -98 14t-98 14q-105 0 -105 -92q0 -62 127 -173q203 -176 236 -212q127 -139 127 -272q0 -147 -108 -234q-100 -82 -250 -82q-220 0 -392 172q35 124 179 164v-18q0 -85 58 -136t144 -51q68 0 113 38q49 40 49 106
q0 75 -124 203q-115 116 -231 232q-124 141 -124 247q0 123 85 194q79 68 204 68q45 0 133 -14.5t133 -14.5t96 17zM373 0h88v-96q247 0 247 -180q0 -197 -258 -197q-90 0 -258 43v108q160 -38 254 -38q109 0 109 75q0 87 -125 87q-24 0 -57 -3v201z" />
    <glyph glyph-name="Scaron" unicode="&#x160;" horiz-adv-x="1100" 
d="M999 1356q-39 -94 -102 -136q-59 -39 -164 -46q31 35 31 67q0 59 -72 91q-56 26 -123 26q-77 0 -133 -39q-65 -44 -65 -117q0 -91 137 -222q136 -117 273 -234q165 -144 208 -245q31 -73 31 -149q0 -180 -150 -284q-131 -91 -319 -91q-283 0 -498 197q39 99 98 142
q53 39 164 59q-26 -48 -26 -80q0 -76 88 -125q75 -41 158 -41q93 0 160 46q75 52 75 142q0 116 -255 323q-184 149 -243 217q-127 143 -127 288q0 175 137 271q120 85 302 85q210 0 415 -145zM250 1972h127l174 -227l174 227h125l-195 -358h-208z" />
    <glyph glyph-name="scaron" unicode="&#x161;" horiz-adv-x="872" 
d="M772 1182q-16 -84 -42 -120q-36 -50 -112 -50q-33 0 -98 14t-98 14q-105 0 -105 -92q0 -62 127 -173q203 -176 236 -212q127 -139 127 -272q0 -147 -108 -234q-100 -82 -250 -82q-220 0 -392 172q35 124 179 164v-18q0 -85 58 -136t144 -51q68 0 113 38q49 40 49 106
q0 75 -124 203q-115 116 -231 232q-124 141 -124 247q0 123 85 194q79 68 204 68q45 0 133 -14.5t133 -14.5t96 17zM135 1669h127l174 -227l174 227h125l-195 -358h-208z" />
    <glyph glyph-name="Ydieresis" unicode="&#x178;" horiz-adv-x="1036" 
d="M113 1479h171q-5 -25 -5 -39q0 -37 45 -131l139 -289q42 -87 119 -264l190 444q19 44 19 76q0 55 -99 55q31 91 60 117q36 31 127 31h184q-45 -77 -86 -168l-322 -715v-283q0 -88 18 -119q25 -41 105 -49q-27 -85 -51 -110q-33 -35 -113 -35h-249q49 102 49 216v380
l-301 606q-35 70 -70 98q-42 33 -113 33q22 88 57.5 117t125.5 29zM715 1886h122l-49 -136q-26 -71 -118 -71h-125l49 136q26 71 121 71zM366 1886h123l-49 -135q-26 -72 -121 -72h-123l50 136q26 71 120 71z" />
    <glyph glyph-name="Zcaron" unicode="&#x17d;" horiz-adv-x="1092" 
d="M1026 1483q-46 -132 -111 -254l-564 -1067q86 -8 341 -8q221 0 359 36q-20 -43 -64 -125q-27 -46 -67 -58q-23 -7 -91 -7q-69 0 -208 4t-209 4q-209 0 -387 -8q43 122 114 254l572 1069q-138 8 -236 8q-275 0 -362 -35q35 99 68 134q46 49 138 49q9 0 55 -2
q209 -9 398 -9q140 0 254 15zM246 1972h127l174 -227l174 227h125l-195 -358h-208z" />
    <glyph glyph-name="zcaron" unicode="&#x17e;" horiz-adv-x="975" 
d="M952 1181q-42 -102 -108 -208l-512 -823h405q123 0 213 34q-32 -111 -71 -145q-45 -39 -156 -39q-77 0 -232 5t-233 5q-108 0 -240 -12q41 101 93 184l530 850h-328q-113 0 -204 -31q21 103 54 137q40 40 140 40q62 0 186.5 -5.5t186.5 -5.5q118 0 276 14zM186 1669h127
l174 -227l174 227h125l-195 -358h-208z" />
    <glyph glyph-name="florin" unicode="&#x192;" horiz-adv-x="1147" 
d="M1097 1450q-44 -109 -96 -109q-21 0 -62 7.5t-62 7.5q-110 0 -131 -153l-33 -240h86q75 0 141 26q-38 -127 -75.5 -152.5t-174.5 -25.5l-100 -743q-22 -166 -73 -247q-71 -112 -216 -112q-44 0 -143.5 29t-135.5 29q-12 0 -22 -2q41 108 109 108q18 0 53 -5t53 -5
q117 0 139 166l103 782h-49q-57 0 -111 -18q24 89 40 114q32 56 97 56h41l37 258q41 286 283 286q42 0 144.5 -29.5t136.5 -29.5q12 0 21 2z" />
    <glyph glyph-name="circumflex" unicode="&#x2c6;" horiz-adv-x="1024" 
d="M408 1669h208l195 -358h-125l-174 225l-174 -225h-127z" />
    <glyph glyph-name="caron" unicode="&#x2c7;" horiz-adv-x="1024" 
d="M211 1669h127l174 -227l174 227h125l-195 -358h-208z" />
    <glyph glyph-name="macron" unicode="&#xaf;" horiz-adv-x="1024" 
d="M233 1550h555v-143h-555v143z" />
    <glyph glyph-name="macron" unicode="&#x2c9;" horiz-adv-x="1024" 
d="M233 1550h555v-143h-555v143z" />
    <glyph glyph-name="breve" unicode="&#x2d8;" horiz-adv-x="1024" 
d="M215 1632h109q11 -143 188 -143q178 0 189 143h106q-21 -286 -295 -286q-276 0 -297 286z" />
    <glyph glyph-name="dotaccent" unicode="&#x2d9;" horiz-adv-x="1024" 
d="M535 1583h122l-49 -136q-26 -71 -119 -71h-122l49 135q26 72 119 72z" />
    <glyph glyph-name="ring" unicode="&#x2da;" horiz-adv-x="1024" 
d="M512 1679q-56 0 -93.5 -37.5t-37.5 -93.5q0 -55 38 -93t93 -38t93 38t38 93q0 56 -37.5 93.5t-93.5 37.5zM512 1806q109 0 183.5 -74.5t74.5 -183.5t-74.5 -182.5t-183.5 -73.5q-110 0 -183 73t-73 183q0 108 74 183t182 75z" />
    <glyph glyph-name="ogonek" unicode="&#x2db;" horiz-adv-x="1024" 
d="M537 29h86q-131 -117 -131 -213q0 -82 108 -82h105q-27 -84 -43 -107q-32 -47 -97 -47h-45q-79 0 -128.5 46t-49.5 124q0 139 195 279z" />
    <glyph glyph-name="tilde" unicode="&#x2dc;" horiz-adv-x="1024" 
d="M719 1602h100q-55 -218 -207 -218q-39 0 -112.5 25t-102.5 25q-64 0 -92 -70h-100q48 209 205 209q39 0 109 -23.5t106 -23.5q72 0 94 76z" />
    <glyph glyph-name="hungarumlaut" unicode="&#x2dd;" horiz-adv-x="1024" 
d="M801 1669h133l-258 -358h-101l136 297q28 61 90 61zM508 1669h125l-234 -358h-94l113 297q23 61 90 61z" />
    <glyph glyph-name="Delta" unicode="&#x394;" horiz-adv-x="1350" 
d="M958 250l-380 899l-385 -899h765zM705 1497l641 -1497h-1340l651 1497h48z" />
    <glyph glyph-name="Delta" unicode="&#x2206;" horiz-adv-x="1350" 
d="M958 250l-380 899l-385 -899h765zM705 1497l641 -1497h-1340l651 1497h48z" />
    <glyph glyph-name="Omega" unicode="&#x3a9;" horiz-adv-x="1569" 
d="M1122 221h301l54 168h67l-117 -389h-516q224 440 224 858q0 557 -349 557q-350 0 -350 -555q0 -412 226 -860h-519l-116 389h67l53 -168h302v23q-322 259 -322 614q0 281 190 461q187 178 469 178q283 0 469 -177q189 -180 189 -462q0 -357 -322 -614v-23z" />
    <glyph glyph-name="Omega" unicode="&#x2126;" horiz-adv-x="1569" 
d="M1122 221h301l54 168h67l-117 -389h-516q224 440 224 858q0 557 -349 557q-350 0 -350 -555q0 -412 226 -860h-519l-116 389h67l53 -168h302v23q-322 259 -322 614q0 281 190 461q187 178 469 178q283 0 469 -177q189 -180 189 -462q0 -357 -322 -614v-23z" />
    <glyph glyph-name="mu" unicode="&#xb5;" horiz-adv-x="1184" 
d="M176 885h207l-100 -467q-21 -98 -21 -139q0 -138 139 -138q168 0 215 221l111 523h209l-113 -533q-18 -85 -18 -125q0 -90 86 -90q62 0 103 52q18 21 53 95q25 52 47 52t22 -31q0 -28 -17 -85q-72 -245 -259 -245q-173 0 -177 211q-85 -211 -266 -211q-202 0 -225 226
q-22 -120 -48 -315q-40 -306 -134 -306q-99 0 -99 101q0 51 69 282q74 248 108 410z" />
    <glyph glyph-name="mu" unicode="&#x3bc;" horiz-adv-x="1184" 
d="M176 885h207l-100 -467q-21 -98 -21 -139q0 -138 139 -138q168 0 215 221l111 523h209l-113 -533q-18 -85 -18 -125q0 -90 86 -90q62 0 103 52q18 21 53 95q25 52 47 52t22 -31q0 -28 -17 -85q-72 -245 -259 -245q-173 0 -177 211q-85 -211 -266 -211q-202 0 -225 226
q-22 -120 -48 -315q-40 -306 -134 -306q-99 0 -99 101q0 51 69 282q74 248 108 410z" />
    <glyph glyph-name="pi" unicode="&#x3c0;" horiz-adv-x="1427" 
d="M1352 653h-342q-23 -140 -23 -299v-147q0 -250 -135 -250q-100 0 -100 117q0 63 75 254.5t107 324.5h-381q-23 -130 -23 -431q0 -265 -137 -265q-98 0 -98 115q0 64 75.5 255.5t106.5 325.5h-139q-117 0 -165 -27q-64 -36 -87 -147h-59q37 207 111 296q91 110 284 110
h981z" />
    <glyph glyph-name="endash" unicode="&#x2013;" horiz-adv-x="1024" 
d="M0 690h1024v-141h-1024v141z" />
    <glyph glyph-name="emdash" unicode="&#x2014;" horiz-adv-x="2048" 
d="M0 690h2048v-141h-2048v141z" />
    <glyph glyph-name="quoteleft" unicode="&#x2018;" horiz-adv-x="571" 
d="M446 1503q-49 -90 -49 -170q0 -31 4.5 -94t4.5 -94q0 -70 -32 -97q-28 -24 -100 -24h-149q44 191 97 291q84 159 224 188z" />
    <glyph glyph-name="quoteright" unicode="&#x2019;" horiz-adv-x="571" 
d="M299 1479h147q-44 -192 -96 -290q-83 -158 -223 -188q49 90 49 183q0 28 -5 83t-5 83q0 75 29 102t104 27z" />
    <glyph glyph-name="quotesinglbase" unicode="&#x201a;" horiz-adv-x="571" 
d="M285 258h147q-44 -190 -97 -291q-85 -161 -224 -188q49 80 49 184q0 28 -4 84t-4 84q0 74 28.5 100.5t104.5 26.5z" />
    <glyph glyph-name="quotedblleft" unicode="&#x201c;" horiz-adv-x="973" 
d="M848 1503q-49 -86 -49 -170q0 -31 4 -94t4 -94q0 -71 -29.5 -96t-101.5 -25h-150q45 193 97 291q85 160 225 188zM446 1503q-49 -90 -49 -170q0 -31 4.5 -94t4.5 -94q0 -71 -29.5 -96t-102.5 -25h-149q44 191 97 291q84 159 224 188z" />
    <glyph glyph-name="quotedblright" unicode="&#x201d;" horiz-adv-x="973" 
d="M698 1479h150q-44 -191 -97 -291q-85 -157 -225 -187q49 87 49 183q0 28 -4 83t-4 83q0 75 28 102t103 27zM299 1479h147q-44 -192 -96 -290q-83 -158 -223 -188q49 90 49 183q0 28 -5 83t-5 83q0 75 29 102t104 27z" />
    <glyph glyph-name="quotedblbase" unicode="&#x201e;" horiz-adv-x="973" 
d="M684 258h150q-45 -191 -98 -291q-85 -161 -224 -188q49 80 49 184q0 28 -4 84t-4 84q0 75 28 101t103 26zM285 258h147q-44 -190 -97 -291q-85 -161 -224 -188q49 80 49 184q0 28 -4 84t-4 84q0 74 28.5 100.5t104.5 26.5z" />
    <glyph glyph-name="dagger" unicode="&#x2020;" horiz-adv-x="1024" 
d="M477 1479h150l-64 -414l256 47q22 4 31 4q41 0 41 -51v-162l-328 64q13 -119 58 -342l-7 -49q-53 -367 -55 -813h-96q-2 436 -56 810q-6 42 -6 45q0 5 23.5 119t34.5 228l-265 -50q-11 -2 -18 -2q-43 0 -43 60v153l328 -61l-51 337q-2 13 -2 28q0 49 69 49z" />
    <glyph glyph-name="daggerdbl" unicode="&#x2021;" horiz-adv-x="1024" 
d="M477 1479h150l-64 -414l256 47q22 4 31 4q41 0 41 -51v-162l-328 64q10 -84 58 -338q-2 -9 -8 -37q-35 -153 -50 -301l266 49q11 2 19 2q43 0 43 -59v-154l-328 61l51 -337q2 -13 2 -27q0 -49 -71 -49h-148l64 413l-256 -47q-22 -4 -29 -4q-43 0 -43 54v161l328 -63
q-16 148 -51 296q-9 40 -9 42q47 219 58 336l-265 -50q-11 -2 -18 -2q-43 0 -43 60v153l328 -61l-51 337q-2 13 -2 28q0 49 69 49z" />
    <glyph glyph-name="bullet" unicode="&#x2022;" horiz-adv-x="1208" 
d="M307 762q0 124 86.5 209.5t210.5 85.5q123 0 209 -86t86 -209t-87 -210t-210 -87q-124 0 -209.5 86.5t-85.5 210.5z" />
    <glyph glyph-name="ellipsis" unicode="&#x2026;" horiz-adv-x="2048" 
d="M368 246h146l-58 -160q-31 -86 -143 -86h-145l57 160q31 86 143 86zM1050 246h146l-58 -160q-31 -86 -143 -86h-145l57 160q31 86 143 86zM1734 246h146l-58 -160q-31 -86 -143 -86h-145l57 160q31 86 143 86z" />
    <glyph glyph-name="perthousand" unicode="&#x2030;" horiz-adv-x="1944" 
d="M1634 627q-94 0 -94 -269q0 -286 94 -286q95 0 95 276q0 279 -95 279zM991 627q-92 0 -92 -279q0 -276 92 -276q94 0 94 276q0 279 -94 279zM1634 721q135 0 203 -126q55 -100 55 -247q0 -146 -55 -247q-69 -126 -203 -126q-133 0 -202 126q-56 102 -56 247q0 146 55 247
q68 126 203 126zM991 721q135 0 203 -126q55 -100 55 -247q0 -145 -56 -247q-69 -126 -202 -126t-202 126q-56 102 -56 247q0 146 55 247q68 126 203 126zM313 1407q-94 0 -94 -277q0 -278 94 -278q93 0 93 278q0 277 -93 277zM960 1490q53 -3 89 -3q-10 0 87 3
q-354 -555 -798 -1502q-60 4 -84 4q-15 0 -44 -2t-44 -2q467 774 794 1502zM311 1501q135 0 203 -126q55 -101 55 -247t-55 -246q-69 -124 -203 -124q-133 0 -201 125q-55 100 -55 245t55 246q68 127 201 127z" />
    <glyph glyph-name="guilsinglleft" unicode="&#x2039;" horiz-adv-x="569" 
d="M326 948h182l-234 -360l234 -361h-182l-246 361z" />
    <glyph glyph-name="guilsinglright" unicode="&#x203a;" horiz-adv-x="569" 
d="M59 948h185l243 -360l-243 -361h-185l234 361z" />
    <glyph glyph-name="fraction" unicode="&#x2044;" horiz-adv-x="342" 
d="M480 1491q46 -4 87 -4q24 0 88 4q-355 -552 -798 -1503q-67 4 -82 4t-44 -2t-44 -2q444 738 793 1503z" />
    <glyph glyph-name="franc" unicode="&#x20a3;" horiz-adv-x="1858" 
d="M276 1479h807q-18 -114 -60 -162q-45 -52 -155 -74q9 18 9 35q0 57 -232 57q-127 0 -153.5 -19t-26.5 -83v-330h328q59 0 122 18q-28 -99 -57 -128q-38 -37 -133 -37h-260v-443q0 -88 19 -119q24 -41 104 -49q-25 -85 -50 -111q-34 -34 -114 -34h-250q49 100 49 223v963
q0 78 -27.5 107.5t-101.5 35.5q19 87 56.5 118.5t125.5 31.5zM1481 1191q-14 -106 -14 -220v-39q81 258 229 258q20 0 59.5 -4t59.5 -4q19 0 47 4q-25 -107 -57 -145q-37 -45 -125 -59q-94 -14 -124 -41q-56 -50 -56 -196v-448q0 -78 18 -110q24 -46 94 -50
q-22 -77 -53 -105q-35 -32 -111 -32h-215q47 90 47 220v687q0 70 -16 95q-21 31 -86 35q22 91 57 120q26 22 85 22h22h24q63 0 115 12z" />
    <glyph glyph-name="trademark" unicode="&#x2122;" horiz-adv-x="1683" 
d="M969 1448l135 -381l137 381h189v-27q-68 -5 -68 -55v-375q0 -33 19 -44q11 -7 49 -13v-29h-246v29q40 5 49 11q20 10 20 43v378l-163 -463h-27l-170 469v-384q0 -34 21 -44q10 -5 53 -10v-29h-197v29q42 5 53 10q21 11 21 45v373q0 35 -21 46q-13 7 -53 9v31h199z
M692 1448l10 -188h-30q-15 153 -144 153v-422q0 -34 20 -45q11 -7 50 -12v-29h-260v29q41 5 51 11q19 11 19 46v422h-15q-115 0 -131 -153h-29l11 188h448z" />
    <glyph glyph-name="partialdiff" unicode="&#x2202;" horiz-adv-x="1075" 
d="M758 639q35 212 35 334q0 229 -121 229q-57 0 -147 -58.5t-122 -58.5q-36 0 -64 25t-28 61q0 82 104 128q81 36 175 36q175 0 287 -158.5t112 -422.5q0 -338 -150 -558.5t-376 -220.5q-167 0 -271 117q-100 112 -100 281q0 181 103 311q111 141 288 141q196 0 275 -186z
M705 504q0 241 -158 241q-104 0 -174 -130.5t-70 -338.5q0 -239 158 -239q122 0 194 173q50 121 50 294z" />
    <glyph glyph-name="product" unicode="&#x220f;" horiz-adv-x="1673" 
d="M51 1473h1569v-78h-190v-1710h190v-78h-643v78h184v1710h-653v-1710h186v-78h-643v78h189v1710h-189v78z" />
    <glyph glyph-name="summation" unicode="&#x2211;" horiz-adv-x="1499" 
d="M18 1473h1199l120 -394h-82l-81 238q-27 78 -173 78h-636l745 -809v-41l-784 -709h893q75 0 94 64l69 229h84l-159 -522h-1289v55l875 787l-875 964v60z" />
    <glyph glyph-name="minus" unicode="&#x2212;" horiz-adv-x="1706" 
d="M1452 696v-170h-1198v170h1198z" />
    <glyph glyph-name="periodcentered" horiz-adv-x="573" 
d="M287 879q59 0 99 -40.5t40 -99.5q0 -57 -41 -98t-98 -41q-56 0 -98 41.5t-42 97.5q0 58 41 99t99 41z" />
    <glyph glyph-name="radical" unicode="&#x221a;" horiz-adv-x="1323" 
d="M1325 1675v-110h-108l-594 -1606h-82l-316 872l-131 -49l-28 95l305 108l247 -688l510 1378h197z" />
    <glyph glyph-name="infinity" unicode="&#x221e;" horiz-adv-x="1706" 
d="M928 559q91 -164 256 -164q97 0 159 61t62 158q0 91 -53 155q-57 67 -146 67q-145 0 -278 -277zM780 662q-94 165 -256 165q-98 0 -159.5 -61.5t-61.5 -159.5q0 -90 53 -153q56 -66 144 -66q150 0 280 275zM844 750q134 262 334 262q126 0 221.5 -115.5t95.5 -284.5
q0 -159 -71 -270q-83 -129 -234 -129q-107 0 -196 83q-59 55 -132 175q-137 -260 -321 -260q-150 0 -244 128q-84 115 -84 271q0 159 71 270q83 130 234 130q174 0 326 -260z" />
    <glyph glyph-name="integral" unicode="&#x222b;" horiz-adv-x="1120" 
d="M324 -258q105 0 122 692l3 123q13 538 113 766.5t312 228.5q77 0 134 -39q65 -44 65 -118q0 -129 -129 -129q-68 0 -96 45q-15 23 -25 84q-8 45 -26 45q-100 0 -119 -615l-8 -249q-12 -327 -37 -469q-52 -294 -192 -409q-86 -69 -195 -69q-79 0 -134 38q-63 43 -63 118
q0 131 135 131q66 0 93 -45q15 -24 24 -84q6 -45 23 -45z" />
    <glyph glyph-name="approxequal" unicode="&#x2248;" horiz-adv-x="1706" 
d="M1530 406q-205 -140 -389 -140q-88 0 -283 66.5t-295 66.5q-160 0 -385 -157v184q216 145 387 145q107 0 304.5 -67.5t281.5 -67.5q157 0 379 156v-186zM1530 795q-206 -142 -389 -142q-87 0 -282 67.5t-296 67.5q-156 0 -385 -157v184q218 146 387 146q117 0 310 -68
t268 -68q173 0 387 154v-184z" />
    <glyph glyph-name="approxequal" unicode="&#x22f2;" horiz-adv-x="1706" 
d="M1530 406q-205 -140 -389 -140q-88 0 -283 66.5t-295 66.5q-160 0 -385 -157v184q216 145 387 145q107 0 304.5 -67.5t281.5 -67.5q157 0 379 156v-186zM1530 795q-206 -142 -389 -142q-87 0 -282 67.5t-296 67.5q-156 0 -385 -157v184q218 146 387 146q117 0 310 -68
t268 -68q173 0 387 154v-184z" />
    <glyph glyph-name="notequal" unicode="&#x2260;" horiz-adv-x="1706" 
d="M1327 1112l-170 -215h295v-162h-403l-197 -250h600v-161h-707l-249 -314l-123 99l170 215h-289v161h393l199 250h-592v162h700l250 315z" />
    <glyph glyph-name="lessequal" unicode="&#x2264;" horiz-adv-x="1706" 
d="M1446 178v-166h-1186v166h1186zM1446 1047l-889 -287l889 -287v-176l-1186 389v145l1186 392v-176z" />
    <glyph glyph-name="greaterequal" unicode="&#x2265;" horiz-adv-x="1706" 
d="M1448 178v-166h-1188v166h1188zM1446 831v-145l-1186 -389v176l891 287l-891 287v176z" />
    <glyph glyph-name="SF370000" unicode="&#x255f;" horiz-adv-x="1262" 
d="M1253 152q-24 -93 -53 -120q-34 -32 -125 -32h-227q31 79 31 188q0 106 -41 252h-506q-37 -132 -37 -200q0 -99 84 -99q-28 -87 -50 -109q-30 -32 -112 -32h-168q42 83 99 323q26 116 85 347q45 164 119 385q68 205 68 231q0 58 -80 62q21 58 29 75q24 48 51 56
q18 5 64 9q39 3 118 3q107 0 137 -18q63 -37 216 -564q103 -353 165 -619q5 -23 17 -67q25 -71 116 -71zM568 1319q-10 -87 -86 -337q-78 -259 -113 -394h432q-54 239 -211 731h-22z" />
    <glyph glyph-name="SF420000" unicode="&#x2560;" horiz-adv-x="1159" 
d="M275 1479h809q-19 -113 -62 -162q-46 -52 -155 -74q9 25 9 39q0 29 -36.5 41t-201.5 12q-123 0 -148.5 -19t-25.5 -83v-330h328q59 0 122 18q-28 -99 -57 -128q-38 -37 -133 -37h-260v-439q0 -105 37 -129q46 -30 323 -30q183 0 260 28q-26 -117 -63 -150
q-41 -36 -158 -36h-686q45 90 45 211v975q0 75 -27 106.5t-101 36.5q20 91 54.5 120.5t126.5 29.5z" />
    <glyph glyph-name="SF190000" unicode="&#x2561;" horiz-adv-x="688" 
d="M513 1483q-49 -106 -49 -235v-945q0 -80 19 -110q26 -40 104 -48q-26 -86 -50 -110q-32 -35 -112 -35h-250q47 94 47 223v951q0 79 -21 112q-26 43 -103 51q21 74 40 101q31 45 92 45q31 0 92.5 -2t92.5 -2q63 0 98 4z" />
    <glyph glyph-name="SF200000" unicode="&#x2562;" horiz-adv-x="1362" 
d="M680 1358q-185 0 -263 -233q-52 -154 -52 -386t52 -385q78 -233 263 -233t263 233q52 153 52 385t-52 386q-78 233 -263 233zM680 1503q265 0 430 -208q162 -207 162 -556q0 -312 -136 -520q-159 -244 -456 -244q-296 0 -455 244q-135 208 -135 520q0 351 162.5 557.5
t427.5 206.5z" />
    <glyph glyph-name="SF230000" unicode="&#x2563;" horiz-adv-x="1376" 
d="M248 1479h270q-100 -244 -100 -715q0 -629 334 -629q325 0 325 653q0 362 -39 450q-43 94 -147 100q26 85 47 108q31 33 111 33h190q-41 -88 -41 -224q0 -80 7 -239.5t7 -239.5q0 -349 -88 -536q-124 -263 -432 -263q-292 0 -423 257q-99 195 -99 518q0 113 9 264.5
t9 179.5q0 70 -26 99.5t-96 39.5q25 88 59 116t123 28z" />
    <glyph glyph-name="SF470000" unicode="&#x2564;" horiz-adv-x="1036" 
d="M113 1479h171q-5 -25 -5 -39q0 -37 45 -131l139 -289q42 -87 119 -264l190 444q19 44 19 76q0 55 -99 55q31 91 60 117q36 31 127 31h184q-45 -77 -86 -168l-322 -715v-283q0 -88 18 -119q25 -41 105 -49q-27 -85 -51 -110q-33 -35 -113 -35h-249q49 102 49 216v380
l-301 606q-35 70 -70 98q-42 33 -113 33q22 88 57.5 117t125.5 29z" />
    <glyph glyph-name="SF480000" unicode="&#x2565;" 
d="M1056 133q-21 -74 -43 -98q-34 -37 -134 -37q-73 0 -131 -16q6 54 6 145q-120 -150 -299 -150q-175 0 -277 133q-92 122 -92 302q0 190 101 307q107 123 294 123q163 0 262 -131q2 20 2 59q0 155 -72.5 225t-228.5 70q-123 0 -266 -41q34 104 88.5 139t225.5 35
q254 0 363 -129q101 -119 101 -379v-409q0 -79 12 -104q20 -42 88 -44zM532 698q-110 0 -170 -88q-51 -76 -51 -192q0 -117 52 -198q61 -95 172 -95q114 0 170 96q45 78 45 201q0 116 -50 190q-57 86 -168 86z" />
    <glyph glyph-name="SF410000" unicode="&#x2566;" horiz-adv-x="1051" 
d="M756 872q0 78 -54 132.5t-131 54.5q-133 0 -209 -139q-61 -113 -61 -258q0 -49 12 -115l271 117q172 74 172 208zM997 948q-28 -160 -84 -240q-62 -86 -204 -149l-359 -158q85 -272 330 -272q43 0 122.5 19.5t110.5 19.5q52 0 99 -80q-184 -111 -389 -111
q-258 0 -407 193q-136 176 -136 442q0 239 126 404q138 182 369 182q185 0 318 -147q35 -43 104 -103z" />
    <glyph glyph-name="SF450000" unicode="&#x2567;" horiz-adv-x="598" 
d="M233 1176h216q-41 -78 -41 -219v-660q0 -77 16 -109q22 -47 90 -51q-23 -77 -51 -104q-34 -33 -109 -33h-207q41 80 41 218v661q0 75 -16 108q-23 47 -90 51q24 76 48 102q33 36 103 36zM344 1589h141l-47 -137q-28 -82 -139 -82h-143l49 137q29 82 139 82z" />
    <glyph glyph-name="SF460000" unicode="&#x2568;" horiz-adv-x="598" 
d="M233 1176h216q-41 -78 -41 -219v-660q0 -77 16 -109q22 -47 90 -51q-23 -77 -51 -104q-34 -33 -109 -33h-207q41 80 41 218v661q0 75 -16 108q-23 47 -90 51q24 76 48 102q33 36 103 36z" />
    <glyph glyph-name="SF400000" unicode="&#x2569;" horiz-adv-x="1085" 
d="M543 1053q-230 0 -230 -465q0 -463 230 -463q229 0 229 463q0 465 -229 465zM543 1200q241 0 364 -194q103 -163 103 -418q0 -256 -102 -419q-123 -194 -365 -194q-243 0 -365 194q-102 162 -102 419q0 256 103 418q122 194 364 194z" />
    <glyph glyph-name="SF540000" unicode="&#x256a;" horiz-adv-x="1192" 
d="M215 1176h219q-45 -106 -45 -232v-561q0 -262 189 -262q206 0 206 293v465q0 75 -16 108q-23 47 -90 51q24 76 48 102q33 36 103 36h215q-40 -80 -40 -228v-680q0 -69 16 -94q21 -32 86 -35q-24 -90 -59 -120q-25 -22 -80 -22q-7 0 -22 1h-23q-67 0 -123 -18l8 145
q-110 -150 -299 -150q-198 0 -277 143q-59 108 -59 326v445q0 77 -16 105q-21 38 -90 45q23 78 46 103q31 34 103 34z" />
    <glyph glyph-name="SF530000" unicode="&#x256b;" horiz-adv-x="1036" 
d="M141 1176l176 -1q-8 -45 -8 -67q0 -41 17 -94l174 -539q22 -67 51 -190l231 585q25 63 25 101q0 67 -125 74q24 76 52 101q32 30 108 30h231q-57 -114 -82 -175l-456 -1114q-64 -157 -128 -225q-90 -96 -231 -96q-118 0 -244 53q41 90 88 90q19 0 58 -6t59 -6
q188 0 301 334l-291 860q-26 77 -58 109q-41 40 -114 40q28 81 54 105q33 31 112 31z" />
    <glyph glyph-name="lozenge" unicode="&#x25ca;" horiz-adv-x="1012" 
d="M506 1409l-385 -817l385 -825l385 825zM506 1653l500 -1061l-500 -1069l-500 1069z" />
    <glyph glyph-name="circle" unicode="&#x25cb;" horiz-adv-x="1262" 
d="M490 1922h208l195 -358h-125l-174 225l-174 -225h-127zM617 2322h153l-299 -358h-125l170 301q32 57 101 57z" />
    <glyph glyph-name="H18533" unicode="&#x25cf;" horiz-adv-x="1262" 
d="M490 1922h208l195 -358h-125l-174 225l-174 -225h-127zM425 2322h153q69 0 101 -57l170 -301h-125z" />
    <glyph glyph-name="invbullet" unicode="&#x25d8;" horiz-adv-x="1262" 
d="M490 1922h208l195 -358h-125l-174 225l-174 -225h-127zM897 1922q-13 -37 -61 -37h-72q-4 18 -4 33q0 48 49.5 130.5t49.5 118.5q0 57 -59 57q-48 0 -80 -41q-14 23 -14 56q0 37 35 63.5t86 26.5q79 0 127.5 -43.5t48.5 -109.5q0 -71 -80 -144t-80 -81q0 -23 54 -29z" />
    <glyph glyph-name="invcircle" unicode="&#x25d9;" horiz-adv-x="1262" 
d="M490 1922h208l195 -358h-125l-174 225l-174 -225h-127zM850 2225h100q-55 -218 -207 -218q-39 0 -112.5 25t-102.5 25q-64 0 -92 -70h-100q48 209 205 209q39 0 109 -23.5t106 -23.5q72 0 94 76z" />
    <glyph glyph-name="fi" unicode="&#xf001;" horiz-adv-x="1264" 
d="M898 1176h217q-43 -86 -43 -220v-659q0 -76 16 -109q23 -47 91 -51q-24 -78 -51 -104q-34 -33 -109 -33h-207q41 80 41 218v661q0 75 -16 108q-23 47 -90 51q22 75 47 102q34 36 104 36zM1009 1589h141l-47 -137q-28 -82 -139 -82h-144l49 137q29 82 140 82zM744 1624
q-15 -77 -37 -100t-68 -26q-38 0 -75 -1q-67 -2 -98 -41t-31 -119v-161h113q78 0 137 26q-38 -127 -74.5 -151.5t-175.5 -24.5v-739q0 -71 17 -102q24 -44 92 -44q-21 -85 -59.5 -113t-127.5 -28h-182q43 94 43 240v786h-53q-60 0 -108 -14q24 82 39 108q32 56 89 56h33v147
q0 141 70 224q74 89 213 89q33 0 97.5 -11t96.5 -11q19 0 49 10z" />
    <glyph glyph-name="fl" unicode="&#xf002;" horiz-adv-x="1264" 
d="M898 1616h217q-43 -86 -43 -220v-1108q0 -144 107 -151q-24 -78 -51 -104q-34 -33 -109 -33h-207q41 80 41 220v1110q0 70 -17 101q-23 43 -89 48q22 75 47 102q34 35 104 35zM744 1624q-15 -77 -37 -100t-68 -26q-38 0 -75 -1q-67 -2 -98 -41t-31 -119v-161h113
q78 0 137 26q-38 -127 -74.5 -151.5t-175.5 -24.5v-739q0 -71 17 -102q24 -44 92 -44q-21 -85 -59.5 -113t-127.5 -28h-182q43 94 43 240v786h-53q-60 0 -108 -14q24 82 39 108q32 56 89 56h33v147q0 141 70 224q74 89 213 89q33 0 97.5 -11t96.5 -11q19 0 49 10z" />
    <glyph glyph-name="u20AB" unicode="&#x20ab;" horiz-adv-x="832" 
d="M543 797q0 101 -33 173q-44 95 -133 95q-94 0 -138 -113q-30 -81 -30 -193q0 -101 34 -173q45 -93 135 -93q88 0 132 88q33 68 33 166v50zM579 1492h137q-30 -81 -30 -184h119v-72h-119v-700q0 -83 25 -131h-33q-133 0 -136 89q-75 -99 -204 -99q-123 0 -204.5 108.5
t-81.5 279.5q0 150 67 256q79 125 221 125q118 0 200 -96v168h-202v72h202v8q0 90 -74 97q13 53 36 67q19 12 77 12zM653 284v-115h-561v115h561z" />
    <glyph glyph-name="glyph275" horiz-adv-x="573" 
 />
    <glyph glyph-name="nonbreakingspace" unicode="&#xa0;" horiz-adv-x="1147" 
 />
    <glyph glyph-name="apple" unicode="&#xf000;" horiz-adv-x="1618" 
d="M836 1216q-2 12 -2 37q0 132 101 237q96 99 230 124q2 -20 2 -62q0 -131 -103.5 -234.5t-211.5 -103.5q-3 0 -8.5 1t-7.5 1zM1505 403q-90 -195 -153 -280q-118 -158 -256 -158q-45 0 -128 33t-126 33q-45 0 -129.5 -33t-128.5 -33q-128 0 -259 176q-99 134 -156 296
q-56 155 -56 300q0 211 117 348q124 146 331 146q57 0 150 -34t129 -34q34 0 126 35t148 35q217 0 359 -164q-201 -128 -201 -328q0 -233 233 -338z" />
    <glyph glyph-name="sfthyphen" unicode="&#xad;" horiz-adv-x="739" 
d="M627 750q-33 -128 -66 -162.5t-108 -34.5q-28 0 -85 2t-85 2q-120 0 -172 -20q19 110 45 143q36 45 137 45q30 0 89 -2t89 -2q107 0 156 29z" />
    <glyph glyph-name="ch270" unicode="&#xb7;" horiz-adv-x="573" 
d="M287 879q59 0 99 -40.5t40 -99.5q0 -57 -41 -98t-98 -41q-56 0 -98 41.5t-42 97.5q0 58 41 99t99 41z" />
    <glyph glyph-name="ch270" unicode="&#x2219;" horiz-adv-x="573" 
d="M287 879q59 0 99 -40.5t40 -99.5q0 -57 -41 -98t-98 -41q-56 0 -98 41.5t-42 97.5q0 58 41 99t99 41z" />
    <glyph glyph-name="euro" horiz-adv-x="1147" 
d="M1106 1380q-59 -140 -246 -161q17 38 17 63q0 80 -103 80q-117 0 -192 -164q-51 -114 -70 -266h438l-26 -96l-420 -1q-2 -26 -2 -83q0 -68 2 -98l379 -1l-27 -96h-344q49 -418 303 -418q150 0 258 104q2 -10 2 -38q0 -230 -315 -230q-240 0 -376 176q-114 150 -142 406
h-160l27 96h126q-2 28 -2 78q0 22 4 105h-155l27 96h139q35 241 157 393q143 178 369 178q188 0 332 -123z" />
    <glyph glyph-name="glyph261" horiz-adv-x="571" 
d="M343 1462l125 1q-80 -173 -134 -245q-102 -133 -225 -133q58 68 75 147q5 24 11 72t11 72q12 60 42 75q22 11 95 11z" />
    <glyph glyph-name="glyph262" horiz-adv-x="712" 
d="M601 1325q-13 -37 -61 -37h-72q-4 18 -4 33q0 48 49.5 130.5t49.5 118.5q0 57 -59 57q-48 0 -80 -41q-14 23 -14 56q0 37 35 63.5t86 26.5q79 0 127.5 -43.5t48.5 -109.5q0 -71 -80 -144t-80 -81q0 -23 54 -29z" />
    <glyph glyph-name="glyph263" 
d="M459 1669h208l195 -358h-125l-174 225l-174 -225h-127zM586 2069h153l-299 -358h-125l170 301q32 57 101 57z" />
    <glyph glyph-name="glyph264" 
d="M459 1669h208l195 -358h-125l-174 225l-174 -225h-127zM394 2069h153q69 0 101 -57l170 -301h-125z" />
    <glyph glyph-name="glyph265" 
d="M459 1669h208l195 -358h-125l-174 225l-174 -225h-127zM866 1669q-13 -37 -61 -37h-72q-4 18 -4 33q0 48 49.5 130.5t49.5 118.5q0 57 -59 57q-48 0 -80 -41q-14 23 -14 56q0 37 35 63.5t86 26.5q79 0 127.5 -43.5t48.5 -109.5q0 -71 -80 -144t-80 -81q0 -23 54 -29z" />
    <glyph glyph-name="glyph266" 
d="M459 1669h208l195 -358h-125l-174 225l-174 -225h-127zM819 1972h100q-55 -218 -207 -218q-39 0 -112.5 25t-102.5 25q-64 0 -92 -70h-100q48 209 205 209q39 0 109 -23.5t106 -23.5q72 0 94 76z" />
    <glyph glyph-name="glyph267" 
d="M267 1632h109q11 -143 188 -143q178 0 189 143h106q-21 -286 -295 -286q-276 0 -297 286zM676 2069h153l-299 -358h-125l170 301q32 57 101 57z" />
    <glyph glyph-name="glyph268" 
d="M267 1632h109q11 -143 188 -143q178 0 189 143h106q-21 -286 -295 -286q-276 0 -297 286zM284 2069h153q69 0 101 -57l170 -301h-125z" />
    <glyph glyph-name="glyph269" 
d="M267 1632h109q11 -143 188 -143q178 0 189 143h106q-21 -286 -295 -286q-276 0 -297 286zM627 1669q-13 -37 -61 -37h-72q-4 18 -4 33q0 48 49.5 130.5t49.5 118.5q0 57 -59 57q-48 0 -80 -41q-14 23 -14 56q0 37 35 63.5t86 26.5q79 0 127.5 -43.5t48.5 -109.5
q0 -71 -80 -144t-80 -81q0 -23 54 -29z" />
    <glyph glyph-name="glyph270" 
d="M267 1632h109q11 -143 188 -143q178 0 189 143h106q-21 -286 -295 -286q-276 0 -297 286zM784 1972h100q-55 -218 -207 -218q-39 0 -112.5 25t-102.5 25q-64 0 -92 -70h-100q48 209 205 209q39 0 109 -23.5t106 -23.5q72 0 94 76z" />
    <glyph glyph-name="glyph271" unicode="&#x102;" horiz-adv-x="1262" 
d="M1253 152q-24 -93 -53 -120q-34 -32 -125 -32h-227q31 79 31 188q0 106 -41 252h-506q-37 -132 -37 -200q0 -99 84 -99q-28 -87 -50 -109q-30 -32 -112 -32h-168q42 83 99 323q26 116 85 347q45 164 119 385q68 205 68 231q0 58 -80 62q21 58 29 75q24 48 51 56
q18 5 64 9q39 3 118 3q107 0 137 -18q63 -37 216 -564q103 -353 165 -619q5 -23 17 -67q25 -71 116 -71zM568 1319q-10 -87 -86 -337q-78 -259 -113 -394h432q-54 239 -211 731h-22zM298 1885h109q11 -143 188 -143q178 0 189 143h106q-21 -286 -295 -286q-276 0 -297 286z
" />
    <glyph glyph-name="glyph272" unicode="&#x103;" 
d="M1056 133q-21 -74 -43 -98q-34 -37 -134 -37q-73 0 -131 -16q6 54 6 145q-120 -150 -299 -150q-175 0 -277 133q-92 122 -92 302q0 190 101 307q107 123 294 123q163 0 262 -131q2 20 2 59q0 155 -72.5 225t-228.5 70q-123 0 -266 -41q34 104 88.5 139t225.5 35
q254 0 363 -129q101 -119 101 -379v-409q0 -79 12 -104q20 -42 88 -44zM532 698q-110 0 -170 -88q-51 -76 -51 -192q0 -117 52 -198q61 -95 172 -95q114 0 170 96q45 78 45 201q0 116 -50 190q-57 86 -168 86zM267 1632h109q11 -143 188 -143q178 0 189 143h106
q-21 -286 -295 -286q-276 0 -297 286z" />
    <glyph glyph-name="glyph273" unicode="&#x128;" horiz-adv-x="688" 
d="M513 1483q-49 -106 -49 -235v-945q0 -80 19 -110q26 -40 104 -48q-26 -86 -50 -110q-32 -35 -112 -35h-250q47 94 47 223v951q0 79 -21 112q-26 43 -103 51q21 74 40 101q31 45 92 45q31 0 92.5 -2t92.5 -2q63 0 98 4zM559 1905h100q-55 -218 -207 -218q-39 0 -112.5 25
t-102.5 25q-64 0 -92 -70h-100q48 209 205 209q39 0 109 -23.5t106 -23.5q72 0 94 76z" />
    <glyph glyph-name="glyph274" unicode="&#x129;" horiz-adv-x="598" 
d="M233 1176h216q-41 -78 -41 -219v-660q0 -77 16 -109q22 -47 90 -51q-23 -77 -51 -104q-34 -33 -109 -33h-207q41 80 41 218v661q0 75 -16 108q-23 47 -90 51q24 76 48 102q33 36 103 36zM520 1602h100q-55 -218 -207 -218q-39 0 -112.5 25t-102.5 25q-64 0 -92 -70h-100
q48 209 205 209q39 0 109 -23.5t106 -23.5q72 0 94 76z" />
    <glyph glyph-name="glyph275" unicode="&#x168;" horiz-adv-x="1376" 
d="M248 1479h270q-100 -244 -100 -715q0 -629 334 -629q325 0 325 653q0 362 -39 450q-43 94 -147 100q26 85 47 108q31 33 111 33h190q-41 -88 -41 -224q0 -80 7 -239.5t7 -239.5q0 -349 -88 -536q-124 -263 -432 -263q-292 0 -423 257q-99 195 -99 518q0 113 9 264.5
t9 179.5q0 70 -26 99.5t-96 39.5q25 88 59 116t123 28zM919 1905h100q-55 -218 -207 -218q-39 0 -112.5 25t-102.5 25q-64 0 -92 -70h-100q48 209 205 209q39 0 109 -23.5t106 -23.5q72 0 94 76z" />
    <glyph glyph-name="glyph276" unicode="&#x169;" horiz-adv-x="1192" 
d="M215 1176h219q-45 -106 -45 -232v-561q0 -262 189 -262q206 0 206 293v465q0 75 -16 108q-23 47 -90 51q24 76 48 102q33 36 103 36h215q-40 -80 -40 -228v-680q0 -69 16 -94q21 -32 86 -35q-24 -90 -59 -120q-25 -22 -80 -22q-7 0 -22 1h-23q-67 0 -123 -18l8 145
q-110 -150 -299 -150q-198 0 -277 143q-59 108 -59 326v445q0 77 -16 105q-21 38 -90 45q23 78 46 103q31 34 103 34zM800 1602h100q-55 -218 -207 -218q-39 0 -112.5 25t-102.5 25q-64 0 -92 -70h-100q48 209 205 209q39 0 109 -23.5t106 -23.5q72 0 94 76z" />
    <glyph glyph-name="glyph277" unicode="&#x1a0;" horiz-adv-x="1362" 
d="M680 1358q-185 0 -263 -233q-52 -154 -52 -386t52 -385q78 -233 263 -233t263 233q52 153 52 385t-52 386q-78 233 -263 233zM680 1503q265 0 430 -208q162 -207 162 -556q0 -312 -136 -520q-159 -244 -456 -244q-296 0 -455 244q-135 208 -135 520q0 351 162.5 557.5
t427.5 206.5zM1220 1590l125 1q-80 -173 -134 -245q-102 -133 -225 -133q58 68 75 147q5 24 11 72t11 72q12 60 42 75q22 11 95 11z" />
    <glyph glyph-name="glyph278" unicode="&#x1a1;" horiz-adv-x="1109" 
d="M543 1053q-230 0 -230 -465q0 -463 230 -463q229 0 229 463q0 465 -229 465zM543 1200q241 0 364 -194q103 -163 103 -418q0 -256 -102 -419q-123 -194 -365 -194q-243 0 -365 194q-102 162 -102 419q0 256 103 418q122 194 364 194zM1020 1300l125 1q-80 -173 -134 -245
q-102 -133 -225 -133q58 68 75 147q5 24 11 72t11 72q12 60 42 75q22 11 95 11z" />
    <glyph glyph-name="glyph279" unicode="&#x1af;" horiz-adv-x="1420" 
d="M248 1479h270q-100 -244 -100 -715q0 -629 334 -629q325 0 325 653q0 362 -39 450q-43 94 -147 100q26 85 47 108q31 33 111 33h190q-41 -88 -41 -224q0 -80 7 -239.5t7 -239.5q0 -349 -88 -536q-124 -263 -432 -263q-292 0 -423 257q-99 195 -99 518q0 113 9 264.5
t9 179.5q0 70 -26 99.5t-96 39.5q25 88 59 116t123 28zM1340 1590l125 1q-80 -173 -134 -245q-102 -133 -225 -133q58 68 75 147q5 24 11 72t11 72q12 60 42 75q22 11 95 11z" />
    <glyph glyph-name="glyph280" unicode="&#x1b0;" horiz-adv-x="1271" 
d="M215 1176h219q-45 -106 -45 -232v-561q0 -262 189 -262q206 0 206 293v465q0 75 -16 108q-23 47 -90 51q24 76 48 102q33 36 103 36h215q-40 -80 -40 -228v-680q0 -69 16 -94q21 -32 86 -35q-24 -90 -59 -120q-25 -22 -80 -22q-7 0 -22 1h-23q-67 0 -123 -18l8 145
q-110 -150 -299 -150q-198 0 -277 143q-59 108 -59 326v445q0 77 -16 105q-21 38 -90 45q23 78 46 103q31 34 103 34zM1210 1300l125 1q-80 -173 -134 -245q-102 -133 -225 -133q58 68 75 147q5 24 11 72t11 72q12 60 42 75q22 11 95 11z" />
    <glyph glyph-name="glyph281" unicode="&#x1ea0;" horiz-adv-x="1262" 
d="M1253 152q-24 -93 -53 -120q-34 -32 -125 -32h-227q31 79 31 188q0 106 -41 252h-506q-37 -132 -37 -200q0 -99 84 -99q-28 -87 -50 -109q-30 -32 -112 -32h-168q42 83 99 323q26 116 85 347q45 164 119 385q68 205 68 231q0 58 -80 62q21 58 29 75q24 48 51 56
q18 5 64 9q39 3 118 3q107 0 137 -18q63 -37 216 -564q103 -353 165 -619q5 -23 17 -67q25 -71 116 -71zM568 1319q-10 -87 -86 -337q-78 -259 -113 -394h432q-54 239 -211 731h-22zM620 -125h146l-58 -160q-31 -86 -143 -86h-145l57 160q31 86 143 86z" />
    <glyph glyph-name="glyph282" unicode="&#x1ea1;" 
d="M1056 133q-21 -74 -43 -98q-34 -37 -134 -37q-73 0 -131 -16q6 54 6 145q-120 -150 -299 -150q-175 0 -277 133q-92 122 -92 302q0 190 101 307q107 123 294 123q163 0 262 -131q2 20 2 59q0 155 -72.5 225t-228.5 70q-123 0 -266 -41q34 104 88.5 139t225.5 35
q254 0 363 -129q101 -119 101 -379v-409q0 -79 12 -104q20 -42 88 -44zM532 698q-110 0 -170 -88q-51 -76 -51 -192q0 -117 52 -198q61 -95 172 -95q114 0 170 96q45 78 45 201q0 116 -50 190q-57 86 -168 86zM588 -125h146l-58 -160q-31 -86 -143 -86h-145l57 160
q31 86 143 86z" />
    <glyph glyph-name="glyph283" unicode="&#x1ea2;" horiz-adv-x="1262" 
d="M1253 152q-24 -93 -53 -120q-34 -32 -125 -32h-227q31 79 31 188q0 106 -41 252h-506q-37 -132 -37 -200q0 -99 84 -99q-28 -87 -50 -109q-30 -32 -112 -32h-168q42 83 99 323q26 116 85 347q45 164 119 385q68 205 68 231q0 58 -80 62q21 58 29 75q24 48 51 56
q18 5 64 9q39 3 118 3q107 0 137 -18q63 -37 216 -564q103 -353 165 -619q5 -23 17 -67q25 -71 116 -71zM568 1319q-10 -87 -86 -337q-78 -259 -113 -394h432q-54 239 -211 731h-22zM658 1588q-13 -37 -61 -37h-72q-4 18 -4 33q0 48 49.5 130.5t49.5 118.5q0 57 -59 57
q-48 0 -80 -41q-14 23 -14 56q0 37 35 63.5t86 26.5q79 0 127.5 -43.5t48.5 -109.5q0 -71 -80 -144t-80 -81q0 -23 54 -29z" />
    <glyph glyph-name="glyph284" unicode="&#x1ea3;" 
d="M1056 133q-21 -74 -43 -98q-34 -37 -134 -37q-73 0 -131 -16q6 54 6 145q-120 -150 -299 -150q-175 0 -277 133q-92 122 -92 302q0 190 101 307q107 123 294 123q163 0 262 -131q2 20 2 59q0 155 -72.5 225t-228.5 70q-123 0 -266 -41q34 104 88.5 139t225.5 35
q254 0 363 -129q101 -119 101 -379v-409q0 -79 12 -104q20 -42 88 -44zM532 698q-110 0 -170 -88q-51 -76 -51 -192q0 -117 52 -198q61 -95 172 -95q114 0 170 96q45 78 45 201q0 116 -50 190q-57 86 -168 86zM601 1335q-13 -37 -61 -37h-72q-4 18 -4 33q0 48 49.5 130.5
t49.5 118.5q0 57 -59 57q-48 0 -80 -41q-14 23 -14 56q0 37 35 63.5t86 26.5q79 0 127.5 -43.5t48.5 -109.5q0 -71 -80 -144t-80 -81q0 -23 54 -29z" />
    <glyph glyph-name="glyph285" unicode="&#x1ea4;" horiz-adv-x="1262" 
d="M1253 152q-24 -93 -53 -120q-34 -32 -125 -32h-227q31 79 31 188q0 106 -41 252h-506q-37 -132 -37 -200q0 -99 84 -99q-28 -87 -50 -109q-30 -32 -112 -32h-168q42 83 99 323q26 116 85 347q45 164 119 385q68 205 68 231q0 58 -80 62q21 58 29 75q24 48 51 56
q18 5 64 9q39 3 118 3q107 0 137 -18q63 -37 216 -564q103 -353 165 -619q5 -23 17 -67q25 -71 116 -71zM568 1319q-10 -87 -86 -337q-78 -259 -113 -394h432q-54 239 -211 731h-22zM490 1922h208l195 -358h-125l-174 225l-174 -225h-127zM617 2322h153l-299 -358h-125
l170 301q32 57 101 57z" />
    <glyph glyph-name="glyph286" unicode="&#x1ea5;" 
d="M1056 133q-21 -74 -43 -98q-34 -37 -134 -37q-73 0 -131 -16q6 54 6 145q-120 -150 -299 -150q-175 0 -277 133q-92 122 -92 302q0 190 101 307q107 123 294 123q163 0 262 -131q2 20 2 59q0 155 -72.5 225t-228.5 70q-123 0 -266 -41q34 104 88.5 139t225.5 35
q254 0 363 -129q101 -119 101 -379v-409q0 -79 12 -104q20 -42 88 -44zM532 698q-110 0 -170 -88q-51 -76 -51 -192q0 -117 52 -198q61 -95 172 -95q114 0 170 96q45 78 45 201q0 116 -50 190q-57 86 -168 86zM459 1669h208l195 -358h-125l-174 225l-174 -225h-127z
M586 2069h153l-299 -358h-125l170 301q32 57 101 57z" />
    <glyph glyph-name="glyph287" unicode="&#x1ea6;" horiz-adv-x="1262" 
d="M1253 152q-24 -93 -53 -120q-34 -32 -125 -32h-227q31 79 31 188q0 106 -41 252h-506q-37 -132 -37 -200q0 -99 84 -99q-28 -87 -50 -109q-30 -32 -112 -32h-168q42 83 99 323q26 116 85 347q45 164 119 385q68 205 68 231q0 58 -80 62q21 58 29 75q24 48 51 56
q18 5 64 9q39 3 118 3q107 0 137 -18q63 -37 216 -564q103 -353 165 -619q5 -23 17 -67q25 -71 116 -71zM568 1319q-10 -87 -86 -337q-78 -259 -113 -394h432q-54 239 -211 731h-22zM490 1922h208l195 -358h-125l-174 225l-174 -225h-127zM425 2322h153q69 0 101 -57
l170 -301h-125z" />
    <glyph glyph-name="glyph288" unicode="&#x1ea7;" 
d="M1056 133q-21 -74 -43 -98q-34 -37 -134 -37q-73 0 -131 -16q6 54 6 145q-120 -150 -299 -150q-175 0 -277 133q-92 122 -92 302q0 190 101 307q107 123 294 123q163 0 262 -131q2 20 2 59q0 155 -72.5 225t-228.5 70q-123 0 -266 -41q34 104 88.5 139t225.5 35
q254 0 363 -129q101 -119 101 -379v-409q0 -79 12 -104q20 -42 88 -44zM532 698q-110 0 -170 -88q-51 -76 -51 -192q0 -117 52 -198q61 -95 172 -95q114 0 170 96q45 78 45 201q0 116 -50 190q-57 86 -168 86zM459 1669h208l195 -358h-125l-174 225l-174 -225h-127z
M394 2069h153q69 0 101 -57l170 -301h-125z" />
    <glyph glyph-name="glyph289" unicode="&#x1ea8;" horiz-adv-x="1262" 
d="M1253 152q-24 -93 -53 -120q-34 -32 -125 -32h-227q31 79 31 188q0 106 -41 252h-506q-37 -132 -37 -200q0 -99 84 -99q-28 -87 -50 -109q-30 -32 -112 -32h-168q42 83 99 323q26 116 85 347q45 164 119 385q68 205 68 231q0 58 -80 62q21 58 29 75q24 48 51 56
q18 5 64 9q39 3 118 3q107 0 137 -18q63 -37 216 -564q103 -353 165 -619q5 -23 17 -67q25 -71 116 -71zM568 1319q-10 -87 -86 -337q-78 -259 -113 -394h432q-54 239 -211 731h-22zM490 1922h208l195 -358h-125l-174 225l-174 -225h-127zM897 1922q-13 -37 -61 -37h-72
q-4 18 -4 33q0 48 49.5 130.5t49.5 118.5q0 57 -59 57q-48 0 -80 -41q-14 23 -14 56q0 37 35 63.5t86 26.5q79 0 127.5 -43.5t48.5 -109.5q0 -71 -80 -144t-80 -81q0 -23 54 -29z" />
    <glyph glyph-name="glyph290" unicode="&#x1ea9;" 
d="M1056 133q-21 -74 -43 -98q-34 -37 -134 -37q-73 0 -131 -16q6 54 6 145q-120 -150 -299 -150q-175 0 -277 133q-92 122 -92 302q0 190 101 307q107 123 294 123q163 0 262 -131q2 20 2 59q0 155 -72.5 225t-228.5 70q-123 0 -266 -41q34 104 88.5 139t225.5 35
q254 0 363 -129q101 -119 101 -379v-409q0 -79 12 -104q20 -42 88 -44zM532 698q-110 0 -170 -88q-51 -76 -51 -192q0 -117 52 -198q61 -95 172 -95q114 0 170 96q45 78 45 201q0 116 -50 190q-57 86 -168 86zM459 1669h208l195 -358h-125l-174 225l-174 -225h-127z
M866 1669q-13 -37 -61 -37h-72q-4 18 -4 33q0 48 49.5 130.5t49.5 118.5q0 57 -59 57q-48 0 -80 -41q-14 23 -14 56q0 37 35 63.5t86 26.5q79 0 127.5 -43.5t48.5 -109.5q0 -71 -80 -144t-80 -81q0 -23 54 -29z" />
    <glyph glyph-name="glyph291" unicode="&#x1eaa;" horiz-adv-x="1262" 
d="M1253 152q-24 -93 -53 -120q-34 -32 -125 -32h-227q31 79 31 188q0 106 -41 252h-506q-37 -132 -37 -200q0 -99 84 -99q-28 -87 -50 -109q-30 -32 -112 -32h-168q42 83 99 323q26 116 85 347q45 164 119 385q68 205 68 231q0 58 -80 62q21 58 29 75q24 48 51 56
q18 5 64 9q39 3 118 3q107 0 137 -18q63 -37 216 -564q103 -353 165 -619q5 -23 17 -67q25 -71 116 -71zM568 1319q-10 -87 -86 -337q-78 -259 -113 -394h432q-54 239 -211 731h-22zM490 1922h208l195 -358h-125l-174 225l-174 -225h-127zM850 2225h100q-55 -218 -207 -218
q-39 0 -112.5 25t-102.5 25q-64 0 -92 -70h-100q48 209 205 209q39 0 109 -23.5t106 -23.5q72 0 94 76z" />
    <glyph glyph-name="glyph292" unicode="&#x1eab;" 
d="M1056 133q-21 -74 -43 -98q-34 -37 -134 -37q-73 0 -131 -16q6 54 6 145q-120 -150 -299 -150q-175 0 -277 133q-92 122 -92 302q0 190 101 307q107 123 294 123q163 0 262 -131q2 20 2 59q0 155 -72.5 225t-228.5 70q-123 0 -266 -41q34 104 88.5 139t225.5 35
q254 0 363 -129q101 -119 101 -379v-409q0 -79 12 -104q20 -42 88 -44zM532 698q-110 0 -170 -88q-51 -76 -51 -192q0 -117 52 -198q61 -95 172 -95q114 0 170 96q45 78 45 201q0 116 -50 190q-57 86 -168 86zM459 1669h208l195 -358h-125l-174 225l-174 -225h-127z
M819 1972h100q-55 -218 -207 -218q-39 0 -112.5 25t-102.5 25q-64 0 -92 -70h-100q48 209 205 209q39 0 109 -23.5t106 -23.5q72 0 94 76z" />
    <glyph glyph-name="glyph293" unicode="&#x1eac;" horiz-adv-x="1262" 
d="M1253 152q-24 -93 -53 -120q-34 -32 -125 -32h-227q31 79 31 188q0 106 -41 252h-506q-37 -132 -37 -200q0 -99 84 -99q-28 -87 -50 -109q-30 -32 -112 -32h-168q42 83 99 323q26 116 85 347q45 164 119 385q68 205 68 231q0 58 -80 62q21 58 29 75q24 48 51 56
q18 5 64 9q39 3 118 3q107 0 137 -18q63 -37 216 -564q103 -353 165 -619q5 -23 17 -67q25 -71 116 -71zM568 1319q-10 -87 -86 -337q-78 -259 -113 -394h432q-54 239 -211 731h-22zM490 1922h208l195 -358h-125l-174 225l-174 -225h-127zM620 -125h146l-58 -160
q-31 -86 -143 -86h-145l57 160q31 86 143 86z" />
    <glyph glyph-name="glyph294" unicode="&#x1ead;" 
d="M1056 133q-21 -74 -43 -98q-34 -37 -134 -37q-73 0 -131 -16q6 54 6 145q-120 -150 -299 -150q-175 0 -277 133q-92 122 -92 302q0 190 101 307q107 123 294 123q163 0 262 -131q2 20 2 59q0 155 -72.5 225t-228.5 70q-123 0 -266 -41q34 104 88.5 139t225.5 35
q254 0 363 -129q101 -119 101 -379v-409q0 -79 12 -104q20 -42 88 -44zM532 698q-110 0 -170 -88q-51 -76 -51 -192q0 -117 52 -198q61 -95 172 -95q114 0 170 96q45 78 45 201q0 116 -50 190q-57 86 -168 86zM459 1669h208l195 -358h-125l-174 225l-174 -225h-127z
M588 -125h146l-58 -160q-31 -86 -143 -86h-145l57 160q31 86 143 86z" />
    <glyph glyph-name="glyph295" unicode="&#x1eae;" horiz-adv-x="1262" 
d="M1253 152q-24 -93 -53 -120q-34 -32 -125 -32h-227q31 79 31 188q0 106 -41 252h-506q-37 -132 -37 -200q0 -99 84 -99q-28 -87 -50 -109q-30 -32 -112 -32h-168q42 83 99 323q26 116 85 347q45 164 119 385q68 205 68 231q0 58 -80 62q21 58 29 75q24 48 51 56
q18 5 64 9q39 3 118 3q107 0 137 -18q63 -37 216 -564q103 -353 165 -619q5 -23 17 -67q25 -71 116 -71zM568 1319q-10 -87 -86 -337q-78 -259 -113 -394h432q-54 239 -211 731h-22zM298 1885h109q11 -143 188 -143q178 0 189 143h106q-21 -286 -295 -286q-276 0 -297 286z
M707 2322h153l-299 -358h-125l170 301q32 57 101 57z" />
    <glyph glyph-name="glyph296" unicode="&#x1eaf;" 
d="M1056 133q-21 -74 -43 -98q-34 -37 -134 -37q-73 0 -131 -16q6 54 6 145q-120 -150 -299 -150q-175 0 -277 133q-92 122 -92 302q0 190 101 307q107 123 294 123q163 0 262 -131q2 20 2 59q0 155 -72.5 225t-228.5 70q-123 0 -266 -41q34 104 88.5 139t225.5 35
q254 0 363 -129q101 -119 101 -379v-409q0 -79 12 -104q20 -42 88 -44zM532 698q-110 0 -170 -88q-51 -76 -51 -192q0 -117 52 -198q61 -95 172 -95q114 0 170 96q45 78 45 201q0 116 -50 190q-57 86 -168 86zM267 1632h109q11 -143 188 -143q178 0 189 143h106
q-21 -286 -295 -286q-276 0 -297 286zM676 2069h153l-299 -358h-125l170 301q32 57 101 57z" />
    <glyph glyph-name="glyph297" unicode="&#x1eb0;" horiz-adv-x="1262" 
d="M1253 152q-24 -93 -53 -120q-34 -32 -125 -32h-227q31 79 31 188q0 106 -41 252h-506q-37 -132 -37 -200q0 -99 84 -99q-28 -87 -50 -109q-30 -32 -112 -32h-168q42 83 99 323q26 116 85 347q45 164 119 385q68 205 68 231q0 58 -80 62q21 58 29 75q24 48 51 56
q18 5 64 9q39 3 118 3q107 0 137 -18q63 -37 216 -564q103 -353 165 -619q5 -23 17 -67q25 -71 116 -71zM568 1319q-10 -87 -86 -337q-78 -259 -113 -394h432q-54 239 -211 731h-22zM298 1885h109q11 -143 188 -143q178 0 189 143h106q-21 -286 -295 -286q-276 0 -297 286z
M315 2322h153q69 0 101 -57l170 -301h-125z" />
    <glyph glyph-name="glyph298" unicode="&#x1eb1;" 
d="M1056 133q-21 -74 -43 -98q-34 -37 -134 -37q-73 0 -131 -16q6 54 6 145q-120 -150 -299 -150q-175 0 -277 133q-92 122 -92 302q0 190 101 307q107 123 294 123q163 0 262 -131q2 20 2 59q0 155 -72.5 225t-228.5 70q-123 0 -266 -41q34 104 88.5 139t225.5 35
q254 0 363 -129q101 -119 101 -379v-409q0 -79 12 -104q20 -42 88 -44zM532 698q-110 0 -170 -88q-51 -76 -51 -192q0 -117 52 -198q61 -95 172 -95q114 0 170 96q45 78 45 201q0 116 -50 190q-57 86 -168 86zM267 1632h109q11 -143 188 -143q178 0 189 143h106
q-21 -286 -295 -286q-276 0 -297 286zM284 2069h153q69 0 101 -57l170 -301h-125z" />
    <glyph glyph-name="glyph299" unicode="&#x1eb2;" horiz-adv-x="1262" 
d="M1253 152q-24 -93 -53 -120q-34 -32 -125 -32h-227q31 79 31 188q0 106 -41 252h-506q-37 -132 -37 -200q0 -99 84 -99q-28 -87 -50 -109q-30 -32 -112 -32h-168q42 83 99 323q26 116 85 347q45 164 119 385q68 205 68 231q0 58 -80 62q21 58 29 75q24 48 51 56
q18 5 64 9q39 3 118 3q107 0 137 -18q63 -37 216 -564q103 -353 165 -619q5 -23 17 -67q25 -71 116 -71zM568 1319q-10 -87 -86 -337q-78 -259 -113 -394h432q-54 239 -211 731h-22zM298 1885h109q11 -143 188 -143q178 0 189 143h106q-21 -286 -295 -286q-276 0 -297 286z
M658 1922q-13 -37 -61 -37h-72q-4 18 -4 33q0 48 49.5 130.5t49.5 118.5q0 57 -59 57q-48 0 -80 -41q-14 23 -14 56q0 37 35 63.5t86 26.5q79 0 127.5 -43.5t48.5 -109.5q0 -71 -80 -144t-80 -81q0 -23 54 -29z" />
    <glyph glyph-name="glyph300" unicode="&#x1eb3;" 
d="M1056 133q-21 -74 -43 -98q-34 -37 -134 -37q-73 0 -131 -16q6 54 6 145q-120 -150 -299 -150q-175 0 -277 133q-92 122 -92 302q0 190 101 307q107 123 294 123q163 0 262 -131q2 20 2 59q0 155 -72.5 225t-228.5 70q-123 0 -266 -41q34 104 88.5 139t225.5 35
q254 0 363 -129q101 -119 101 -379v-409q0 -79 12 -104q20 -42 88 -44zM532 698q-110 0 -170 -88q-51 -76 -51 -192q0 -117 52 -198q61 -95 172 -95q114 0 170 96q45 78 45 201q0 116 -50 190q-57 86 -168 86zM267 1632h109q11 -143 188 -143q178 0 189 143h106
q-21 -286 -295 -286q-276 0 -297 286zM627 1669q-13 -37 -61 -37h-72q-4 18 -4 33q0 48 49.5 130.5t49.5 118.5q0 57 -59 57q-48 0 -80 -41q-14 23 -14 56q0 37 35 63.5t86 26.5q79 0 127.5 -43.5t48.5 -109.5q0 -71 -80 -144t-80 -81q0 -23 54 -29z" />
    <glyph glyph-name="glyph301" unicode="&#x1eb4;" horiz-adv-x="1262" 
d="M1253 152q-24 -93 -53 -120q-34 -32 -125 -32h-227q31 79 31 188q0 106 -41 252h-506q-37 -132 -37 -200q0 -99 84 -99q-28 -87 -50 -109q-30 -32 -112 -32h-168q42 83 99 323q26 116 85 347q45 164 119 385q68 205 68 231q0 58 -80 62q21 58 29 75q24 48 51 56
q18 5 64 9q39 3 118 3q107 0 137 -18q63 -37 216 -564q103 -353 165 -619q5 -23 17 -67q25 -71 116 -71zM568 1319q-10 -87 -86 -337q-78 -259 -113 -394h432q-54 239 -211 731h-22zM298 1885h109q11 -143 188 -143q178 0 189 143h106q-21 -286 -295 -286q-276 0 -297 286z
M815 2225h100q-55 -218 -207 -218q-39 0 -112.5 25t-102.5 25q-64 0 -92 -70h-100q48 209 205 209q39 0 109 -23.5t106 -23.5q72 0 94 76z" />
    <glyph glyph-name="glyph302" unicode="&#x1eb5;" 
d="M1056 133q-21 -74 -43 -98q-34 -37 -134 -37q-73 0 -131 -16q6 54 6 145q-120 -150 -299 -150q-175 0 -277 133q-92 122 -92 302q0 190 101 307q107 123 294 123q163 0 262 -131q2 20 2 59q0 155 -72.5 225t-228.5 70q-123 0 -266 -41q34 104 88.5 139t225.5 35
q254 0 363 -129q101 -119 101 -379v-409q0 -79 12 -104q20 -42 88 -44zM532 698q-110 0 -170 -88q-51 -76 -51 -192q0 -117 52 -198q61 -95 172 -95q114 0 170 96q45 78 45 201q0 116 -50 190q-57 86 -168 86zM267 1632h109q11 -143 188 -143q178 0 189 143h106
q-21 -286 -295 -286q-276 0 -297 286zM784 1972h100q-55 -218 -207 -218q-39 0 -112.5 25t-102.5 25q-64 0 -92 -70h-100q48 209 205 209q39 0 109 -23.5t106 -23.5q72 0 94 76z" />
    <glyph glyph-name="glyph303" unicode="&#x1eb6;" horiz-adv-x="1262" 
d="M1253 152q-24 -93 -53 -120q-34 -32 -125 -32h-227q31 79 31 188q0 106 -41 252h-506q-37 -132 -37 -200q0 -99 84 -99q-28 -87 -50 -109q-30 -32 -112 -32h-168q42 83 99 323q26 116 85 347q45 164 119 385q68 205 68 231q0 58 -80 62q21 58 29 75q24 48 51 56
q18 5 64 9q39 3 118 3q107 0 137 -18q63 -37 216 -564q103 -353 165 -619q5 -23 17 -67q25 -71 116 -71zM568 1319q-10 -87 -86 -337q-78 -259 -113 -394h432q-54 239 -211 731h-22zM298 1885h109q11 -143 188 -143q178 0 189 143h106q-21 -286 -295 -286q-276 0 -297 286z
M620 -125h146l-58 -160q-31 -86 -143 -86h-145l57 160q31 86 143 86z" />
    <glyph glyph-name="glyph304" unicode="&#x1eb7;" 
d="M1056 133q-21 -74 -43 -98q-34 -37 -134 -37q-73 0 -131 -16q6 54 6 145q-120 -150 -299 -150q-175 0 -277 133q-92 122 -92 302q0 190 101 307q107 123 294 123q163 0 262 -131q2 20 2 59q0 155 -72.5 225t-228.5 70q-123 0 -266 -41q34 104 88.5 139t225.5 35
q254 0 363 -129q101 -119 101 -379v-409q0 -79 12 -104q20 -42 88 -44zM532 698q-110 0 -170 -88q-51 -76 -51 -192q0 -117 52 -198q61 -95 172 -95q114 0 170 96q45 78 45 201q0 116 -50 190q-57 86 -168 86zM267 1632h109q11 -143 188 -143q178 0 189 143h106
q-21 -286 -295 -286q-276 0 -297 286zM588 -125h146l-58 -160q-31 -86 -143 -86h-145l57 160q31 86 143 86z" />
    <glyph glyph-name="glyph305" unicode="&#x1eb8;" horiz-adv-x="1159" 
d="M275 1479h809q-19 -113 -62 -162q-46 -52 -155 -74q9 25 9 39q0 29 -36.5 41t-201.5 12q-123 0 -148.5 -19t-25.5 -83v-330h328q59 0 122 18q-28 -99 -57 -128q-38 -37 -133 -37h-260v-439q0 -105 37 -129q46 -30 323 -30q183 0 260 28q-26 -117 -63 -150
q-41 -36 -158 -36h-686q45 90 45 211v975q0 75 -27 106.5t-101 36.5q20 91 54.5 120.5t126.5 29.5zM620 -125h146l-58 -160q-31 -86 -143 -86h-145l57 160q31 86 143 86z" />
    <glyph glyph-name="glyph306" unicode="&#x1eb9;" horiz-adv-x="1051" 
d="M756 872q0 78 -54 132.5t-131 54.5q-133 0 -209 -139q-61 -113 -61 -258q0 -49 12 -115l271 117q172 74 172 208zM997 948q-28 -160 -84 -240q-62 -86 -204 -149l-359 -158q85 -272 330 -272q43 0 122.5 19.5t110.5 19.5q52 0 99 -80q-184 -111 -389 -111
q-258 0 -407 193q-136 176 -136 442q0 239 126 404q138 182 369 182q185 0 318 -147q35 -43 104 -103zM588 -125h146l-58 -160q-31 -86 -143 -86h-145l57 160q31 86 143 86z" />
    <glyph glyph-name="glyph307" unicode="&#x1eba;" horiz-adv-x="1159" 
d="M275 1479h809q-19 -113 -62 -162q-46 -52 -155 -74q9 25 9 39q0 29 -36.5 41t-201.5 12q-123 0 -148.5 -19t-25.5 -83v-330h328q59 0 122 18q-28 -99 -57 -128q-38 -37 -133 -37h-260v-439q0 -105 37 -129q46 -30 323 -30q183 0 260 28q-26 -117 -63 -150
q-41 -36 -158 -36h-686q45 90 45 211v975q0 75 -27 106.5t-101 36.5q20 91 54.5 120.5t126.5 29.5zM668 1588q-13 -37 -61 -37h-72q-4 18 -4 33q0 48 49.5 130.5t49.5 118.5q0 57 -59 57q-48 0 -80 -41q-14 23 -14 56q0 37 35 63.5t86 26.5q79 0 127.5 -43.5t48.5 -109.5
q0 -71 -80 -144t-80 -81q0 -23 54 -29z" />
    <glyph glyph-name="glyph308" unicode="&#x1ebb;" horiz-adv-x="1051" 
d="M756 872q0 78 -54 132.5t-131 54.5q-133 0 -209 -139q-61 -113 -61 -258q0 -49 12 -115l271 117q172 74 172 208zM997 948q-28 -160 -84 -240q-62 -86 -204 -149l-359 -158q85 -272 330 -272q43 0 122.5 19.5t110.5 19.5q52 0 99 -80q-184 -111 -389 -111
q-258 0 -407 193q-136 176 -136 442q0 239 126 404q138 182 369 182q185 0 318 -147q35 -43 104 -103zM621 1335q-13 -37 -61 -37h-72q-4 18 -4 33q0 48 49.5 130.5t49.5 118.5q0 57 -59 57q-48 0 -80 -41q-14 23 -14 56q0 37 35 63.5t86 26.5q79 0 127.5 -43.5t48.5 -109.5
q0 -71 -80 -144t-80 -81q0 -23 54 -29z" />
    <glyph glyph-name="glyph309" unicode="&#x1ebc;" horiz-adv-x="1159" 
d="M275 1479h809q-19 -113 -62 -162q-46 -52 -155 -74q9 25 9 39q0 29 -36.5 41t-201.5 12q-123 0 -148.5 -19t-25.5 -83v-330h328q59 0 122 18q-28 -99 -57 -128q-38 -37 -133 -37h-260v-439q0 -105 37 -129q46 -30 323 -30q183 0 260 28q-26 -117 -63 -150
q-41 -36 -158 -36h-686q45 90 45 211v975q0 75 -27 106.5t-101 36.5q20 91 54.5 120.5t126.5 29.5zM829 1905h100q-55 -218 -207 -218q-39 0 -112.5 25t-102.5 25q-64 0 -92 -70h-100q48 209 205 209q39 0 109 -23.5t106 -23.5q72 0 94 76z" />
    <glyph glyph-name="glyph310" unicode="&#x1ebd;" horiz-adv-x="1051" 
d="M756 872q0 78 -54 132.5t-131 54.5q-133 0 -209 -139q-61 -113 -61 -258q0 -49 12 -115l271 117q172 74 172 208zM997 948q-28 -160 -84 -240q-62 -86 -204 -149l-359 -158q85 -272 330 -272q43 0 122.5 19.5t110.5 19.5q52 0 99 -80q-184 -111 -389 -111
q-258 0 -407 193q-136 176 -136 442q0 239 126 404q138 182 369 182q185 0 318 -147q35 -43 104 -103zM790 1602h100q-55 -218 -207 -218q-39 0 -112.5 25t-102.5 25q-64 0 -92 -70h-100q48 209 205 209q39 0 109 -23.5t106 -23.5q72 0 94 76z" />
    <glyph glyph-name="glyph311" unicode="&#x1ebe;" horiz-adv-x="1159" 
d="M276 1479h809q-19 -113 -62 -162q-46 -52 -155 -74q9 25 9 39q0 29 -36.5 41t-201.5 12q-123 0 -148.5 -19t-25.5 -83v-330h328q59 0 122 18q-28 -99 -57 -128q-38 -37 -133 -37h-260v-439q0 -105 37 -129q46 -30 323 -30q183 0 260 28q-26 -117 -63 -150
q-41 -36 -158 -36h-686q45 90 45 211v975q0 75 -27 106.5t-101 36.5q20 91 54.5 120.5t126.5 29.5zM490 1922h208l195 -358h-125l-174 225l-174 -225h-127zM617 2322h153l-299 -358h-125l170 301q32 57 101 57z" />
    <glyph glyph-name="glyph312" unicode="&#x1ebf;" horiz-adv-x="1051" 
d="M756 872q0 78 -54 132.5t-131 54.5q-133 0 -209 -139q-61 -113 -61 -258q0 -49 12 -115l271 117q172 74 172 208zM997 948q-28 -160 -84 -240q-62 -86 -204 -149l-359 -158q85 -272 330 -272q43 0 122.5 19.5t110.5 19.5q52 0 99 -80q-184 -111 -389 -111
q-258 0 -407 193q-136 176 -136 442q0 239 126 404q138 182 369 182q185 0 318 -147q35 -43 104 -103zM457 1669h208l195 -358h-125l-174 225l-174 -225h-127zM584 2069h153l-299 -358h-125l170 301q32 57 101 57z" />
    <glyph glyph-name="glyph313" unicode="&#x1ec0;" horiz-adv-x="1159" 
d="M276 1479h809q-19 -113 -62 -162q-46 -52 -155 -74q9 25 9 39q0 29 -36.5 41t-201.5 12q-123 0 -148.5 -19t-25.5 -83v-330h328q59 0 122 18q-28 -99 -57 -128q-38 -37 -133 -37h-260v-439q0 -105 37 -129q46 -30 323 -30q183 0 260 28q-26 -117 -63 -150
q-41 -36 -158 -36h-686q45 90 45 211v975q0 75 -27 106.5t-101 36.5q20 91 54.5 120.5t126.5 29.5zM490 1922h208l195 -358h-125l-174 225l-174 -225h-127zM425 2322h153q69 0 101 -57l170 -301h-125z" />
    <glyph glyph-name="glyph314" unicode="&#x1ec1;" horiz-adv-x="1051" 
d="M756 872q0 78 -54 132.5t-131 54.5q-133 0 -209 -139q-61 -113 -61 -258q0 -49 12 -115l271 117q172 74 172 208zM997 948q-28 -160 -84 -240q-62 -86 -204 -149l-359 -158q85 -272 330 -272q43 0 122.5 19.5t110.5 19.5q52 0 99 -80q-184 -111 -389 -111
q-258 0 -407 193q-136 176 -136 442q0 239 126 404q138 182 369 182q185 0 318 -147q35 -43 104 -103zM457 1669h208l195 -358h-125l-174 225l-174 -225h-127zM392 2069h153q69 0 101 -57l170 -301h-125z" />
    <glyph glyph-name="glyph315" unicode="&#x1ec2;" horiz-adv-x="1159" 
d="M276 1479h809q-19 -113 -62 -162q-46 -52 -155 -74q9 25 9 39q0 29 -36.5 41t-201.5 12q-123 0 -148.5 -19t-25.5 -83v-330h328q59 0 122 18q-28 -99 -57 -128q-38 -37 -133 -37h-260v-439q0 -105 37 -129q46 -30 323 -30q183 0 260 28q-26 -117 -63 -150
q-41 -36 -158 -36h-686q45 90 45 211v975q0 75 -27 106.5t-101 36.5q20 91 54.5 120.5t126.5 29.5zM490 1922h208l195 -358h-125l-174 225l-174 -225h-127zM897 1922q-13 -37 -61 -37h-72q-4 18 -4 33q0 48 49.5 130.5t49.5 118.5q0 57 -59 57q-48 0 -80 -41q-14 23 -14 56
q0 37 35 63.5t86 26.5q79 0 127.5 -43.5t48.5 -109.5q0 -71 -80 -144t-80 -81q0 -23 54 -29z" />
    <glyph glyph-name="glyph316" unicode="&#x1ec3;" horiz-adv-x="1051" 
d="M756 872q0 78 -54 132.5t-131 54.5q-133 0 -209 -139q-61 -113 -61 -258q0 -49 12 -115l271 117q172 74 172 208zM997 948q-28 -160 -84 -240q-62 -86 -204 -149l-359 -158q85 -272 330 -272q43 0 122.5 19.5t110.5 19.5q52 0 99 -80q-184 -111 -389 -111
q-258 0 -407 193q-136 176 -136 442q0 239 126 404q138 182 369 182q185 0 318 -147q35 -43 104 -103zM457 1669h208l195 -358h-125l-174 225l-174 -225h-127zM864 1669q-13 -37 -61 -37h-72q-4 18 -4 33q0 48 49.5 130.5t49.5 118.5q0 57 -59 57q-48 0 -80 -41
q-14 23 -14 56q0 37 35 63.5t86 26.5q79 0 127.5 -43.5t48.5 -109.5q0 -71 -80 -144t-80 -81q0 -23 54 -29z" />
    <glyph glyph-name="glyph317" unicode="&#x1ec4;" horiz-adv-x="1159" 
d="M276 1479h809q-19 -113 -62 -162q-46 -52 -155 -74q9 25 9 39q0 29 -36.5 41t-201.5 12q-123 0 -148.5 -19t-25.5 -83v-330h328q59 0 122 18q-28 -99 -57 -128q-38 -37 -133 -37h-260v-439q0 -105 37 -129q46 -30 323 -30q183 0 260 28q-26 -117 -63 -150
q-41 -36 -158 -36h-686q45 90 45 211v975q0 75 -27 106.5t-101 36.5q20 91 54.5 120.5t126.5 29.5zM490 1922h208l195 -358h-125l-174 225l-174 -225h-127zM850 2225h100q-55 -218 -207 -218q-39 0 -112.5 25t-102.5 25q-64 0 -92 -70h-100q48 209 205 209q39 0 109 -23.5
t106 -23.5q72 0 94 76z" />
    <glyph glyph-name="glyph318" unicode="&#x1ec5;" horiz-adv-x="1051" 
d="M756 872q0 78 -54 132.5t-131 54.5q-133 0 -209 -139q-61 -113 -61 -258q0 -49 12 -115l271 117q172 74 172 208zM997 948q-28 -160 -84 -240q-62 -86 -204 -149l-359 -158q85 -272 330 -272q43 0 122.5 19.5t110.5 19.5q52 0 99 -80q-184 -111 -389 -111
q-258 0 -407 193q-136 176 -136 442q0 239 126 404q138 182 369 182q185 0 318 -147q35 -43 104 -103zM457 1669h208l195 -358h-125l-174 225l-174 -225h-127zM817 1972h100q-55 -218 -207 -218q-39 0 -112.5 25t-102.5 25q-64 0 -92 -70h-100q48 209 205 209
q39 0 109 -23.5t106 -23.5q72 0 94 76z" />
    <glyph glyph-name="glyph319" unicode="&#x1ec6;" horiz-adv-x="1159" 
d="M276 1479h809q-19 -113 -62 -162q-46 -52 -155 -74q9 25 9 39q0 29 -36.5 41t-201.5 12q-123 0 -148.5 -19t-25.5 -83v-330h328q59 0 122 18q-28 -99 -57 -128q-38 -37 -133 -37h-260v-439q0 -105 37 -129q46 -30 323 -30q183 0 260 28q-26 -117 -63 -150
q-41 -36 -158 -36h-686q45 90 45 211v975q0 75 -27 106.5t-101 36.5q20 91 54.5 120.5t126.5 29.5zM490 1922h208l195 -358h-125l-174 225l-174 -225h-127zM620 -125h146l-58 -160q-31 -86 -143 -86h-145l57 160q31 86 143 86z" />
    <glyph glyph-name="glyph320" unicode="&#x1ec7;" horiz-adv-x="1051" 
d="M756 872q0 78 -54 132.5t-131 54.5q-133 0 -209 -139q-61 -113 -61 -258q0 -49 12 -115l271 117q172 74 172 208zM997 948q-28 -160 -84 -240q-62 -86 -204 -149l-359 -158q85 -272 330 -272q43 0 122.5 19.5t110.5 19.5q52 0 99 -80q-184 -111 -389 -111
q-258 0 -407 193q-136 176 -136 442q0 239 126 404q138 182 369 182q185 0 318 -147q35 -43 104 -103zM457 1669h208l195 -358h-125l-174 225l-174 -225h-127zM588 -125h146l-58 -160q-31 -86 -143 -86h-145l57 160q31 86 143 86z" />
    <glyph glyph-name="glyph321" unicode="&#x1ec8;" horiz-adv-x="688" 
d="M513 1483q-49 -106 -49 -235v-945q0 -80 19 -110q26 -40 104 -48q-26 -86 -50 -110q-32 -35 -112 -35h-250q47 94 47 223v951q0 79 -21 112q-26 43 -103 51q21 74 40 101q31 45 92 45q31 0 92.5 -2t92.5 -2q63 0 98 4zM388 1588q-13 -37 -61 -37h-72q-4 18 -4 33
q0 48 49.5 130.5t49.5 118.5q0 57 -59 57q-48 0 -80 -41q-14 23 -14 56q0 37 35 63.5t86 26.5q79 0 127.5 -43.5t48.5 -109.5q0 -71 -80 -144t-80 -81q0 -23 54 -29z" />
    <glyph glyph-name="glyph322" unicode="&#x1ec9;" horiz-adv-x="598" 
d="M233 1176h216q-41 -78 -41 -219v-660q0 -77 16 -109q22 -47 90 -51q-23 -77 -51 -104q-34 -33 -109 -33h-207q41 80 41 218v661q0 75 -16 108q-23 47 -90 51q24 76 48 102q33 36 103 36zM351 1335q-13 -37 -61 -37h-72q-4 18 -4 33q0 48 49.5 130.5t49.5 118.5
q0 57 -59 57q-48 0 -80 -41q-14 23 -14 56q0 37 35 63.5t86 26.5q79 0 127.5 -43.5t48.5 -109.5q0 -71 -80 -144t-80 -81q0 -23 54 -29z" />
    <glyph glyph-name="glyph323" unicode="&#x1eca;" horiz-adv-x="688" 
d="M513 1483q-49 -106 -49 -235v-945q0 -80 19 -110q26 -40 104 -48q-26 -86 -50 -110q-32 -35 -112 -35h-250q47 94 47 223v951q0 79 -21 112q-26 43 -103 51q21 74 40 101q31 45 92 45q31 0 92.5 -2t92.5 -2q63 0 98 4zM373 -125h146l-58 -160q-31 -86 -143 -86h-145
l57 160q31 86 143 86z" />
    <glyph glyph-name="glyph324" unicode="&#x1ecb;" horiz-adv-x="598" 
d="M233 1176h216q-41 -78 -41 -219v-660q0 -77 16 -109q22 -47 90 -51q-23 -77 -51 -104q-34 -33 -109 -33h-207q41 80 41 218v661q0 75 -16 108q-23 47 -90 51q24 76 48 102q33 36 103 36zM344 1589h141l-47 -137q-28 -82 -139 -82h-143l49 137q29 82 139 82zM331 -125h146
l-58 -160q-31 -86 -143 -86h-145l57 160q31 86 143 86z" />
    <glyph glyph-name="glyph325" unicode="&#x1ecc;" horiz-adv-x="1362" 
d="M680 1358q-185 0 -263 -233q-52 -154 -52 -386t52 -385q78 -233 263 -233t263 233q52 153 52 385t-52 386q-78 233 -263 233zM680 1503q265 0 430 -208q162 -207 162 -556q0 -312 -136 -520q-159 -244 -456 -244q-296 0 -455 244q-135 208 -135 520q0 351 162.5 557.5
t427.5 206.5zM713 -125h146l-58 -160q-31 -86 -143 -86h-145l57 160q31 86 143 86z" />
    <glyph glyph-name="glyph326" unicode="&#x1ecd;" horiz-adv-x="1085" 
d="M543 1053q-230 0 -230 -465q0 -463 230 -463q229 0 229 463q0 465 -229 465zM543 1200q241 0 364 -194q103 -163 103 -418q0 -256 -102 -419q-123 -194 -365 -194q-243 0 -365 194q-102 162 -102 419q0 256 103 418q122 194 364 194zM567 -125h146l-58 -160
q-31 -86 -143 -86h-145l57 160q31 86 143 86z" />
    <glyph glyph-name="glyph327" unicode="&#x1ece;" horiz-adv-x="1362" 
d="M680 1358q-185 0 -263 -233q-52 -154 -52 -386t52 -385q78 -233 263 -233t263 233q52 153 52 385t-52 386q-78 233 -263 233zM680 1503q265 0 430 -208q162 -207 162 -556q0 -312 -136 -520q-159 -244 -456 -244q-296 0 -455 244q-135 208 -135 520q0 351 162.5 557.5
t427.5 206.5zM748 1588q-13 -37 -61 -37h-72q-4 18 -4 33q0 48 49.5 130.5t49.5 118.5q0 57 -59 57q-48 0 -80 -41q-14 23 -14 56q0 37 35 63.5t86 26.5q79 0 127.5 -43.5t48.5 -109.5q0 -71 -80 -144t-80 -81q0 -23 54 -29z" />
    <glyph glyph-name="glyph328" unicode="&#x1ecf;" horiz-adv-x="1085" 
d="M543 1053q-230 0 -230 -465q0 -463 230 -463q229 0 229 463q0 465 -229 465zM543 1200q241 0 364 -194q103 -163 103 -418q0 -256 -102 -419q-123 -194 -365 -194q-243 0 -365 194q-102 162 -102 419q0 256 103 418q122 194 364 194zM611 1335q-13 -37 -61 -37h-72
q-4 18 -4 33q0 48 49.5 130.5t49.5 118.5q0 57 -59 57q-48 0 -80 -41q-14 23 -14 56q0 37 35 63.5t86 26.5q79 0 127.5 -43.5t48.5 -109.5q0 -71 -80 -144t-80 -81q0 -23 54 -29z" />
    <glyph glyph-name="glyph329" unicode="&#x1ed0;" horiz-adv-x="1362" 
d="M680 1358q-185 0 -263 -233q-52 -154 -52 -386t52 -385q78 -233 263 -233t263 233q52 153 52 385t-52 386q-78 233 -263 233zM680 1503q265 0 430 -208q162 -207 162 -556q0 -312 -136 -520q-159 -244 -456 -244q-296 0 -455 244q-135 208 -135 520q0 351 162.5 557.5
t427.5 206.5zM580 1922h208l195 -358h-125l-174 225l-174 -225h-127zM707 2322h153l-299 -358h-125l170 301q32 57 101 57z" />
    <glyph glyph-name="glyph330" unicode="&#x1ed1;" horiz-adv-x="1085" 
d="M543 1053q-230 0 -230 -465q0 -463 230 -463q229 0 229 463q0 465 -229 465zM543 1200q241 0 364 -194q103 -163 103 -418q0 -256 -102 -419q-123 -194 -365 -194q-243 0 -365 194q-102 162 -102 419q0 256 103 418q122 194 364 194zM439 1669h208l195 -358h-125
l-174 225l-174 -225h-127zM566 2069h153l-299 -358h-125l170 301q32 57 101 57z" />
    <glyph glyph-name="glyph331" unicode="&#x1ed2;" horiz-adv-x="1362" 
d="M680 1358q-185 0 -263 -233q-52 -154 -52 -386t52 -385q78 -233 263 -233t263 233q52 153 52 385t-52 386q-78 233 -263 233zM680 1503q265 0 430 -208q162 -207 162 -556q0 -312 -136 -520q-159 -244 -456 -244q-296 0 -455 244q-135 208 -135 520q0 351 162.5 557.5
t427.5 206.5zM580 1922h208l195 -358h-125l-174 225l-174 -225h-127zM515 2322h153q69 0 101 -57l170 -301h-125z" />
    <glyph glyph-name="glyph332" unicode="&#x1ed3;" horiz-adv-x="1085" 
d="M543 1053q-230 0 -230 -465q0 -463 230 -463q229 0 229 463q0 465 -229 465zM543 1200q241 0 364 -194q103 -163 103 -418q0 -256 -102 -419q-123 -194 -365 -194q-243 0 -365 194q-102 162 -102 419q0 256 103 418q122 194 364 194zM439 1669h208l195 -358h-125
l-174 225l-174 -225h-127zM374 2069h153q69 0 101 -57l170 -301h-125z" />
    <glyph glyph-name="glyph333" unicode="&#x1ed4;" horiz-adv-x="1362" 
d="M680 1358q-185 0 -263 -233q-52 -154 -52 -386t52 -385q78 -233 263 -233t263 233q52 153 52 385t-52 386q-78 233 -263 233zM680 1503q265 0 430 -208q162 -207 162 -556q0 -312 -136 -520q-159 -244 -456 -244q-296 0 -455 244q-135 208 -135 520q0 351 162.5 557.5
t427.5 206.5zM580 1922h208l195 -358h-125l-174 225l-174 -225h-127zM987 1922q-13 -37 -61 -37h-72q-4 18 -4 33q0 48 49.5 130.5t49.5 118.5q0 57 -59 57q-48 0 -80 -41q-14 23 -14 56q0 37 35 63.5t86 26.5q79 0 127.5 -43.5t48.5 -109.5q0 -71 -80 -144t-80 -81
q0 -23 54 -29z" />
    <glyph glyph-name="glyph334" unicode="&#x1ed5;" horiz-adv-x="1085" 
d="M543 1053q-230 0 -230 -465q0 -463 230 -463q229 0 229 463q0 465 -229 465zM543 1200q241 0 364 -194q103 -163 103 -418q0 -256 -102 -419q-123 -194 -365 -194q-243 0 -365 194q-102 162 -102 419q0 256 103 418q122 194 364 194zM439 1669h208l195 -358h-125
l-174 225l-174 -225h-127zM846 1669q-13 -37 -61 -37h-72q-4 18 -4 33q0 48 49.5 130.5t49.5 118.5q0 57 -59 57q-48 0 -80 -41q-14 23 -14 56q0 37 35 63.5t86 26.5q79 0 127.5 -43.5t48.5 -109.5q0 -71 -80 -144t-80 -81q0 -23 54 -29z" />
    <glyph glyph-name="glyph335" unicode="&#x1ed6;" horiz-adv-x="1362" 
d="M680 1358q-185 0 -263 -233q-52 -154 -52 -386t52 -385q78 -233 263 -233t263 233q52 153 52 385t-52 386q-78 233 -263 233zM680 1503q265 0 430 -208q162 -207 162 -556q0 -312 -136 -520q-159 -244 -456 -244q-296 0 -455 244q-135 208 -135 520q0 351 162.5 557.5
t427.5 206.5zM580 1922h208l195 -358h-125l-174 225l-174 -225h-127zM940 2225h100q-55 -218 -207 -218q-39 0 -112.5 25t-102.5 25q-64 0 -92 -70h-100q48 209 205 209q39 0 109 -23.5t106 -23.5q72 0 94 76z" />
    <glyph glyph-name="glyph336" unicode="&#x1ed7;" horiz-adv-x="1085" 
d="M543 1053q-230 0 -230 -465q0 -463 230 -463q229 0 229 463q0 465 -229 465zM543 1200q241 0 364 -194q103 -163 103 -418q0 -256 -102 -419q-123 -194 -365 -194q-243 0 -365 194q-102 162 -102 419q0 256 103 418q122 194 364 194zM439 1669h208l195 -358h-125
l-174 225l-174 -225h-127zM799 1972h100q-55 -218 -207 -218q-39 0 -112.5 25t-102.5 25q-64 0 -92 -70h-100q48 209 205 209q39 0 109 -23.5t106 -23.5q72 0 94 76z" />
    <glyph glyph-name="glyph337" unicode="&#x1ed8;" horiz-adv-x="1362" 
d="M680 1358q-185 0 -263 -233q-52 -154 -52 -386t52 -385q78 -233 263 -233t263 233q52 153 52 385t-52 386q-78 233 -263 233zM680 1503q265 0 430 -208q162 -207 162 -556q0 -312 -136 -520q-159 -244 -456 -244q-296 0 -455 244q-135 208 -135 520q0 351 162.5 557.5
t427.5 206.5zM580 1922h208l195 -358h-125l-174 225l-174 -225h-127zM713 -125h146l-58 -160q-31 -86 -143 -86h-145l57 160q31 86 143 86z" />
    <glyph glyph-name="glyph338" unicode="&#x1ed9;" horiz-adv-x="1085" 
d="M543 1053q-230 0 -230 -465q0 -463 230 -463q229 0 229 463q0 465 -229 465zM543 1200q241 0 364 -194q103 -163 103 -418q0 -256 -102 -419q-123 -194 -365 -194q-243 0 -365 194q-102 162 -102 419q0 256 103 418q122 194 364 194zM439 1669h208l195 -358h-125
l-174 225l-174 -225h-127zM567 -125h146l-58 -160q-31 -86 -143 -86h-145l57 160q31 86 143 86z" />
    <glyph glyph-name="glyph339" unicode="&#x1eda;" horiz-adv-x="1362" 
d="M680 1358q-185 0 -263 -233q-52 -154 -52 -386t52 -385q78 -233 263 -233t263 233q52 153 52 385t-52 386q-78 233 -263 233zM680 1503q265 0 430 -208q162 -207 162 -556q0 -312 -136 -520q-159 -244 -456 -244q-296 0 -455 244q-135 208 -135 520q0 351 162.5 557.5
t427.5 206.5zM1220 1590l125 1q-80 -173 -134 -245q-102 -133 -225 -133q58 68 75 147q5 24 11 72t11 72q12 60 42 75q22 11 95 11zM801 1972h153l-299 -358h-125l170 301q32 57 101 57z" />
    <glyph glyph-name="glyph340" unicode="&#x1edb;" horiz-adv-x="1109" 
d="M543 1053q-230 0 -230 -465q0 -463 230 -463q229 0 229 463q0 465 -229 465zM543 1200q241 0 364 -194q103 -163 103 -418q0 -256 -102 -419q-123 -194 -365 -194q-243 0 -365 194q-102 162 -102 419q0 256 103 418q122 194 364 194zM1020 1300l125 1q-80 -173 -134 -245
q-102 -133 -225 -133q58 68 75 147q5 24 11 72t11 72q12 60 42 75q22 11 95 11zM662 1669h153l-299 -358h-125l170 301q32 57 101 57z" />
    <glyph glyph-name="glyph341" unicode="&#x1edc;" horiz-adv-x="1362" 
d="M680 1358q-185 0 -263 -233q-52 -154 -52 -386t52 -385q78 -233 263 -233t263 233q52 153 52 385t-52 386q-78 233 -263 233zM680 1503q265 0 430 -208q162 -207 162 -556q0 -312 -136 -520q-159 -244 -456 -244q-296 0 -455 244q-135 208 -135 520q0 351 162.5 557.5
t427.5 206.5zM1220 1590l125 1q-80 -173 -134 -245q-102 -133 -225 -133q58 68 75 147q5 24 11 72t11 72q12 60 42 75q22 11 95 11zM410 1972h153q69 0 101 -57l170 -301h-125z" />
    <glyph glyph-name="glyph342" unicode="&#x1edd;" horiz-adv-x="1109" 
d="M543 1053q-230 0 -230 -465q0 -463 230 -463q229 0 229 463q0 465 -229 465zM543 1200q241 0 364 -194q103 -163 103 -418q0 -256 -102 -419q-123 -194 -365 -194q-243 0 -365 194q-102 162 -102 419q0 256 103 418q122 194 364 194zM1020 1300l125 1q-80 -173 -134 -245
q-102 -133 -225 -133q58 68 75 147q5 24 11 72t11 72q12 60 42 75q22 11 95 11zM271 1669h153q69 0 101 -57l170 -301h-125z" />
    <glyph glyph-name="glyph343" unicode="&#x1ede;" horiz-adv-x="1362" 
d="M680 1358q-185 0 -263 -233q-52 -154 -52 -386t52 -385q78 -233 263 -233t263 233q52 153 52 385t-52 386q-78 233 -263 233zM680 1503q265 0 430 -208q162 -207 162 -556q0 -312 -136 -520q-159 -244 -456 -244q-296 0 -455 244q-135 208 -135 520q0 351 162.5 557.5
t427.5 206.5zM1220 1590l125 1q-80 -173 -134 -245q-102 -133 -225 -133q58 68 75 147q5 24 11 72t11 72q12 60 42 75q22 11 95 11zM748 1588q-13 -37 -61 -37h-72q-4 18 -4 33q0 48 49.5 130.5t49.5 118.5q0 57 -59 57q-48 0 -80 -41q-14 23 -14 56q0 37 35 63.5t86 26.5
q79 0 127.5 -43.5t48.5 -109.5q0 -71 -80 -144t-80 -81q0 -23 54 -29z" />
    <glyph glyph-name="glyph344" unicode="&#x1edf;" horiz-adv-x="1109" 
d="M543 1053q-230 0 -230 -465q0 -463 230 -463q229 0 229 463q0 465 -229 465zM543 1200q241 0 364 -194q103 -163 103 -418q0 -256 -102 -419q-123 -194 -365 -194q-243 0 -365 194q-102 162 -102 419q0 256 103 418q122 194 364 194zM1020 1300l125 1q-80 -173 -134 -245
q-102 -133 -225 -133q58 68 75 147q5 24 11 72t11 72q12 60 42 75q22 11 95 11zM611 1335q-13 -37 -61 -37h-72q-4 18 -4 33q0 48 49.5 130.5t49.5 118.5q0 57 -59 57q-48 0 -80 -41q-14 23 -14 56q0 37 35 63.5t86 26.5q79 0 127.5 -43.5t48.5 -109.5q0 -71 -80 -144
t-80 -81q0 -23 54 -29z" />
    <glyph glyph-name="glyph345" unicode="&#x1ee0;" horiz-adv-x="1362" 
d="M680 1358q-185 0 -263 -233q-52 -154 -52 -386t52 -385q78 -233 263 -233t263 233q52 153 52 385t-52 386q-78 233 -263 233zM680 1503q265 0 430 -208q162 -207 162 -556q0 -312 -136 -520q-159 -244 -456 -244q-296 0 -455 244q-135 208 -135 520q0 351 162.5 557.5
t427.5 206.5zM1220 1590l125 1q-80 -173 -134 -245q-102 -133 -225 -133q58 68 75 147q5 24 11 72t11 72q12 60 42 75q22 11 95 11zM889 1905h100q-55 -218 -207 -218q-39 0 -112.5 25t-102.5 25q-64 0 -92 -70h-100q48 209 205 209q39 0 109 -23.5t106 -23.5q72 0 94 76z
" />
    <glyph glyph-name="glyph346" unicode="&#x1ee1;" horiz-adv-x="1109" 
d="M543 1053q-230 0 -230 -465q0 -463 230 -463q229 0 229 463q0 465 -229 465zM543 1200q241 0 364 -194q103 -163 103 -418q0 -256 -102 -419q-123 -194 -365 -194q-243 0 -365 194q-102 162 -102 419q0 256 103 418q122 194 364 194zM1020 1300l125 1q-80 -173 -134 -245
q-102 -133 -225 -133q58 68 75 147q5 24 11 72t11 72q12 60 42 75q22 11 95 11zM750 1602h100q-55 -218 -207 -218q-39 0 -112.5 25t-102.5 25q-64 0 -92 -70h-100q48 209 205 209q39 0 109 -23.5t106 -23.5q72 0 94 76z" />
    <glyph glyph-name="glyph347" unicode="&#x1ee2;" horiz-adv-x="1362" 
d="M680 1358q-185 0 -263 -233q-52 -154 -52 -386t52 -385q78 -233 263 -233t263 233q52 153 52 385t-52 386q-78 233 -263 233zM680 1503q265 0 430 -208q162 -207 162 -556q0 -312 -136 -520q-159 -244 -456 -244q-296 0 -455 244q-135 208 -135 520q0 351 162.5 557.5
t427.5 206.5zM1220 1590l125 1q-80 -173 -134 -245q-102 -133 -225 -133q58 68 75 147q5 24 11 72t11 72q12 60 42 75q22 11 95 11zM713 -125h146l-58 -160q-31 -86 -143 -86h-145l57 160q31 86 143 86z" />
    <glyph glyph-name="glyph348" unicode="&#x1ee3;" horiz-adv-x="1109" 
d="M543 1053q-230 0 -230 -465q0 -463 230 -463q229 0 229 463q0 465 -229 465zM543 1200q241 0 364 -194q103 -163 103 -418q0 -256 -102 -419q-123 -194 -365 -194q-243 0 -365 194q-102 162 -102 419q0 256 103 418q122 194 364 194zM1020 1300l125 1q-80 -173 -134 -245
q-102 -133 -225 -133q58 68 75 147q5 24 11 72t11 72q12 60 42 75q22 11 95 11zM567 -125h146l-58 -160q-31 -86 -143 -86h-145l57 160q31 86 143 86z" />
    <glyph glyph-name="glyph349" unicode="&#x1ee4;" horiz-adv-x="1376" 
d="M248 1479h270q-100 -244 -100 -715q0 -629 334 -629q325 0 325 653q0 362 -39 450q-43 94 -147 100q26 85 47 108q31 33 111 33h190q-41 -88 -41 -224q0 -80 7 -239.5t7 -239.5q0 -349 -88 -536q-124 -263 -432 -263q-292 0 -423 257q-99 195 -99 518q0 113 9 264.5
t9 179.5q0 70 -26 99.5t-96 39.5q25 88 59 116t123 28zM713 -125h146l-58 -160q-31 -86 -143 -86h-145l57 160q31 86 143 86z" />
    <glyph glyph-name="glyph350" unicode="&#x1ee5;" horiz-adv-x="1192" 
d="M215 1176h219q-45 -106 -45 -232v-561q0 -262 189 -262q206 0 206 293v465q0 75 -16 108q-23 47 -90 51q24 76 48 102q33 36 103 36h215q-40 -80 -40 -228v-680q0 -69 16 -94q21 -32 86 -35q-24 -90 -59 -120q-25 -22 -80 -22q-7 0 -22 1h-23q-67 0 -123 -18l8 145
q-110 -150 -299 -150q-198 0 -277 143q-59 108 -59 326v445q0 77 -16 105q-21 38 -90 45q23 78 46 103q31 34 103 34zM607 -125h146l-58 -160q-31 -86 -143 -86h-145l57 160q31 86 143 86z" />
    <glyph glyph-name="glyph351" unicode="&#x1ee6;" horiz-adv-x="1376" 
d="M248 1479h270q-100 -244 -100 -715q0 -629 334 -629q325 0 325 653q0 362 -39 450q-43 94 -147 100q26 85 47 108q31 33 111 33h190q-41 -88 -41 -224q0 -80 7 -239.5t7 -239.5q0 -349 -88 -536q-124 -263 -432 -263q-292 0 -423 257q-99 195 -99 518q0 113 9 264.5
t9 179.5q0 70 -26 99.5t-96 39.5q25 88 59 116t123 28zM778 1588q-13 -37 -61 -37h-72q-4 18 -4 33q0 48 49.5 130.5t49.5 118.5q0 57 -59 57q-48 0 -80 -41q-14 23 -14 56q0 37 35 63.5t86 26.5q79 0 127.5 -43.5t48.5 -109.5q0 -71 -80 -144t-80 -81q0 -23 54 -29z" />
    <glyph glyph-name="glyph352" unicode="&#x1ee7;" horiz-adv-x="1192" 
d="M215 1176h219q-45 -106 -45 -232v-561q0 -262 189 -262q206 0 206 293v465q0 75 -16 108q-23 47 -90 51q24 76 48 102q33 36 103 36h215q-40 -80 -40 -228v-680q0 -69 16 -94q21 -32 86 -35q-24 -90 -59 -120q-25 -22 -80 -22q-7 0 -22 1h-23q-67 0 -123 -18l8 145
q-110 -150 -299 -150q-198 0 -277 143q-59 108 -59 326v445q0 77 -16 105q-21 38 -90 45q23 78 46 103q31 34 103 34zM651 1335q-13 -37 -61 -37h-72q-4 18 -4 33q0 48 49.5 130.5t49.5 118.5q0 57 -59 57q-48 0 -80 -41q-14 23 -14 56q0 37 35 63.5t86 26.5
q79 0 127.5 -43.5t48.5 -109.5q0 -71 -80 -144t-80 -81q0 -23 54 -29z" />
    <glyph glyph-name="glyph353" unicode="&#x1ee8;" horiz-adv-x="1420" 
d="M248 1479h270q-100 -244 -100 -715q0 -629 334 -629q325 0 325 653q0 362 -39 450q-43 94 -147 100q26 85 47 108q31 33 111 33h190q-41 -88 -41 -224q0 -80 7 -239.5t7 -239.5q0 -349 -88 -536q-124 -263 -432 -263q-292 0 -423 257q-99 195 -99 518q0 113 9 264.5
t9 179.5q0 70 -26 99.5t-96 39.5q25 88 59 116t123 28zM1340 1590l125 1q-80 -173 -134 -245q-102 -133 -225 -133q58 68 75 147q5 24 11 72t11 72q12 60 42 75q22 11 95 11zM807 1972h153l-299 -358h-125l170 301q32 57 101 57z" />
    <glyph glyph-name="glyph354" unicode="&#x1ee9;" horiz-adv-x="1271" 
d="M215 1176h219q-45 -106 -45 -232v-561q0 -262 189 -262q206 0 206 293v465q0 75 -16 108q-23 47 -90 51q24 76 48 102q33 36 103 36h215q-40 -80 -40 -228v-680q0 -69 16 -94q21 -32 86 -35q-24 -90 -59 -120q-25 -22 -80 -22q-7 0 -22 1h-23q-67 0 -123 -18l8 145
q-110 -150 -299 -150q-198 0 -277 143q-59 108 -59 326v445q0 77 -16 105q-21 38 -90 45q23 78 46 103q31 34 103 34zM1210 1300l125 1q-80 -173 -134 -245q-102 -133 -225 -133q58 68 75 147q5 24 11 72t11 72q12 60 42 75q22 11 95 11zM715 1669h153l-299 -358h-125
l170 301q32 57 101 57z" />
    <glyph glyph-name="glyph355" unicode="&#x1eea;" horiz-adv-x="1420" 
d="M248 1479h270q-100 -244 -100 -715q0 -629 334 -629q325 0 325 653q0 362 -39 450q-43 94 -147 100q26 85 47 108q31 33 111 33h190q-41 -88 -41 -224q0 -80 7 -239.5t7 -239.5q0 -349 -88 -536q-124 -263 -432 -263q-292 0 -423 257q-99 195 -99 518q0 113 9 264.5
t9 179.5q0 70 -26 99.5t-96 39.5q25 88 59 116t123 28zM1340 1590l125 1q-80 -173 -134 -245q-102 -133 -225 -133q58 68 75 147q5 24 11 72t11 72q12 60 42 75q22 11 95 11zM416 1972h153q69 0 101 -57l170 -301h-125z" />
    <glyph glyph-name="glyph356" unicode="&#x1eeb;" horiz-adv-x="1271" 
d="M215 1176h219q-45 -106 -45 -232v-561q0 -262 189 -262q206 0 206 293v465q0 75 -16 108q-23 47 -90 51q24 76 48 102q33 36 103 36h215q-40 -80 -40 -228v-680q0 -69 16 -94q21 -32 86 -35q-24 -90 -59 -120q-25 -22 -80 -22q-7 0 -22 1h-23q-67 0 -123 -18l8 145
q-110 -150 -299 -150q-198 0 -277 143q-59 108 -59 326v445q0 77 -16 105q-21 38 -90 45q23 78 46 103q31 34 103 34zM1210 1300l125 1q-80 -173 -134 -245q-102 -133 -225 -133q58 68 75 147q5 24 11 72t11 72q12 60 42 75q22 11 95 11zM324 1669h153q69 0 101 -57
l170 -301h-125z" />
    <glyph glyph-name="glyph357" unicode="&#x1eec;" horiz-adv-x="1420" 
d="M248 1479h270q-100 -244 -100 -715q0 -629 334 -629q325 0 325 653q0 362 -39 450q-43 94 -147 100q26 85 47 108q31 33 111 33h190q-41 -88 -41 -224q0 -80 7 -239.5t7 -239.5q0 -349 -88 -536q-124 -263 -432 -263q-292 0 -423 257q-99 195 -99 518q0 113 9 264.5
t9 179.5q0 70 -26 99.5t-96 39.5q25 88 59 116t123 28zM1340 1590l125 1q-80 -173 -134 -245q-102 -133 -225 -133q58 68 75 147q5 24 11 72t11 72q12 60 42 75q22 11 95 11zM778 1588q-13 -37 -61 -37h-72q-4 18 -4 33q0 48 49.5 130.5t49.5 118.5q0 57 -59 57
q-48 0 -80 -41q-14 23 -14 56q0 37 35 63.5t86 26.5q79 0 127.5 -43.5t48.5 -109.5q0 -71 -80 -144t-80 -81q0 -23 54 -29z" />
    <glyph glyph-name="glyph358" unicode="&#x1eed;" horiz-adv-x="1271" 
d="M215 1176h219q-45 -106 -45 -232v-561q0 -262 189 -262q206 0 206 293v465q0 75 -16 108q-23 47 -90 51q24 76 48 102q33 36 103 36h215q-40 -80 -40 -228v-680q0 -69 16 -94q21 -32 86 -35q-24 -90 -59 -120q-25 -22 -80 -22q-7 0 -22 1h-23q-67 0 -123 -18l8 145
q-110 -150 -299 -150q-198 0 -277 143q-59 108 -59 326v445q0 77 -16 105q-21 38 -90 45q23 78 46 103q31 34 103 34zM1210 1300l125 1q-80 -173 -134 -245q-102 -133 -225 -133q58 68 75 147q5 24 11 72t11 72q12 60 42 75q22 11 95 11zM651 1335q-13 -37 -61 -37h-72
q-4 18 -4 33q0 48 49.5 130.5t49.5 118.5q0 57 -59 57q-48 0 -80 -41q-14 23 -14 56q0 37 35 63.5t86 26.5q79 0 127.5 -43.5t48.5 -109.5q0 -71 -80 -144t-80 -81q0 -23 54 -29z" />
    <glyph glyph-name="glyph359" unicode="&#x1eee;" horiz-adv-x="1420" 
d="M248 1479h270q-100 -244 -100 -715q0 -629 334 -629q325 0 325 653q0 362 -39 450q-43 94 -147 100q26 85 47 108q31 33 111 33h190q-41 -88 -41 -224q0 -80 7 -239.5t7 -239.5q0 -349 -88 -536q-124 -263 -432 -263q-292 0 -423 257q-99 195 -99 518q0 113 9 264.5
t9 179.5q0 70 -26 99.5t-96 39.5q25 88 59 116t123 28zM1340 1590l125 1q-80 -173 -134 -245q-102 -133 -225 -133q58 68 75 147q5 24 11 72t11 72q12 60 42 75q22 11 95 11zM919 1905h100q-55 -218 -207 -218q-39 0 -112.5 25t-102.5 25q-64 0 -92 -70h-100q48 209 205 209
q39 0 109 -23.5t106 -23.5q72 0 94 76z" />
    <glyph glyph-name="glyph360" unicode="&#x1eef;" horiz-adv-x="1271" 
d="M215 1176h219q-45 -106 -45 -232v-561q0 -262 189 -262q206 0 206 293v465q0 75 -16 108q-23 47 -90 51q24 76 48 102q33 36 103 36h215q-40 -80 -40 -228v-680q0 -69 16 -94q21 -32 86 -35q-24 -90 -59 -120q-25 -22 -80 -22q-7 0 -22 1h-23q-67 0 -123 -18l8 145
q-110 -150 -299 -150q-198 0 -277 143q-59 108 -59 326v445q0 77 -16 105q-21 38 -90 45q23 78 46 103q31 34 103 34zM1210 1300l125 1q-80 -173 -134 -245q-102 -133 -225 -133q58 68 75 147q5 24 11 72t11 72q12 60 42 75q22 11 95 11zM800 1602h100q-55 -218 -207 -218
q-39 0 -112.5 25t-102.5 25q-64 0 -92 -70h-100q48 209 205 209q39 0 109 -23.5t106 -23.5q72 0 94 76z" />
    <glyph glyph-name="glyph361" unicode="&#x1ef0;" horiz-adv-x="1420" 
d="M248 1479h270q-100 -244 -100 -715q0 -629 334 -629q325 0 325 653q0 362 -39 450q-43 94 -147 100q26 85 47 108q31 33 111 33h190q-41 -88 -41 -224q0 -80 7 -239.5t7 -239.5q0 -349 -88 -536q-124 -263 -432 -263q-292 0 -423 257q-99 195 -99 518q0 113 9 264.5
t9 179.5q0 70 -26 99.5t-96 39.5q25 88 59 116t123 28zM1340 1590l125 1q-80 -173 -134 -245q-102 -133 -225 -133q58 68 75 147q5 24 11 72t11 72q12 60 42 75q22 11 95 11zM713 -125h146l-58 -160q-31 -86 -143 -86h-145l57 160q31 86 143 86z" />
    <glyph glyph-name="glyph362" unicode="&#x1ef1;" horiz-adv-x="1271" 
d="M215 1176h219q-45 -106 -45 -232v-561q0 -262 189 -262q206 0 206 293v465q0 75 -16 108q-23 47 -90 51q24 76 48 102q33 36 103 36h215q-40 -80 -40 -228v-680q0 -69 16 -94q21 -32 86 -35q-24 -90 -59 -120q-25 -22 -80 -22q-7 0 -22 1h-23q-67 0 -123 -18l8 145
q-110 -150 -299 -150q-198 0 -277 143q-59 108 -59 326v445q0 77 -16 105q-21 38 -90 45q23 78 46 103q31 34 103 34zM1210 1300l125 1q-80 -173 -134 -245q-102 -133 -225 -133q58 68 75 147q5 24 11 72t11 72q12 60 42 75q22 11 95 11zM607 -125h146l-58 -160
q-31 -86 -143 -86h-145l57 160q31 86 143 86z" />
    <glyph glyph-name="glyph363" unicode="&#x1ef2;" horiz-adv-x="1036" 
d="M113 1479h171q-5 -25 -5 -39q0 -37 45 -131l139 -289q42 -87 119 -264l190 444q19 44 19 76q0 55 -99 55q31 91 60 117q36 31 127 31h184q-45 -77 -86 -168l-322 -715v-283q0 -88 18 -119q25 -41 105 -49q-27 -85 -51 -110q-33 -35 -113 -35h-249q49 102 49 216v380
l-301 606q-35 70 -70 98q-42 33 -113 33q22 88 57.5 117t125.5 29zM226 1972h153q69 0 101 -57l170 -301h-125z" />
    <glyph glyph-name="glyph364" unicode="&#x1ef3;" horiz-adv-x="1036" 
d="M141 1176l176 -1q-8 -45 -8 -67q0 -41 17 -94l174 -539q22 -67 51 -190l231 585q25 63 25 101q0 67 -125 74q24 76 52 101q32 30 108 30h231q-57 -114 -82 -175l-456 -1114q-64 -157 -128 -225q-90 -96 -231 -96q-118 0 -244 53q41 90 88 90q19 0 58 -6t59 -6
q188 0 301 334l-291 860q-26 77 -58 109q-41 40 -114 40q28 81 54 105q33 31 112 31zM274 1669h153q69 0 101 -57l170 -301h-125z" />
    <glyph glyph-name="glyph365" unicode="&#x1ef4;" horiz-adv-x="1036" 
d="M113 1479h171q-5 -25 -5 -39q0 -37 45 -131l139 -289q42 -87 119 -264l190 444q19 44 19 76q0 55 -99 55q31 91 60 117q36 31 127 31h184q-45 -77 -86 -168l-322 -715v-283q0 -88 18 -119q25 -41 105 -49q-27 -85 -51 -110q-33 -35 -113 -35h-249q49 102 49 216v380
l-301 606q-35 70 -70 98q-42 33 -113 33q22 88 57.5 117t125.5 29zM570 -125h146l-58 -160q-31 -86 -143 -86h-145l57 160q31 86 143 86z" />
    <glyph glyph-name="glyph366" unicode="&#x1ef5;" horiz-adv-x="1036" 
d="M141 1176l176 -1q-8 -45 -8 -67q0 -41 17 -94l174 -539q22 -67 51 -190l231 585q25 63 25 101q0 67 -125 74q24 76 52 101q32 30 108 30h231q-57 -114 -82 -175l-456 -1114q-64 -157 -128 -225q-90 -96 -231 -96q-118 0 -244 53q41 90 88 90q19 0 58 -6t59 -6
q188 0 301 334l-291 860q-26 77 -58 109q-41 40 -114 40q28 81 54 105q33 31 112 31zM753 -125h146l-58 -160q-31 -86 -143 -86h-145l57 160q31 86 143 86z" />
    <glyph glyph-name="glyph367" unicode="&#x1ef6;" horiz-adv-x="1036" 
d="M113 1479h171q-5 -25 -5 -39q0 -37 45 -131l139 -289q42 -87 119 -264l190 444q19 44 19 76q0 55 -99 55q31 91 60 117q36 31 127 31h184q-45 -77 -86 -168l-322 -715v-283q0 -88 18 -119q25 -41 105 -49q-27 -85 -51 -110q-33 -35 -113 -35h-249q49 102 49 216v380
l-301 606q-35 70 -70 98q-42 33 -113 33q22 88 57.5 117t125.5 29zM608 1588q-13 -37 -61 -37h-72q-4 18 -4 33q0 48 49.5 130.5t49.5 118.5q0 57 -59 57q-48 0 -80 -41q-14 23 -14 56q0 37 35 63.5t86 26.5q79 0 127.5 -43.5t48.5 -109.5q0 -71 -80 -144t-80 -81
q0 -23 54 -29z" />
    <glyph glyph-name="glyph368" unicode="&#x1ef7;" horiz-adv-x="1036" 
d="M141 1176l176 -1q-8 -45 -8 -67q0 -41 17 -94l174 -539q22 -67 51 -190l231 585q25 63 25 101q0 67 -125 74q24 76 52 101q32 30 108 30h231q-57 -114 -82 -175l-456 -1114q-64 -157 -128 -225q-90 -96 -231 -96q-118 0 -244 53q41 90 88 90q19 0 58 -6t59 -6
q188 0 301 334l-291 860q-26 77 -58 109q-41 40 -114 40q28 81 54 105q33 31 112 31zM611 1335q-13 -37 -61 -37h-72q-4 18 -4 33q0 48 49.5 130.5t49.5 118.5q0 57 -59 57q-48 0 -80 -41q-14 23 -14 56q0 37 35 63.5t86 26.5q79 0 127.5 -43.5t48.5 -109.5q0 -71 -80 -144
t-80 -81q0 -23 54 -29z" />
    <glyph glyph-name="glyph369" unicode="&#x1ef8;" horiz-adv-x="1036" 
d="M113 1479h171q-5 -25 -5 -39q0 -37 45 -131l139 -289q42 -87 119 -264l190 444q19 44 19 76q0 55 -99 55q31 91 60 117q36 31 127 31h184q-45 -77 -86 -168l-322 -715v-283q0 -88 18 -119q25 -41 105 -49q-27 -85 -51 -110q-33 -35 -113 -35h-249q49 102 49 216v380
l-301 606q-35 70 -70 98q-42 33 -113 33q22 88 57.5 117t125.5 29zM739 1905h100q-55 -218 -207 -218q-39 0 -112.5 25t-102.5 25q-64 0 -92 -70h-100q48 209 205 209q39 0 109 -23.5t106 -23.5q72 0 94 76z" />
    <glyph glyph-name="glyph370" unicode="&#x1ef9;" horiz-adv-x="1036" 
d="M141 1176l176 -1q-8 -45 -8 -67q0 -41 17 -94l174 -539q22 -67 51 -190l231 585q25 63 25 101q0 67 -125 74q24 76 52 101q32 30 108 30h231q-57 -114 -82 -175l-456 -1114q-64 -157 -128 -225q-90 -96 -231 -96q-118 0 -244 53q41 90 88 90q19 0 58 -6t59 -6
q188 0 301 334l-291 860q-26 77 -58 109q-41 40 -114 40q28 81 54 105q33 31 112 31zM750 1602h100q-55 -218 -207 -218q-39 0 -112.5 25t-102.5 25q-64 0 -92 -70h-100q48 209 205 209q39 0 109 -23.5t106 -23.5q72 0 94 76z" />
    </font>
</defs>
</svg>
