<?xml version="1.0" encoding="utf-8"?>
<!-- Generator: Adobe Illustrator 21.0.0, SVG Export Plug-In . SVG Version: 6.00 Build 0)  -->
<svg version="1.1" id="Capa_1" xmlns="http://www.w3.org/2000/svg" xmlns:xlink="http://www.w3.org/1999/xlink" x="0px" y="0px"
	 viewBox="0 0 30.2 30.2" style="enable-background:new 0 0 30.2 30.2;" xml:space="preserve">
<style type="text/css">
	.st0{fill:#1E1D61;}
</style>
<g>
	<g>
		<path class="st0" d="M30,28.2l-8.8-8.8c1.7-2.1,2.7-4.7,2.7-7.5C23.9,5.4,18.6,0,12,0S0.1,5.4,0.1,11.9S5.4,23.9,12,23.9
			c2.8,0,5.4-1,7.5-2.7l8.8,8.8c0.2,0.2,0.6,0.2,0.9,0l0.9-0.9C30.3,28.8,30.3,28.4,30,28.2z M12,21.4c-5.2,0-9.4-4.2-9.4-9.4
			S6.8,2.5,12,2.5s9.4,4.2,9.4,9.4S17.2,21.4,12,21.4z"/>
	</g>
</g>
</svg>
