<?xml version="1.0" encoding="utf-8"?>
<!-- Generator: Adobe Illustrator 21.0.0, SVG Export Plug-In . SVG Version: 6.00 Build 0)  -->
<svg version="1.1" id="Capa_1" xmlns="http://www.w3.org/2000/svg" xmlns:xlink="http://www.w3.org/1999/xlink" x="0px" y="0px"
	 viewBox="0 0 512 512" style="enable-background:new 0 0 512 512;" xml:space="preserve">
<style type="text/css">
	.st0{fill:#48EACD;}
</style>
<g>
	<path class="st0" d="M453.5,338l58.5-58.5l-64.1-64.1l-22.5,22.5l-14.1-50.1l32.9-32.9c30-30,47.6-65.5,62.1-99.4
		c5.6-13.2,2.7-28.2-7.4-38.3l-3.6-3.6c-10.1-10.1-25.2-13-38.3-7.4l-3.5,1.5C415,24.3,383,45.1,358.5,69.6l-32.7,32.7l-50.1-14
		l22.5-22.5L234,1.6l-58.6,58.6L58.6,27.4L3.1,82.8l211.1,131l-44.4,44.4c-9.7,9.7-18.6,20.2-26.9,31.7l-111.6,7L0,328.3l99.6,66.4
		l15.7,15.7l66.4,99.6l31.3-31.3l6.6-105.9c12.4-8.3,24.4-17.8,35.7-29.1l44.4-44.4l131,211.1l55.5-55.5L453.5,338z M447.9,258.2
		l21.4,21.4l-25.1,25.1l-9.4-33.4L447.9,258.2z M234,44.4l21.4,21.4l-13.1,13.1l-33.4-9.4L234,44.4z M51.5,77.3l16-16l233.9,65.5
		l-65.1,65.1L51.5,77.3z M123.2,321.5c-5.6,10.2-10.9,21.2-16.2,33.2l-2.7,6.8L51.1,326L123.2,321.5z M184,458.9l-33.6-50.5l6.9-2.7
		l0.6-0.2c10-4.4,20.2-9.1,30.4-14.3L184,458.9z M234,322.4c-26,26-57.6,42-88,55.3l-14.8,5.8l-2.1-2.1l5.8-14.8
		c16.7-37.8,34.1-64.6,56.4-87L379.9,91c21.8-21.8,50.6-40.4,85.6-55.5L469,34c1.7-0.7,3.7-0.4,5,1l3.6,3.6c1.3,1.3,1.7,3.3,1,5
		c-15.4,36-30.8,65-55.7,89.9L234,322.4z M436.4,462.1L321.8,277.4l65.1-65.1L452.4,446L436.4,462.1z"/>
</g>
</svg>
