<?xml version="1.0" encoding="utf-8"?>
<!-- Generator: Adobe Illustrator 21.0.0, SVG Export Plug-In . SVG Version: 6.00 Build 0)  -->
<svg version="1.1" id="Capa_1" xmlns="http://www.w3.org/2000/svg" xmlns:xlink="http://www.w3.org/1999/xlink" x="0px" y="0px"
	 viewBox="0 0 46.8 46.8" style="enable-background:new 0 0 46.8 46.8;" xml:space="preserve">
<style type="text/css">
	.st0{fill:#48EACD;}
</style>
<path class="st0" d="M42.7,20.9c1.4-4.1,2.7-8.1,4-12.2c0.1-0.3,0.1-0.8-0.1-1.1c-0.2-0.1-0.7-0.1-1.1-0.1
	c-4.1,1.3-8.2,2.6-12.3,3.9c-1,0.3-1.1,0.9-0.4,1.7c0.6,0.7,1.3,1.3,2,2c-4.5,4.5-6.2,6.2-10.8,10.8l-7.3-7.3L0,35.4l3.9,3.9
	l12.8-12.8l7.5,7.5l4-4l0,0c4.5-4.5,6.2-6.2,10.8-10.8c0.8,0.8,1.4,1.5,2.1,2.1C41.8,22,42.4,21.9,42.7,20.9z"/>
</svg>
