<?xml version="1.0" encoding="utf-8"?>
<!-- Generator: Adobe Illustrator 21.0.0, SVG Export Plug-In . SVG Version: 6.00 Build 0)  -->
<svg version="1.1" id="Layer_1" xmlns="http://www.w3.org/2000/svg" xmlns:xlink="http://www.w3.org/1999/xlink" x="0px" y="0px"
	 viewBox="0 0 73.4 70" style="enable-background:new 0 0 73.4 70;" xml:space="preserve">
<style type="text/css">
	.st0{fill:#1E1D61;}
	.st1{fill:#48EACD;}
	.st2{fill:#FF6C00;}
	.st3{clip-path:url(#SVGID_2_);fill:#FF6C00;}
	.st4{clip-path:url(#SVGID_2_);fill:#1E1D61;}
</style>
<polygon class="st0" points="0,4.7 6.6,46.5 64.2,46.5 73.4,0 "/>
<polygon class="st1" points="13.2,39.1 14.1,28.6 8,11 12.3,11 15.5,22.1 15.6,22.1 18.8,11 23.1,11 17.1,28.7 17.9,39.1 "/>
<polygon class="st1" points="20.3,38 21.1,13.6 33.4,13.6 32.5,16.9 24.6,16.9 24.6,23.4 31.7,23.3 30.2,27.8 24.6,28.1 24.6,34.5 
	31.5,34.5 31.5,38 "/>
<path class="st1" d="M29,41.5l6.5-29.1h3.5l6.5,29.1h-4.6L40,35.2h-5.7l-0.9,6.3H29z M39.3,31.3l-2-10.5h-0.1l-2,10.5H39.3z"/>
<polygon class="st1" points="44.2,39.1 44.2,12.8 47.7,12.8 47.7,24.5 52,24.5 52,14.8 55.5,14.8 55.5,26 55.5,37.2 52,37.2 
	52,27.6 47.7,27.6 47.7,39.1 "/>
<polygon class="st2" points="58.3,31.1 58.2,10.8 62.6,11.1 60,31.2 "/>
<g>
	<defs>
		<rect id="SVGID_1_" width="73.4" height="69.9"/>
	</defs>
	<clipPath id="SVGID_2_">
		<use xlink:href="#SVGID_1_"  style="overflow:visible;"/>
	</clipPath>
	<path class="st3" d="M60.8,35.7c0,1.1-0.9,1.9-1.9,1.9S57,36.7,57,35.7c0-1.1,0.9-1.9,1.9-1.9S60.8,34.6,60.8,35.7"/>
	<polygon class="st4" points="9.3,52.9 7,52.9 7,50.9 14,50.9 14,52.9 11.7,52.9 11.7,59.8 9.3,59.8 	"/>
	<path class="st4" d="M25,59.8h-2.6l-1.2-2h-0.9v2H18v-8.8h3.3c1.2,0,2.1,0.3,2.8,1c0.6,0.6,1,1.5,1,2.5c0,1.3-0.5,2.3-1.6,2.9
		L25,59.8z M21.2,55.9c1,0,1.5-0.5,1.5-1.5c0-1-0.5-1.5-1.5-1.5h-0.9v2.9H21.2z"/>
	<path class="st4" d="M30.1,59.8h-2.3l4.3-9c0,0,0-0.1,0.1-0.1c0,0,0.1,0,0.1,0.1l4.3,9H34L33.7,59h-3.3L30.1,59.8z M32,55.2
		l-0.9,2.1h1.8L32,55.2z"/>
	<path class="st4" d="M41.6,59.9C41.6,59.9,41.5,59.9,41.6,59.9c-0.1,0.1-0.1,0-0.2,0l-4.1-8.9l2.5,0l1.8,4.1l1.8-4.1l2.4,0
		L41.6,59.9z"/>
	<polygon class="st4" points="48.5,50.9 54.7,50.9 54.7,52.9 50.9,52.9 50.9,55 54.1,55 54.1,56.9 50.9,56.9 50.9,57.8 54.9,57.8 
		54.9,59.8 48.5,59.8 	"/>
	<polygon class="st4" points="57.4,50.9 59.8,50.9 59.8,57.8 63.6,57.8 62.9,59.8 57.4,59.8 	"/>
	<polygon class="st4" points="8.6,68.5 8.6,66.7 7,63.6 8.1,63.6 9.1,65.7 9.1,65.7 10.1,63.6 11.3,63.6 9.6,66.7 9.6,68.5 	"/>
	<path class="st4" d="M14.5,66.5v0.3c0,1.1-0.6,1.9-1.8,1.9c-1.2,0-1.8-0.7-1.8-1.9v-0.3c0-1.1,0.6-1.8,1.8-1.8
		C13.9,64.7,14.5,65.4,14.5,66.5 M11.9,66.5v0.2c0,0.5,0.2,1.1,0.7,1.1c0.6,0,0.7-0.5,0.7-1.1v-0.2c0-0.6-0.2-1.1-0.7-1.1
		C12.1,65.4,11.9,66,11.9,66.5"/>
	<path class="st4" d="M18.4,68.5h-1V68h0c-0.1,0.3-0.5,0.6-1.1,0.6c-0.8,0-1.3-0.5-1.3-1.4v-2.5h1V67c0,0.6,0.3,0.8,0.7,0.8
		c0.4,0,0.7-0.3,0.7-0.8v-2.2h1V68.5z"/>
	<path class="st4" d="M19.5,63.8h1v0.9h0.7v0.8h-0.7v1.8c0,0.4,0.2,0.5,0.5,0.5c0.1,0,0.2,0,0.2,0v0.7c-0.1,0-0.3,0-0.5,0
		c-1,0-1.3-0.3-1.3-1.1v-1.9h-0.5v-0.8h0.6V63.8z"/>
	<path class="st4" d="M21.8,63.4h1v1.9h0c0.1-0.3,0.4-0.6,1.1-0.6c0.8,0,1.3,0.5,1.3,1.4v2.4h-1v-2.2c0-0.6-0.3-0.8-0.7-0.8
		c-0.4,0-0.7,0.3-0.7,0.8v2.2h-1V63.4z"/>
	<path class="st4" d="M30.2,68.1c-0.4,0.3-0.9,0.5-1.5,0.5c-1,0-1.7-0.5-1.7-1.4c0-0.6,0.4-1,0.9-1.3c0.1,0,0.1-0.1,0.2-0.1
		c-0.3-0.4-0.6-0.7-0.6-1.1c0-0.7,0.6-1.1,1.4-1.1c0.7,0,1.4,0.4,1.4,1.1c0,0.6-0.5,1-1,1.3l0.9,1c0.1-0.2,0.2-0.6,0.2-1v-0.3h0.8
		v0.3c0,0.6-0.1,1.1-0.4,1.5l0.9,0.9h-1.1L30.2,68.1z M27.9,67.2c0,0.5,0.4,0.7,0.9,0.7c0.3,0,0.7-0.1,0.9-0.3l-1.1-1.2
		c0,0-0.1,0-0.1,0.1C28.1,66.6,27.9,66.8,27.9,67.2 M29.4,64.8c0-0.3-0.2-0.5-0.5-0.5c-0.3,0-0.5,0.2-0.5,0.5c0,0.2,0.1,0.4,0.5,0.7
		C29.2,65.3,29.4,65.1,29.4,64.8"/>
	<polygon class="st4" points="36.4,68.5 33.3,68.5 33.3,63.6 34.3,63.6 34.3,67.7 36.4,67.7 	"/>
	<path class="st4" d="M37.4,63.3c0.4,0,0.6,0.2,0.6,0.5c0,0.3-0.2,0.5-0.6,0.5c-0.4,0-0.6-0.2-0.6-0.5C36.8,63.5,37,63.3,37.4,63.3
		 M36.9,64.7h1v3.8h-1V64.7z"/>
	<path class="st4" d="M39,65.5h-0.6v-0.8H39v-0.4c0-0.8,0.4-1.1,1.3-1.1c0.2,0,0.4,0,0.4,0V64c-0.1,0-0.1,0-0.2,0
		c-0.4,0-0.5,0.1-0.5,0.4v0.3h0.7v0.8H40v3h-1V65.5z"/>
	<path class="st4" d="M41,66.8v-0.3c0-1.2,0.7-1.8,1.7-1.8c1.1,0,1.7,0.7,1.7,1.8v0.4h-2.4V67c0,0.5,0.3,0.9,0.8,0.9
		c0.4,0,0.6-0.2,0.7-0.5h0.9c0,0.5-0.5,1.2-1.6,1.2C41.6,68.6,41,67.9,41,66.8 M43.4,66.2L43.4,66.2c0-0.5-0.3-0.8-0.7-0.8
		c-0.4,0-0.7,0.3-0.7,0.8v0H43.4z"/>
	<path class="st4" d="M46.4,64.7c0.9,0,1.5,0.4,1.5,1.2h-0.9c0-0.2-0.2-0.5-0.6-0.5c-0.4,0-0.6,0.2-0.6,0.4c0,0.4,0.6,0.4,1,0.5
		c0.7,0.1,1.2,0.4,1.2,1.1c0,0.8-0.6,1.2-1.7,1.2c-1,0-1.6-0.5-1.6-1.1h1c0,0.3,0.3,0.5,0.6,0.5c0.4,0,0.6-0.2,0.6-0.4
		c0-0.4-0.5-0.4-0.9-0.5c-0.7-0.1-1.2-0.4-1.2-1.1C44.8,65,45.5,64.7,46.4,64.7"/>
	<path class="st4" d="M48.7,63.8h1v0.9h0.7v0.8h-0.7v1.8c0,0.4,0.2,0.5,0.5,0.5c0.1,0,0.2,0,0.2,0v0.7c-0.1,0-0.3,0-0.5,0
		c-1,0-1.3-0.3-1.3-1.1v-1.9h-0.5v-0.8h0.6V63.8z"/>
	<path class="st4" d="M53.3,68.4l-0.1,0.3c-0.3,0.7-0.6,1.2-1.6,1.2c-0.2,0-0.4,0-0.5,0v-0.7c0.1,0,0.2,0,0.3,0
		c0.5,0,0.6-0.2,0.7-0.5l0-0.1l-1.3-3.8h1.1l0.8,3h0l0.8-3h1.1C54.5,64.7,53.3,68.4,53.3,68.4"/>
	<rect x="55" y="63.4" class="st4" width="1" height="5.1"/>
	<path class="st4" d="M56.6,66.8v-0.3c0-1.2,0.7-1.8,1.7-1.8c1.1,0,1.7,0.7,1.7,1.8v0.4h-2.4V67c0,0.5,0.3,0.9,0.8,0.9
		c0.4,0,0.6-0.2,0.7-0.5H60c0,0.5-0.5,1.2-1.6,1.2C57.2,68.6,56.6,67.9,56.6,66.8 M59,66.2L59,66.2c0-0.5-0.3-0.8-0.7-0.8
		c-0.4,0-0.7,0.3-0.7,0.8v0H59z"/>
	<path class="st4" d="M62,64.7c0.9,0,1.5,0.4,1.5,1.2h-0.9c0-0.2-0.2-0.5-0.6-0.5c-0.4,0-0.6,0.2-0.6,0.4c0,0.4,0.6,0.4,1,0.5
		c0.7,0.1,1.2,0.4,1.2,1.1c0,0.8-0.6,1.2-1.7,1.2c-1,0-1.6-0.5-1.6-1.1h1c0,0.3,0.3,0.5,0.6,0.5c0.4,0,0.6-0.2,0.6-0.4
		c0-0.4-0.5-0.4-0.9-0.5c-0.7-0.1-1.2-0.4-1.2-1.1C60.4,65,61.2,64.7,62,64.7"/>
</g>
</svg>
