<?xml version="1.0" encoding="utf-8"?>
<!-- Generator: Adobe Illustrator 21.0.0, SVG Export Plug-In . SVG Version: 6.00 Build 0)  -->
<svg version="1.1" id="Layer_1" xmlns="http://www.w3.org/2000/svg" xmlns:xlink="http://www.w3.org/1999/xlink" x="0px" y="0px"
	 viewBox="0 0 73.4 70" style="enable-background:new 0 0 73.4 70;" xml:space="preserve">
<style type="text/css">
	.st0{fill:#48EACD;}
	.st1{fill:#1E1D61;}
	.st2{fill:#FF6C00;}
	.st3{clip-path:url(#SVGID_2_);fill:#FF6C00;}
	.st4{clip-path:url(#SVGID_2_);fill:#48EACD;}
</style>
<polygon class="st0" points="73.2,0.4 0.2,5.1 6.8,46.6 64,46.6 "/>
<polygon class="st1" points="13.3,39.3 14.3,28.9 8.1,11.3 12.4,11.3 15.6,22.4 15.7,22.4 18.9,11.3 23.1,11.3 17.2,28.9 18,39.3 
	"/>
<polygon class="st1" points="20.3,38.2 21.1,13.9 33.4,13.9 32.5,17.2 24.6,17.2 24.6,23.7 31.7,23.6 30.2,28.1 24.6,28.3 
	24.6,34.7 31.5,34.7 31.5,38.2 "/>
<path class="st1" d="M29,41.7l6.5-28.9h3.5l6.5,28.9h-4.6L40,35.5h-5.7l-0.9,6.2H29z M39.2,31.6l-2-10.5h-0.1l-2,10.5H39.2z"/>
<polygon class="st1" points="44.1,39.3 44.1,13.2 47.6,13.2 47.6,24.8 51.9,24.8 51.9,15.1 55.3,15.1 55.3,26.2 55.3,37.4 
	51.9,37.4 51.9,27.8 47.6,27.8 47.6,39.3 "/>
<polygon class="st2" points="58.2,31.4 58.1,11.2 62.4,11.4 59.9,31.5 "/>
<g>
	<defs>
		<rect id="SVGID_1_" x="0.2" y="0.4" width="73" height="69.5"/>
	</defs>
	<clipPath id="SVGID_2_">
		<use xlink:href="#SVGID_1_"  style="overflow:visible;"/>
	</clipPath>
	<path class="st3" d="M60.7,35.9c0,1.1-0.9,1.9-1.9,1.9s-1.9-0.9-1.9-1.9c0-1.1,0.9-1.9,1.9-1.9S60.7,34.8,60.7,35.9"/>
	<polygon class="st4" points="9.4,53.1 7.1,53.1 7.1,51.1 14.1,51.1 14.1,53.1 11.8,53.1 11.8,59.9 9.4,59.9 	"/>
	<path class="st4" d="M25,59.9h-2.5l-1.2-2h-0.9v2H18v-8.8h3.3c1.2,0,2.1,0.3,2.7,1c0.6,0.6,1,1.4,1,2.5c0,1.3-0.5,2.3-1.6,2.8
		L25,59.9z M21.3,56c1,0,1.4-0.5,1.4-1.5c0-1-0.5-1.5-1.4-1.5h-0.9V56H21.3z"/>
	<path class="st4" d="M30.1,59.9h-2.3l4.3-8.9c0,0,0-0.1,0.1-0.1c0,0,0.1,0,0.1,0.1l4.3,8.9H34l-0.3-0.8h-3.3L30.1,59.9z M32,55.3
		l-0.9,2h1.8L32,55.3z"/>
	<path class="st4" d="M41.5,59.9C41.5,60,41.5,60,41.5,59.9c-0.1,0.1-0.1,0-0.2,0l-4.1-8.9l2.5,0l1.8,4.1l1.7-4.1l2.4,0L41.5,59.9z"
		/>
	<polygon class="st4" points="48.5,51.1 54.6,51.1 54.6,53.1 50.8,53.1 50.8,55.1 54,55.1 54,57 50.8,57 50.8,57.9 54.8,57.9 
		54.8,59.9 48.5,59.9 	"/>
	<polygon class="st4" points="57.3,51.1 59.7,51.1 59.7,57.9 63.4,57.9 62.8,59.9 57.3,59.9 	"/>
	<polygon class="st4" points="8.7,68.6 8.7,66.8 7.1,63.7 8.2,63.7 9.2,65.7 9.3,65.7 10.3,63.7 11.4,63.7 9.8,66.7 9.8,68.6 	"/>
	<path class="st4" d="M14.6,66.5v0.2c0,1.1-0.6,1.8-1.7,1.8c-1.2,0-1.8-0.7-1.8-1.8v-0.2c0-1.1,0.6-1.8,1.8-1.8
		C14,64.7,14.6,65.5,14.6,66.5 M12.1,66.5v0.2c0,0.5,0.2,1.1,0.7,1.1c0.6,0,0.7-0.5,0.7-1.1v-0.2c0-0.5-0.2-1.1-0.7-1.1
		S12.1,66,12.1,66.5"/>
	<path class="st4" d="M18.5,68.6h-1V68h0c-0.1,0.3-0.5,0.6-1.1,0.6c-0.8,0-1.3-0.5-1.3-1.3v-2.5h1V67c0,0.6,0.3,0.8,0.7,0.8
		c0.4,0,0.7-0.3,0.7-0.8v-2.2h1V68.6z"/>
	<path class="st4" d="M19.5,63.9h1v0.9h0.7v0.8h-0.7v1.8c0,0.4,0.2,0.5,0.5,0.5c0.1,0,0.2,0,0.2,0v0.7c-0.1,0-0.2,0-0.5,0
		c-1,0-1.3-0.3-1.3-1.1v-1.9H19v-0.8h0.6V63.9z"/>
	<path class="st4" d="M21.8,63.4h1v1.9h0c0.1-0.3,0.4-0.6,1.1-0.6c0.8,0,1.3,0.5,1.3,1.4v2.4h-1v-2.2c0-0.6-0.3-0.8-0.7-0.8
		c-0.4,0-0.7,0.3-0.7,0.8v2.2h-1V63.4z"/>
	<path class="st4" d="M30.2,68.2c-0.4,0.3-0.9,0.5-1.5,0.5c-1,0-1.7-0.5-1.7-1.4c0-0.6,0.4-1,0.9-1.3c0.1,0,0.1-0.1,0.2-0.1
		c-0.3-0.4-0.6-0.7-0.6-1.1c0-0.7,0.6-1.1,1.4-1.1c0.7,0,1.3,0.4,1.3,1.1c0,0.6-0.5,1-1,1.3l0.9,1c0.1-0.2,0.2-0.6,0.2-1v-0.2h0.8
		v0.3c0,0.6-0.1,1.1-0.4,1.5l0.9,0.9h-1.1L30.2,68.2z M28,67.2c0,0.5,0.4,0.7,0.9,0.7c0.3,0,0.7-0.1,0.9-0.3l-1.1-1.2
		c0,0-0.1,0-0.1,0.1C28.2,66.6,28,66.9,28,67.2 M29.5,64.8c0-0.3-0.2-0.5-0.5-0.5c-0.3,0-0.5,0.2-0.5,0.5c0,0.2,0.1,0.4,0.4,0.7
		C29.2,65.4,29.5,65.2,29.5,64.8"/>
	<polygon class="st4" points="36.4,68.6 33.3,68.6 33.3,63.7 34.3,63.7 34.3,67.7 36.4,67.7 	"/>
	<path class="st4" d="M37.4,63.3c0.4,0,0.6,0.2,0.6,0.5c0,0.3-0.2,0.5-0.6,0.5c-0.3,0-0.6-0.2-0.6-0.5C36.8,63.5,37,63.3,37.4,63.3
		 M36.9,64.8h1v3.8h-1V64.8z"/>
	<path class="st4" d="M39,65.6h-0.6v-0.8H39v-0.4c0-0.8,0.4-1.1,1.3-1.1c0.2,0,0.4,0,0.4,0v0.7c0,0-0.1,0-0.2,0
		c-0.3,0-0.5,0.1-0.5,0.4v0.3h0.7v0.8H40v3h-1V65.6z"/>
	<path class="st4" d="M40.9,66.8v-0.3c0-1.1,0.7-1.8,1.7-1.8c1.1,0,1.7,0.7,1.7,1.8v0.4h-2.4V67c0,0.5,0.3,0.9,0.8,0.9
		c0.4,0,0.6-0.2,0.7-0.5h0.9c0,0.5-0.5,1.2-1.6,1.2C41.6,68.6,40.9,68,40.9,66.8 M43.3,66.3L43.3,66.3c0-0.5-0.3-0.8-0.7-0.8
		c-0.4,0-0.7,0.3-0.7,0.8v0H43.3z"/>
	<path class="st4" d="M46.3,64.7c0.9,0,1.5,0.4,1.5,1.2h-0.9c0-0.2-0.2-0.5-0.6-0.5c-0.4,0-0.6,0.2-0.6,0.4c0,0.4,0.6,0.4,1,0.5
		c0.7,0.1,1.2,0.4,1.2,1.1c0,0.8-0.6,1.2-1.6,1.2c-1,0-1.6-0.5-1.6-1.1h1c0,0.3,0.3,0.5,0.6,0.5c0.4,0,0.6-0.2,0.6-0.4
		c0-0.4-0.4-0.4-0.9-0.5c-0.7-0.1-1.2-0.4-1.2-1.1C44.7,65,45.5,64.7,46.3,64.7"/>
	<path class="st4" d="M48.7,63.9h1v0.9h0.7v0.8h-0.7v1.8c0,0.4,0.2,0.5,0.5,0.5c0.1,0,0.2,0,0.2,0v0.7c-0.1,0-0.2,0-0.5,0
		c-1,0-1.3-0.3-1.3-1.1v-1.9h-0.5v-0.8h0.6V63.9z"/>
	<path class="st4" d="M53.2,68.4l-0.1,0.3c-0.3,0.7-0.6,1.2-1.6,1.2c-0.2,0-0.4,0-0.5,0v-0.7c0.1,0,0.2,0,0.3,0
		c0.5,0,0.6-0.2,0.7-0.5l0-0.1l-1.3-3.8h1.1l0.8,2.9h0l0.8-2.9h1.1C54.4,64.8,53.2,68.4,53.2,68.4"/>
	<rect x="54.8" y="63.4" class="st4" width="1" height="5.1"/>
	<path class="st4" d="M56.5,66.8v-0.3c0-1.1,0.7-1.8,1.7-1.8c1.1,0,1.7,0.7,1.7,1.8v0.4h-2.4V67c0,0.5,0.3,0.9,0.8,0.9
		c0.4,0,0.6-0.2,0.7-0.5h0.9c0,0.5-0.5,1.2-1.6,1.2C57.1,68.6,56.5,68,56.5,66.8 M58.9,66.3L58.9,66.3c0-0.5-0.3-0.8-0.7-0.8
		c-0.4,0-0.7,0.3-0.7,0.8v0H58.9z"/>
	<path class="st4" d="M61.8,64.7c0.9,0,1.5,0.4,1.5,1.2h-0.9c0-0.2-0.2-0.5-0.6-0.5c-0.4,0-0.6,0.2-0.6,0.4c0,0.4,0.6,0.4,1,0.5
		c0.7,0.1,1.2,0.4,1.2,1.1c0,0.8-0.6,1.2-1.6,1.2c-1,0-1.6-0.5-1.6-1.1h1c0,0.3,0.3,0.5,0.6,0.5c0.4,0,0.6-0.2,0.6-0.4
		c0-0.4-0.4-0.4-0.9-0.5c-0.7-0.1-1.2-0.4-1.2-1.1C60.3,65,61,64.7,61.8,64.7"/>
</g>
</svg>
