<?xml version="1.0" encoding="utf-8"?>
<!-- Generator: Adobe Illustrator 21.0.0, SVG Export Plug-In . SVG Version: 6.00 Build 0)  -->
<svg version="1.1" id="Layer_1" xmlns="http://www.w3.org/2000/svg" xmlns:xlink="http://www.w3.org/1999/xlink" x="0px" y="0px"
	 viewBox="0 0 56 31.9" style="enable-background:new 0 0 56 31.9;" xml:space="preserve">
<style type="text/css">
	.st0{fill:#48EACD;}
	.st1{fill:#FF6C00;}
</style>
<polygon class="st0" points="5.8,28.7 6.7,18.2 0.6,0.6 4.9,0.6 8.1,11.7 8.2,11.7 11.4,0.6 15.7,0.6 9.7,18.3 10.5,28.7 "/>
<polygon class="st0" points="12.9,27.6 13.7,3.2 26,3.2 25.1,6.5 17.2,6.5 17.2,13 24.3,12.9 22.8,17.4 17.2,17.7 17.2,24.1 
	24.1,24.1 24.1,27.6 "/>
<path class="st0" d="M21.6,31.1L28.1,2h3.5l6.5,29.1h-4.6l-0.9-6.3h-5.7L26,31.1H21.6z M31.9,20.9l-2-10.5h-0.1l-2,10.5H31.9z"/>
<polygon class="st0" points="36.8,28.7 36.8,2.4 40.3,2.4 40.3,14.1 44.6,14.1 44.6,4.4 48.1,4.4 48.1,15.6 48.1,26.8 44.6,26.8 
	44.6,17.2 40.3,17.2 40.3,28.7 "/>
<polygon class="st1" points="50.9,20.7 50.8,0.4 55.2,0.7 52.6,20.8 "/>
<path class="st1" d="M53.4,25.3c0,1.1-0.9,1.9-1.9,1.9s-1.9-0.9-1.9-1.9c0-1.1,0.9-1.9,1.9-1.9S53.4,24.2,53.4,25.3"/>
</svg>
