<?xml version="1.0" encoding="utf-8"?>
<!-- Generator: Adobe Illustrator 21.0.0, SVG Export Plug-In . SVG Version: 6.00 Build 0)  -->
<svg version="1.1" id="Layer_1" xmlns="http://www.w3.org/2000/svg" xmlns:xlink="http://www.w3.org/1999/xlink" x="0px" y="0px"
	 viewBox="0 0 512 512" style="enable-background:new 0 0 512 512;" xml:space="preserve">
<style type="text/css">
	.st0{fill:#00BBAC;}
</style>
<path class="st0" d="M406,362c-20.6,0-39.2,8.3-52.8,21.8L230.5,301c6.5-13.7,10.5-28.8,10.5-45s-4-31.3-10.5-45l122.7-82.8
	c13.6,13.5,32.2,21.8,52.8,21.8c41.4,0,75-33.6,75-75S447.4,0,406,0s-75,33.6-75,75c0,10,2,19.5,5.6,28.2l-122.8,82.9
	C194.5,164.7,167,151,136,151c-57.9,0-105,47.1-105,105s47.1,105,105,105c31,0,58.5-13.7,77.8-35.1l122.8,82.9
	C333,417.5,331,427,331,437c0,41.4,33.6,75,75,75s75-33.6,75-75S447.4,362,406,362z"/>
</svg>
